<svg xmlns="http://www.w3.org/2000/svg" width="60" height="60" fill="none" viewBox="0 0 60 60"><g clip-path="url(#clip0_658_1633)"><path fill="#DD636E" d="M28.4421 58.4727V38.8904H25.0018L20.746 35.6134L18.8737 36.3348L17.9454 36.1223L11.3127 38.6937C9.38785 39.4857 6.81055 41.9782 6.81055 45.6768V58.4998C6.81055 59.3283 7.48227 60.0001 8.31078 60.0001H29.9691C29.1294 60 28.4421 59.3127 28.4421 58.4727Z"/><path fill="#DA4A54" d="M10.7023 58.6204V44.0202C10.7023 40.9372 12.4931 38.6933 14.204 37.5728L11.3127 38.6937C9.38785 39.4857 6.81055 41.9782 6.81055 45.6767V58.4997C6.81055 59.3283 7.48227 60.0001 8.31078 60.0001H11.6128C11.0776 59.7708 10.7023 59.2396 10.7023 58.6204Z"/><path fill="#FFCEBE" d="M33.2148 34.1888C32.8959 34.0655 32.6839 33.7584 32.6829 33.4145L32.6804 30.1956C31.3907 31.0395 29.8514 31.5321 28.1986 31.5321C26.3759 31.5321 24.7763 31.0268 23.4718 30.1832L23.4719 33.4095C23.4719 34.0465 22.9036 34.1999 22.6614 34.2939L22.4825 34.3632L22.2817 35.0216L20.4648 35.7217L20.493 35.9013L25.0019 39.3734H28.4421V36.418C28.4421 35.5781 29.1295 35.2532 29.9692 35.2532L35.9284 35.248L33.2148 34.1888Z"/><path fill="#FFB1A0" d="M28.1507 31.5313C26.348 31.5225 24.7647 31.0193 23.4718 30.1832L23.4719 33.4095C23.4719 34.0465 22.9036 34.1999 22.6614 34.2939L22.4825 34.3632L22.2817 35.0216L20.4648 35.7217L20.493 35.9013L25.0019 39.3734H28.1507V31.5313Z"/><path fill="#FFCEBE" d="M39.4474 18.6406H39.0074L36.1699 19.5517V23.7776L36.4028 24.0199C38.5113 24.2671 40.2661 22.7277 40.2661 20.8442C40.2662 20.0296 39.9619 19.2433 39.4474 18.6406Z"/><path fill="#FFB1A0" d="M38.3916 18.8384L36.1699 19.5518V23.7777L36.4028 24.0201C37.1263 24.1049 37.808 23.9793 38.3916 23.7017V18.8384Z"/><path fill="#FFCEBE" d="M16.7132 18.6406H17.1532L19.9907 19.5517V23.7776L19.7579 24.0199C17.6493 24.2671 15.8945 22.7277 15.8945 20.8442C15.8944 20.0296 16.1988 19.2433 16.7132 18.6406Z"/><path fill="#FFB1A0" d="M18.1143 20.8443C18.1143 20.2256 18.2901 19.6237 18.5998 19.1057L17.1514 18.6406H16.7114C16.1969 19.2433 15.8926 20.0296 15.8926 20.8442C15.8926 22.7277 17.6472 24.2671 19.7559 24.0199L19.9888 23.7776V23.7015C18.8716 23.1702 18.1143 22.0815 18.1143 20.8443Z"/><path fill="#FFDECF" d="M35.0476 18.6294C31.5936 16.6912 28.0804 16.6167 28.0804 16.6167C28.0804 16.6167 24.5671 16.6912 21.1131 18.6294C20.6289 18.9012 20.1742 19.0816 19.752 19.1853V23.8057C19.752 28.0963 23.1138 32.0151 28.1992 32.0151C32.7259 32.0151 36.4087 28.3323 36.4087 23.8057V19.1853C35.9865 19.0816 35.5317 18.9012 35.0476 18.6294Z"/><path fill="#FFCEBE" d="M24.1084 23.8057V17.3509C23.1667 17.6446 22.1377 18.0545 21.1131 18.6294C20.6289 18.901 20.1742 19.0816 19.752 19.1853V23.8056C19.752 28.0962 23.1138 32.015 28.1991 32.015C28.9259 32.015 29.6304 31.9189 30.3019 31.7409C26.5008 30.78 24.1084 27.4251 24.1084 23.8057Z"/><path fill="#FFE07D" d="M22.8896 41.7791C23.1709 42.101 23.6575 42.1404 23.987 41.8679L26.3318 39.9287C26.6761 39.6439 26.7157 39.1303 26.419 38.7962L22.4825 34.3632L17.9453 36.1222L22.8896 41.7791Z"/><path fill="#FBC481" d="M51.6615 34.8911H44.7296L44.0582 35.6003H37.2363L36.5387 34.8911H33.5653C33.0845 35.163 32.7598 35.6589 32.7598 36.2242V58.6668C32.7598 59.2322 33.0846 59.7281 33.5654 60H51.6616C52.5015 60 53.1887 59.3127 53.1887 58.4727V36.4181C53.1887 35.5781 52.5014 34.8911 51.6615 34.8911Z"/><path fill="#DD9973" d="M33.2116 58.4727V36.4181C33.2116 35.5781 33.8989 34.8911 34.7387 34.8911H29.6071C28.7673 34.8911 28.0801 35.5782 28.0801 36.4181V58.4727C28.0801 59.3127 28.7674 60 29.6071 60H34.7387C33.8989 60 33.2116 59.3127 33.2116 58.4727Z"/><path fill="#D6865F" d="M36.5391 34.8909V44.4089C36.5391 44.9783 37.1713 45.3201 37.6478 45.0084L40.2423 43.3106C40.4805 43.1546 40.7886 43.1546 41.0269 43.3106L43.6214 45.0084C44.0979 45.3203 44.7301 44.9784 44.7301 44.4089V34.8909H36.5391Z"/><path fill="#B97359" d="M40.6347 34.8909H36.5391V44.4089C36.5391 44.9783 37.1713 45.3201 37.6478 45.0084L40.2423 43.3106C40.3615 43.2326 40.498 43.1937 40.6347 43.1937V34.8909Z"/><path fill="#D6865F" d="M37.7128 57.1349H31.8625C31.3624 57.1349 30.957 56.7294 30.957 56.2294 30.957 55.7292 31.3625 55.3239 31.8625 55.3239H37.7128C38.2129 55.3239 38.6183 55.7293 38.6183 56.2294 38.6183 56.7294 38.2128 57.1349 37.7128 57.1349ZM37.7128 54.13H31.8625C31.3624 54.13 30.957 53.7246 30.957 53.2245 30.957 52.7244 31.3625 52.319 31.8625 52.319H37.7128C38.2129 52.319 38.6183 52.7245 38.6183 53.2245 38.6183 53.7246 38.2128 54.13 37.7128 54.13ZM37.7128 51.1252H31.8625C31.3624 51.1252 30.957 50.7197 30.957 50.2197 30.957 49.7196 31.3625 49.3141 31.8625 49.3141H37.7128C38.2129 49.3141 38.6183 49.7196 38.6183 50.2197 38.6183 50.7197 38.2128 51.1252 37.7128 51.1252Z"/><path fill="#DA4A54" d="M15.1841 60V46.7845C15.1841 46.2812 14.7786 45.8733 14.2786 45.8733C13.7784 45.8733 13.373 46.2813 13.373 46.7845V60H15.1841Z"/><path fill="#FFE07D" d="M39.5356 15.7064C39.5356 15.7064 35.7658 10.3477 28.0756 10.3477C20.3854 10.3477 16.6156 15.7064 16.6156 15.7064C15.5724 18.3393 17.5544 21.2295 21.1113 19.2334C24.5638 17.2961 28.0756 17.2215 28.0756 17.2215C28.0756 17.2215 31.5874 17.2961 35.04 19.2334C38.5968 21.2293 40.5788 18.3393 39.5356 15.7064Z"/><path fill="#FFD064" d="M22.0684 13.0302C22.0684 13.0302 22.7457 12.0683 24.1086 10.8569C19.0869 12.1945 16.6156 15.7064 16.6156 15.7064C15.5724 18.3392 17.5544 21.2294 21.1113 19.2334C21.9197 18.7797 22.7308 18.4292 23.4998 18.157C21.8611 17.3083 21.2449 15.1084 22.0684 13.0302Z"/><path fill="#DD636E" d="M25.1594 2.98639C20.2978 3.88393 16.6152 8.14451 16.6152 13.2658V15.7065C16.6152 15.7065 18.465 14.028 22.2109 13.0202 22.3714 8.71815 23.5171 5.02018 25.1594 2.98639ZM30.9902 2.98639C32.6325 5.02018 33.7782 8.71815 33.9387 13.0202 37.6846 14.0279 39.5344 15.7064 39.5344 15.7064V13.2657C39.5344 8.14451 35.8518 3.88393 30.9902 2.98639Z"/><path fill="#FFE07D" d="M27.0698 3.17379H29.0817C29.469 3.17379 29.8512 3.19559 30.2277 3.2366V1.8109C30.2277 0.814922 29.4127 0 28.4168 0H27.7347C26.7387 0 25.9238 0.814922 25.9238 1.8109V3.2366C26.3002 3.19547 26.6825 3.17379 27.0698 3.17379Z"/><path fill="#FFD064" d="M28.0759 1.8109C28.0759 1.07637 28.5198 0.44168 29.1519 0.15832C28.9268 0.0574219 28.6784 0 28.4169 0H27.7347C26.7388 0 25.9238 0.814922 25.9238 1.8109V3.2366C26.3002 3.19559 26.6825 3.17379 27.0698 3.17379H28.0757V1.8109H28.0759Z"/><path fill="#DA4A54" d="M27.0694 2.81171C26.4041 2.81171 25.7536 2.87464 25.1229 2.99335C23.3593 4.99585 22.1489 8.73624 22.0664 13.0586C23.6985 12.6064 25.6992 12.2787 28.0753 12.2787C30.4515 12.2787 32.4523 12.6064 34.0843 13.0586C34.0017 8.73612 32.7913 4.99573 31.0277 2.99335C30.397 2.87452 29.7465 2.81171 29.0813 2.81171H27.0694Z"/><path fill="#DF4854" d="M28.0622 2.81171H27.0694C26.4041 2.81171 25.7536 2.87464 25.1229 2.99335C23.3593 4.99585 22.1489 8.73624 22.0664 13.0586C23.0004 12.7997 24.0557 12.5821 25.2323 12.443C25.4502 8.46718 26.5178 5.0071 28.0622 2.81171Z"/><path fill="#DBEDFF" d="M29.5736 9.36869H26.5852C26.085 9.36869 25.6797 8.96323 25.6797 8.46319C25.6797 7.96303 26.0852 7.55768 26.5852 7.55768H29.5736C30.0738 7.55768 30.4791 7.96315 30.4791 8.46319C30.4792 8.96323 30.0738 9.36869 29.5736 9.36869Z"/></g><defs><clipPath id="clip0_658_1633"><path fill="#fff" d="M0 0H60V60H0z"/></clipPath></defs></svg>