<svg xmlns="http://www.w3.org/2000/svg" width="60" height="60" fill="none" viewBox="0 0 60 60"><path fill="#FFD15C" d="M29.9459 47.6457C43.1029 47.6457 53.7687 36.9798 53.7687 23.8228C53.7687 10.6658 43.1029 0 29.9459 0C16.7889 0 6.12305 10.6658 6.12305 23.8228C6.12305 36.9798 16.7889 47.6457 29.9459 47.6457Z"/><path fill="#40596B" d="M10.648 37.7598 2.45117 51.9685 12.0181 51.4606 16.3646 60 23.9472 46.8543C18.5142 45.4488 13.8488 42.1771 10.648 37.7598ZM49.2931 37.689C46.1159 42.1181 41.4506 45.4016 36.0293 46.8307L43.6356 60 47.9821 51.4606 57.549 51.9685 49.2931 37.689Z"/><path fill="#F8B64C" d="M29.9474 41.0905C39.4841 41.0905 47.2151 33.3595 47.2151 23.8228C47.2151 14.2861 39.4841 6.55511 29.9474 6.55511C20.4107 6.55511 12.6797 14.2861 12.6797 23.8228C12.6797 33.3595 20.4107 41.0905 29.9474 41.0905Z"/><path fill="#fff" d="M41.782 21.9567C42.3135 21.437 42.0182 20.5276 41.286 20.4213L34.471 19.4291C34.1757 19.3819 33.9277 19.2047 33.7978 18.9331L30.7505 12.7559C30.4198 12.0827 29.4631 12.0827 29.1324 12.7559L26.097 18.9331C25.9671 19.1929 25.7072 19.3819 25.4238 19.4291L18.6088 20.4213C17.8765 20.5276 17.5812 21.437 18.1127 21.9567L23.0379 26.7638C23.2505 26.9764 23.345 27.2716 23.2978 27.5551L22.1403 34.3346C22.0104 35.0669 22.7899 35.6339 23.4513 35.2795L29.5458 32.0787C29.8057 31.937 30.1246 31.937 30.3844 32.0787L36.4789 35.2795C37.1403 35.622 37.908 35.0669 37.7899 34.3346L36.6206 27.5551C36.5734 27.2598 36.6679 26.9646 36.8805 26.7638L41.782 21.9567Z"/></svg>