<svg xmlns="http://www.w3.org/2000/svg" width="60" height="60" fill="none" viewBox="0 0 60 60"><path fill="#FFD15C" d="M55.1637 10.9113V27.6742C55.1637 42.9402 44.7966 56.2515 29.9884 60C15.2049 56.2639 4.83789 42.9402 4.83789 27.6742V10.9113C16.4791 9.6 23.0729 5.17113 30.0008 0C36.9286 5.17113 43.5224 9.6 55.1637 10.9113Z"/><path fill="#F8B64C" d="M29.9994 53.3815C18.853 49.8433 11.1953 39.501 11.1953 27.6742V16.3175C19.0262 14.6103 24.7788 11.4557 29.9994 7.85568C35.3314 11.5547 40.9726 14.6474 48.8036 16.3299V27.6866C48.8036 39.501 41.1458 49.8433 29.9994 53.3815Z"/><path fill="#fff" d="M25.8308 40.2557L19.6328 34.0577L22.7751 30.9031L25.8308 33.9464L37.2246 22.5649L40.3668 25.7072L25.8308 40.2557Z"/></svg>