<svg xmlns="http://www.w3.org/2000/svg" width="60" height="60" fill="none" viewBox="0 0 60 60"><path fill="#FE99A0" d="M39.867 22.9221C39.5001 24.3304 38.6555 25.5954 37.4533 26.4739H29.8674C28.2264 25.2748 27.2478 23.3565 27.2478 21.3351C27.2478 21.1497 27.2575 20.9665 27.2732 20.7851C26.5891 19.7188 25.7654 18.9059 25.0051 18.3097C23.1575 16.8612 21.3198 16.3585 21.2424 16.3375C21.1843 16.3219 21.1252 16.3145 21.0665 16.3145C20.9193 16.3145 20.7741 16.3624 20.6547 16.4533C20.4876 16.5806 20.3895 16.7782 20.3895 16.9878V24.1718C15.3298 26.4618 11.7084 31.3438 11.238 37.112H7.25891C6.8866 37.112 6.58203 37.4149 6.58203 37.785V46.8046C6.58203 47.1749 6.8866 47.4776 7.25891 47.4776H13.0234C14.8721 50.9254 17.9838 53.6002 21.7433 54.8966V58.3594H29.1658L29.5509 55.7557H37.7169C37.9123 55.7557 38.1066 55.751 38.3004 55.7439L38.6871 58.3593H46.1096V53.3396C50.5026 50.5716 53.4195 45.6953 53.4195 40.1405V38.3905C53.4193 30.4924 47.5218 23.9647 39.867 22.9221Z"/><path fill="#FD8087" d="M7.25891 47.4773H13.0234C14.8721 50.9251 17.9838 53.5999 21.7433 54.8964V58.3594H24.673V52.5525C20.9135 51.256 17.8019 48.5812 15.953 45.1335H10.1886C9.81629 45.1335 9.51172 44.8308 9.51172 44.4605V37.1116H7.25891C6.8866 37.1116 6.58203 37.4146 6.58203 37.7846V46.8042C6.58203 47.1746 6.8866 47.4773 7.25891 47.4773Z"/><path fill="#444" d="M16.4805 41.1571C15.9951 41.1571 15.6016 40.7637 15.6016 40.2782V35.6343C15.6016 35.1488 15.9951 34.7554 16.4805 34.7554C16.9659 34.7554 17.3594 35.1488 17.3594 35.6343V40.2782C17.3594 40.7637 16.9659 41.1571 16.4805 41.1571Z"/><path fill="#FB8801" d="M53.4193 60H6.58203C6.09664 60 5.70312 59.6066 5.70312 59.1211 5.70312 58.6356 6.09664 58.2422 6.58203 58.2422H53.4194C53.9048 58.2422 54.2983 58.6356 54.2983 59.1211 54.2983 59.6066 53.9047 60 53.4193 60ZM30.4961 15.7926V13.6649C30.4961 13.1793 30.1026 12.7859 29.6172 12.7859 29.1318 12.7859 28.7383 13.1793 28.7383 13.6649V17.2537C29.23 16.6681 29.8257 16.1726 30.4961 15.7926ZM38.582 17.2535V14.2689C38.582 13.7834 38.1885 13.39 37.7031 13.39 37.2177 13.39 36.8242 13.7834 36.8242 14.2689V15.7925C37.4946 16.1726 38.0903 16.6682 38.582 17.2535ZM37.7031 11.6742C37.4723 11.6742 37.2461 11.5803 37.082 11.4164 36.918 11.2535 36.8242 11.0273 36.8242 10.7953 36.8242 10.5643 36.918 10.3371 37.082 10.1741 37.2461 10.0101 37.4723 9.91638 37.7031 9.91638 37.9352 9.91638 38.1613 10.0101 38.3254 10.1741 38.4883 10.3371 38.582 10.5643 38.582 10.7953 38.582 11.0272 38.4883 11.2535 38.3254 11.4164 38.1613 11.5803 37.9352 11.6742 37.7031 11.6742ZM33.66 14.9588C33.9846 14.9588 34.3035 14.9834 34.6152 15.0298V11.0859C34.6152 10.6004 34.2217 10.207 33.7363 10.207 33.2509 10.207 32.8574 10.6004 32.8574 11.0859V15.0105C33.1206 14.9777 33.3882 14.9588 33.66 14.9588ZM33.7363 8.35193C33.5055 8.35193 33.2781 8.25818 33.1152 8.09412 32.9512 7.93123 32.8574 7.704 32.8574 7.47302 32.8574 7.24216 32.9512 7.01482 33.1152 6.85193 33.2781 6.68787 33.5043 6.59412 33.7363 6.59412 33.9672 6.59412 34.1945 6.68787 34.3574 6.85193 34.5215 7.01482 34.6152 7.24216 34.6152 7.47302 34.6152 7.704 34.5215 7.93123 34.3574 8.09412 34.1945 8.25818 33.9672 8.35193 33.7363 8.35193Z"/><path fill="#FFDC48" d="M29.8277 26.5909H37.4898C39.1246 25.4112 40.1886 23.4974 40.1886 21.3349C40.1886 17.7487 37.265 14.8416 33.6587 14.8416C30.0524 14.8416 27.1289 17.7489 27.1289 21.3349C27.1289 23.4974 28.193 25.4112 29.8277 26.5909Z"/><path fill="#FEA613" d="M36.7684 21.335C36.7684 23.0419 35.3769 24.4253 33.6604 24.4253C31.9441 24.4253 30.5527 23.0419 30.5527 21.335C30.5527 19.6283 31.9441 18.2447 33.6604 18.2447C35.3769 18.2447 36.7684 19.6282 36.7684 21.335Z"/><path fill="#FB8801" d="M32.9332 21.335C32.9332 20.0476 33.7251 18.9445 34.8507 18.48C34.4841 18.3286 34.0822 18.2447 33.6604 18.2447C31.9441 18.2447 30.5527 19.6283 30.5527 21.335C30.5527 23.0419 31.9441 24.4253 33.6604 24.4253C34.0822 24.4253 34.484 24.3414 34.8507 24.1901C33.7251 23.7255 32.9332 22.6226 32.9332 21.335Z"/><path fill="#FFDC48" d="M29.2199 6.52605C29.2199 10.1303 26.2963 13.0521 22.6901 13.0521C19.0836 13.0521 16.1602 10.1302 16.1602 6.52605C16.1603 2.92195 19.0836 0 22.6902 0C26.2964 0 29.2199 2.92195 29.2199 6.52605Z"/><path fill="#FEA613" d="M25.7978 6.52604C25.7978 8.24167 24.4063 9.63186 22.69 9.63186C20.9735 9.63186 19.582 8.24167 19.582 6.52604C19.582 4.81065 20.9735 3.4201 22.69 3.4201C24.4063 3.4201 25.7978 4.81077 25.7978 6.52604Z"/><path fill="#FB8801" d="M21.9625 6.52604C21.9625 5.23218 22.7544 4.12346 23.8801 3.65659C23.5136 3.50448 23.1116 3.4201 22.69 3.4201C20.9735 3.4201 19.582 4.81065 19.582 6.52604C19.582 8.24167 20.9735 9.63186 22.69 9.63186C23.1116 9.63186 23.5136 9.54749 23.8801 9.3955C22.7544 8.92874 21.9625 7.82014 21.9625 6.52604Z"/><path fill="#FEA613" d="M14.4208 17.6605C14.4208 19.3759 13.0293 20.7665 11.3129 20.7665C9.59644 20.7665 8.20508 19.3759 8.20508 17.6605C8.20508 15.9449 9.59644 14.5543 11.3129 14.5543C13.0293 14.5543 14.4208 15.945 14.4208 17.6605Z"/><path fill="#FB8801" d="M10.5856 17.6605C10.5856 16.3664 11.3775 15.2577 12.5032 14.7907C12.1365 14.6387 11.7346 14.5543 11.3129 14.5543C9.59644 14.5543 8.20508 15.9449 8.20508 17.6605C8.20508 19.3759 9.59644 20.7665 11.3129 20.7665C11.7346 20.7665 12.1365 20.6822 12.5032 20.5301C11.3775 20.0632 10.5856 18.9544 10.5856 17.6605Z"/><path fill="#FFDC48" d="M49.618 13.6221C49.618 15.3375 48.2265 16.7282 46.5102 16.7282C44.7937 16.7282 43.4023 15.3375 43.4023 13.6221C43.4023 11.9064 44.7938 10.5159 46.5102 10.5159C48.2265 10.5159 49.618 11.9065 49.618 13.6221Z"/><path fill="#FEA613" d="M45.7809 13.6221C45.7809 12.328 46.5729 11.2193 47.6985 10.7524C47.3318 10.6003 46.93 10.5159 46.5082 10.5159C44.7918 10.5159 43.4004 11.9064 43.4004 13.6221C43.4004 15.3375 44.7919 16.7282 46.5082 16.7282C46.93 16.7282 47.3318 16.6438 47.6985 16.4917C46.5729 16.0249 45.7809 14.9161 45.7809 13.6221Z"/><path fill="#FD8087" d="M40.0171 28.2315H27.6992C27.2138 28.2315 26.8203 27.8381 26.8203 27.3526C26.8203 26.8671 27.2138 26.4737 27.6992 26.4737H40.0171C40.5025 26.4737 40.8961 26.8671 40.8961 27.3526C40.8961 27.8381 40.5025 28.2315 40.0171 28.2315Z"/></svg>