<svg xmlns="http://www.w3.org/2000/svg" width="32" height="28" fill="none" viewBox="0 0 32 28"><path fill="url(#paint0_linear_748_2393)" d="M11.6729 0.121334C11.3307 0.351557 11.2622 0.532001 11.2622 1.22889V1.86978H8.72978C6.34667 1.86978 6.17867 1.876 6.01067 1.988C5.91733 2.05022 5.78044 2.18711 5.71822 2.28045C5.60622 2.44844 5.6 2.62267 5.6 5.16756C5.59378 10.0707 5.45689 11.7756 4.85333 14.2022C4.02578 17.5124 2.32711 20.7418 0.553778 22.372C0.0746667 22.8138 0 22.9382 0 23.3364C0 23.7222 0.124444 23.9587 0.410667 24.1516C0.578667 24.2636 0.746667 24.2698 3.09867 24.2698H5.6V25.8378C5.6 27.5738 5.61244 27.6173 6.01067 27.8849C6.18489 27.9969 6.552 28.0031 18.7289 28.0031C30.9058 28.0031 31.2729 27.9969 31.4471 27.8849C31.5404 27.8227 31.6773 27.6858 31.7396 27.5924C31.8516 27.4182 31.8578 27.0511 31.8578 14.9364C31.8578 2.82178 31.8516 2.45467 31.7396 2.28045C31.6773 2.18711 31.5404 2.05022 31.4471 1.988C31.2791 1.876 31.1111 1.86978 28.7653 1.86978H26.2578V1.22889C26.2578 0.712444 26.2329 0.563112 26.1396 0.413778C25.9467 0.127556 25.7102 0.00311279 25.3244 0.00311279C24.9387 0.00311279 24.7022 0.127556 24.5093 0.413778C24.416 0.563112 24.3911 0.712444 24.3911 1.22889V1.86978H22.0267H19.6622V1.22889C19.6622 0.532001 19.5938 0.351557 19.2516 0.121334C19.0089 -0.0404434 18.4489 -0.0404434 18.2062 0.121334C17.864 0.351557 17.7956 0.532001 17.7956 1.22889V1.86978H15.4622H13.1289V1.22889C13.1289 0.712444 13.104 0.563112 13.0107 0.413778C12.8178 0.127556 12.5813 0.00311279 12.1956 0.00311279C11.9653 0.00311279 11.7973 0.0404453 11.6729 0.121334ZM11.2622 4.37111C11.2622 4.89378 11.2871 5.04311 11.3804 5.19245C11.5733 5.47867 11.8098 5.60311 12.1956 5.60311C12.5813 5.60311 12.8178 5.47867 13.0107 5.19245C13.104 5.04311 13.1289 4.89378 13.1289 4.37111V3.73644H15.4622H17.7956V4.37111C17.7956 5.07422 17.864 5.25467 18.2062 5.48489C18.4489 5.64667 19.0089 5.64667 19.2516 5.48489C19.5938 5.25467 19.6622 5.07422 19.6622 4.37111V3.73644H22.0267H24.3911V4.37111C24.3911 5.07422 24.4596 5.25467 24.8018 5.48489C25.0444 5.64667 25.6044 5.64667 25.8471 5.48489C26.1893 5.25467 26.2578 5.07422 26.2578 4.37111V3.73644H28.1244H29.9911V5.60311V7.46978H18.7289H7.46667V5.60311V3.73644H9.36444H11.2622V4.37111ZM29.904 10.0022C29.6178 14.6689 27.9502 19.0244 25.3307 21.9489L24.9324 22.4031H14.0187H3.11111L3.45333 21.9427C5.71822 18.8751 7.19289 14.4947 7.44178 10.0956L7.48533 9.33644H18.7164H29.9476L29.904 10.0022ZM29.9911 22.1853V26.1364H18.7289H7.46667V25.2031V24.2698H16.5698H25.6791L25.9218 24.0956C26.9671 23.3302 28.8649 20.6609 29.7049 18.7693C29.8356 18.4769 29.9538 18.2342 29.9662 18.2342C29.9787 18.2342 29.9911 20.0138 29.9911 22.1853Z"/><defs><linearGradient id="paint0_linear_748_2393" x1="0" x2="3185.78" y1="28.0031" y2="28.0031" gradientUnits="userSpaceOnUse"><stop stop-color="#C0A473"/><stop offset="0.5" stop-color="#FEDDA5"/><stop offset="1" stop-color="#C0A473"/></linearGradient></defs></svg>