<svg xmlns="http://www.w3.org/2000/svg" width="20" height="20" fill="none" viewBox="0 0 20 20"><g clip-path="url(#clip0_260_6515)"><g clip-path="url(#clip1_260_6515)"><path fill="#000" d="M10.0007 1C9.20953 1 8.43617 1.2346 7.77837 1.67412C7.12057 2.11365 6.60788 2.73836 6.30513 3.46927C6.00238 4.20017 5.92317 5.00444 6.07751 5.78036C6.23185 6.55628 6.61281 7.26902 7.17222 7.82843C7.73163 8.38784 8.44437 8.7688 9.22029 8.92314C9.99621 9.07748 10.8005 8.99827 11.5314 8.69552C12.2623 8.39277 12.887 7.88008 13.3265 7.22228C13.7661 6.56448 14.0007 5.79113 14.0007 5C13.9995 3.93947 13.5778 2.9227 12.8279 2.17279C12.078 1.42288 11.0612 1.0011 10.0007 1ZM10.0007 8.16667C9.37434 8.16667 8.7621 7.98095 8.24134 7.63299C7.72059 7.28503 7.31471 6.79046 7.07503 6.21183C6.83536 5.6332 6.77264 4.99649 6.89483 4.38221C7.01702 3.76794 7.31861 3.20369 7.76148 2.76083C8.20435 2.31796 8.76859 2.01637 9.38286 1.89418C9.99714 1.77199 10.6338 1.8347 11.2125 2.07438C11.7911 2.31406 12.2857 2.71994 12.6336 3.24069C12.9816 3.76145 13.1673 4.37369 13.1673 5C13.1664 5.83958 12.8325 6.64452 12.2388 7.2382C11.6452 7.83187 10.8402 8.16578 10.0007 8.16667ZM16.6673 18.3333H3.33398V14.5833C3.33531 13.3682 3.81862 12.2031 4.67787 11.3439C5.53713 10.4846 6.70215 10.0013 7.91732 10H12.084C13.2992 10.0013 14.4642 10.4846 15.3234 11.3439C16.1827 12.2031 16.666 13.3682 16.6673 14.5833V18.3333ZM4.16732 17.5H15.834V14.5833C15.8329 13.5891 15.4374 12.6359 14.7344 11.9329C14.0314 11.2299 13.0782 10.8344 12.084 10.8333H7.91732C6.92309 10.8344 5.96991 11.2299 5.26689 11.9329C4.56386 12.6359 4.16842 13.5891 4.16732 14.5833V17.5Z"/></g></g><defs><clipPath id="clip0_260_6515"><path fill="#fff" d="M0 0H19.22V20H0z"/></clipPath><clipPath id="clip1_260_6515"><path fill="#fff" d="M0 0H20V20H0z"/></clipPath></defs></svg>