<svg xmlns="http://www.w3.org/2000/svg" width="20" height="20" fill="none" viewBox="0 0 20 20"><g clip-path="url(#clip0_260_6497)"><path fill="#000" d="M0.686849 12.8305H19.292V12.0704C19.292 11.8865 19.2562 11.7156 19.1927 11.5626C19.1243 11.3998 19.0234 11.255 18.8981 11.1296C18.8216 11.0531 18.7354 10.9832 18.6426 10.9213C18.5482 10.8578 18.4473 10.8025 18.3415 10.7553C18.0566 10.6934 17.7734 10.6348 17.4919 10.5795C17.2087 10.5242 16.9238 10.4721 16.6374 10.4233C16.6243 10.4216 16.6146 10.42 16.6016 10.4167C16.4567 10.3923 16.3184 10.3695 16.1865 10.3484C16.0547 10.3272 15.9147 10.3061 15.7682 10.2833H15.765C14.7689 10.1563 13.776 10.0587 12.7848 9.99357C11.792 9.92847 10.804 9.89592 9.82259 9.89429C9.23991 9.89429 8.65885 9.90405 8.0778 9.92684C7.5 9.94963 6.91895 9.98218 6.33789 10.0278H6.33464C5.79102 10.0782 5.24902 10.1417 4.7054 10.2149C4.16341 10.2882 3.61979 10.3744 3.07292 10.4705L3.0127 10.4851C3.0013 10.4884 2.98991 10.49 2.98014 10.49C2.97038 10.4916 2.96061 10.4916 2.95085 10.4916C2.69531 10.5372 2.43327 10.5876 2.16309 10.6414C1.90104 10.6934 1.639 10.7488 1.37858 10.8057C1.31348 10.8416 1.25163 10.8822 1.19303 10.9246C1.13444 10.9685 1.07747 11.0157 1.02702 11.0662C0.917969 11.1752 0.831706 11.3005 0.773112 11.4405C0.717773 11.5723 0.686849 11.7188 0.686849 11.8783V12.8305ZM2.3112 1.86694H17.4463C17.6432 1.86694 17.832 1.90601 18.0046 1.97762C18.1836 2.05249 18.3447 2.16154 18.4798 2.295C18.6149 2.43009 18.724 2.59123 18.7972 2.77026C18.8688 2.94279 18.9079 3.13159 18.9079 3.32853V10.2768C18.9909 10.3256 19.0723 10.3793 19.1471 10.4379C19.2318 10.503 19.3115 10.5714 19.3848 10.6446C19.5736 10.8334 19.7266 11.0531 19.8291 11.3005C19.9268 11.5333 19.9805 11.7921 19.9805 12.072V13.0632C19.9854 13.0795 19.9902 13.0958 19.9935 13.1121V13.1153C19.9967 13.1365 19.9984 13.156 19.9984 13.1755C19.9984 13.1967 19.9967 13.2179 19.9919 13.239C19.9886 13.2553 19.9837 13.2716 19.9788 13.2878V17.7898C19.9788 17.8842 19.9398 17.9705 19.8779 18.0323C19.8161 18.0942 19.7298 18.1332 19.6354 18.1332H18.9274C18.8477 18.1332 18.7744 18.1056 18.7158 18.06C18.6572 18.0144 18.6133 17.9493 18.5954 17.8744C18.4652 17.5001 18.3333 17.2039 18.1917 16.9727C18.0518 16.7449 17.902 16.5821 17.7295 16.4666C17.5553 16.351 17.347 16.2778 17.0947 16.2338C16.8376 16.1882 16.5381 16.1736 16.1816 16.1752L3.19987 16.1915H3.19336C2.93783 16.1866 2.72786 16.2192 2.55208 16.2875C2.37793 16.3559 2.23633 16.4584 2.11914 16.5903C1.9873 16.7367 1.87663 16.9239 1.77572 17.142C1.67318 17.365 1.5804 17.6189 1.48763 17.8972C1.46484 17.9688 1.41927 18.0258 1.3623 18.0665C1.30859 18.1056 1.24349 18.1283 1.17676 18.1316C1.17188 18.1332 1.16699 18.1332 1.16211 18.1332H0.343424C0.249023 18.1332 0.16276 18.0942 0.100911 18.0323C0.0390625 17.9705 0 17.8842 0 17.7898V11.88C0 11.6244 0.0488281 11.3901 0.136719 11.1785C0.23112 10.9539 0.369466 10.7537 0.541992 10.5811C0.59082 10.5323 0.644531 10.4835 0.701497 10.4379C0.750326 10.3988 0.799154 10.3614 0.851237 10.3272V3.31388C0.851237 3.11694 0.890299 2.92977 0.961914 2.7605C1.03678 2.58309 1.14583 2.42358 1.28092 2.29012C1.41602 2.15666 1.57715 2.05086 1.75456 1.97762C1.92708 1.90601 2.11426 1.86694 2.3112 1.86694ZM17.4463 2.55379H2.3112C2.2054 2.55379 2.10449 2.57495 2.01172 2.61239C1.91569 2.65145 1.83105 2.70841 1.75944 2.7784C1.68945 2.84676 1.63249 2.9314 1.59342 3.02254C1.55762 3.11206 1.53809 3.20972 1.53809 3.31388V9.99683C1.58691 9.98055 1.63574 9.96753 1.6862 9.95451C1.76595 9.93335 1.8457 9.91545 1.92546 9.90242C2.03613 9.88289 2.15658 9.86174 2.28678 9.83895C2.38444 9.82267 2.48861 9.80477 2.59603 9.78849V8.08276C2.59603 7.8256 2.64811 7.57983 2.74089 7.35523C2.83854 7.12085 2.98014 6.91089 3.15592 6.73511C3.33171 6.55933 3.54167 6.41773 3.77604 6.32007C4.00065 6.22729 4.24642 6.17521 4.50358 6.17521H7.72949C7.98665 6.17521 8.23242 6.22729 8.45703 6.32007C8.69141 6.41773 8.90137 6.55933 9.07715 6.73511C9.25293 6.91089 9.39453 7.12085 9.49219 7.35523C9.58496 7.57983 9.63704 7.8256 9.63704 8.08276V9.17163C9.75098 9.17 9.86491 9.17 9.98047 9.17V8.08276C9.98047 7.8256 10.0326 7.57983 10.1253 7.35523C10.223 7.12085 10.3646 6.91089 10.5404 6.73511C10.7161 6.55933 10.9261 6.41773 11.1605 6.32007C11.3851 6.22729 11.6309 6.17521 11.888 6.17521H15.1139C15.3711 6.17521 15.6169 6.22729 15.8415 6.32007C16.0758 6.41773 16.2858 6.55933 16.4616 6.73511C16.6374 6.91089 16.779 7.12085 16.8766 7.35523C16.9694 7.57983 17.0215 7.8256 17.0215 8.08276V9.76571C17.1436 9.78361 17.2738 9.80477 17.4137 9.82756C17.5684 9.85197 17.7165 9.87638 17.8597 9.9008C17.9329 9.91382 18.0078 9.92847 18.0827 9.94637C18.1299 9.95776 18.1755 9.96916 18.2194 9.98218V3.32853C18.2194 3.22437 18.1982 3.12508 18.1608 3.03394C18.1217 2.93953 18.0632 2.8549 17.9915 2.78166C17.9199 2.71004 17.8337 2.65145 17.7409 2.61239C17.6497 2.57495 17.5505 2.55379 17.4463 2.55379ZM7.03288 9.28231C7.36003 9.25789 7.6888 9.23674 8.02246 9.22046C8.33008 9.20418 8.64095 9.19279 8.95182 9.18465V8.08276C8.95182 7.91838 8.91927 7.7605 8.85905 7.61727C8.7972 7.46753 8.70605 7.33407 8.59212 7.22013C8.47982 7.10783 8.34473 7.01668 8.19499 6.95321C8.05176 6.89299 7.89388 6.86043 7.72949 6.86043H4.50358C4.33919 6.86043 4.18131 6.89299 4.03809 6.95321C3.88835 7.01506 3.75488 7.1062 3.64095 7.22013C3.52865 7.33244 3.4375 7.46753 3.37402 7.61727C3.3138 7.7605 3.28125 7.91838 3.28125 8.08276V9.67944C3.54492 9.64038 3.81185 9.60457 4.08529 9.56877C4.37988 9.53133 4.67285 9.49715 4.96257 9.4646C5.07487 9.45158 5.19531 9.43693 5.32064 9.42391C5.43783 9.41089 5.5599 9.3995 5.6901 9.38648C5.91146 9.36532 6.13119 9.34578 6.34766 9.32788C6.57064 9.31323 6.7985 9.29696 7.03288 9.28231ZM10.6673 9.17489C10.8643 9.17814 11.0612 9.18302 11.2581 9.18954C11.4762 9.19605 11.6943 9.20581 11.9108 9.21558H11.9124C12.2689 9.2286 12.6172 9.24487 12.9557 9.2644C13.2943 9.28394 13.6247 9.30835 13.9404 9.33602C14.3994 9.37671 14.8438 9.42554 15.2653 9.4825C15.6429 9.53459 16.001 9.59318 16.3363 9.65828V8.08276C16.3363 7.91838 16.3037 7.7605 16.2435 7.61727C16.1816 7.46753 16.0905 7.33407 15.9766 7.22013C15.8643 7.10783 15.7292 7.01668 15.5794 6.95321C15.4362 6.89299 15.2783 6.86043 15.1139 6.86043H11.8896C11.7253 6.86043 11.5674 6.89299 11.4242 6.95321C11.2744 7.01506 11.141 7.1062 11.027 7.22013C10.9147 7.33244 10.8236 7.46753 10.7601 7.61727C10.6999 7.7605 10.6673 7.91838 10.6673 8.08276V9.17489ZM19.2936 13.519H0.686849V17.4464H0.919596C1.01074 17.1892 1.10514 16.95 1.21094 16.7367C1.32487 16.5089 1.45345 16.307 1.6097 16.1329C1.79525 15.9246 2.01335 15.7634 2.27539 15.656C2.53743 15.5502 2.84342 15.4965 3.21126 15.5046L16.1816 15.4884C16.5999 15.4884 16.958 15.5079 17.2705 15.5681C17.5879 15.6283 17.8613 15.7309 18.1071 15.8936C18.335 16.045 18.5303 16.2452 18.7061 16.5072C18.8737 16.7579 19.0234 17.0655 19.1667 17.4447H19.2904V13.519H19.2936Z"/></g><defs><clipPath id="clip0_260_6497"><path fill="#fff" d="M0 0H20V20H0z"/></clipPath></defs></svg>