<svg xmlns="http://www.w3.org/2000/svg" width="20" height="20" fill="none" viewBox="0 0 20 20"><g fill="#000" clip-path="url(#clip0_260_6491)"><path d="M15.9688 1.84375H4.03125C3.25 1.84375 2.65625 2.46875 2.65625 3.21875V17.625C2.65625 18.4062 3.28125 19 4.03125 19H5.6875H14.2812H15.9688C16.75 19 17.3438 18.375 17.3438 17.625V3.25C17.375 2.46875 16.75 1.84375 15.9688 1.84375ZM5.53125 17.6562V7.09375C5.53125 7.03125 5.59375 6.96875 5.65625 6.96875H9.375V17.8125H5.6875C5.59375 17.7812 5.53125 17.7188 5.53125 17.6562ZM10.625 17.7812V6.96875H14.2812C14.3438 6.96875 14.4062 7.03125 14.4062 7.09375V17.6562C14.4062 17.7188 14.3438 17.7812 14.2812 17.7812H10.625ZM16.125 17.6562C16.125 17.7188 16.0625 17.7812 16 17.7812H15.6875C15.6875 17.75 15.6875 17.6875 15.6875 17.6562V7.09375C15.6875 6.3125 15.0625 5.71875 14.3125 5.71875H5.6875C4.90625 5.71875 4.3125 6.34375 4.3125 7.09375V17.6562C4.3125 17.7188 4.3125 17.75 4.3125 17.7812H4.03125C3.96875 17.7812 3.90625 17.7188 3.90625 17.6562V3.25C3.90625 3.1875 3.96875 3.125 4.03125 3.125H16C16.0625 3.125 16.125 3.1875 16.125 3.25V17.6562Z"/><path d="M8.21875 3.96875 8.1875 3.9375C8.1875 3.9375 8.1875 3.90625 8.15625 3.90625 8.125 3.84375 8.09375 3.8125 8.0625 3.78125 8.03125 3.75 8 3.71875 7.9375 3.6875 7.9375 3.6875 7.9375 3.6875 7.90625 3.6875 7.875 3.65625 7.8125 3.65625 7.78125 3.625 7.75 3.625 7.75 3.625 7.71875 3.625H7.6875C7.65625 3.625 7.65625 3.625 7.625 3.625 7.5625 3.625 7.5 3.625 7.4375 3.65625 7.40625 3.65625 7.34375 3.6875 7.3125 3.71875L7.28125 3.75 7.25 3.78125 7.21875 3.8125C7.1875 3.84375 7.1875 3.84375 7.15625 3.875 7.15625 3.90625 7.125 3.90625 7.125 3.9375 7.125 3.9375 7.125 3.9375 7.09375 3.96875V4C7.09375 4 7.09375 4 7.09375 4.03125 7 4.1875 6.90625 4.375 6.8125 4.53125 6.8125 4.5625 6.78125 4.59375 6.78125 4.625 6.65625 4.8125 6.65625 5.0625 6.78125 5.25 6.90625 5.4375 7.09375 5.5625 7.3125 5.5625 7.53125 5.5625 7.75 5.5625 7.9375 5.5625 7.96875 5.5625 8 5.5625 8.03125 5.5625 8.25 5.5625 8.46875 5.4375 8.5625 5.25 8.6875 5.0625 8.6875 4.8125 8.5625 4.625 8.4375 4.34375 8.3125 4.15625 8.21875 3.96875ZM12.875 3.59375C12.6563 3.59375 12.4375 3.59375 12.25 3.59375 12.2188 3.59375 12.1875 3.59375 12.1563 3.59375 11.9375 3.59375 11.7188 3.71875 11.625 3.90625 11.5 4.09375 11.5 4.34375 11.625 4.53125 11.7188 4.71875 11.8437 4.90625 11.9375 5.09375L11.9687 5.125C11.9687 5.125 11.9688 5.15625 12 5.15625 12.0313 5.21875 12.0625 5.25 12.0938 5.28125 12.125 5.3125 12.1562 5.34375 12.2187 5.375 12.2187 5.375 12.2188 5.375 12.25 5.375 12.2812 5.40625 12.3437 5.40625 12.375 5.4375 12.4062 5.4375 12.4062 5.4375 12.4375 5.4375H12.4688C12.5 5.4375 12.5 5.4375 12.5312 5.4375 12.5937 5.4375 12.6562 5.4375 12.7188 5.40625 12.75 5.40625 12.8125 5.375 12.8437 5.34375L12.875 5.3125 12.9062 5.28125 12.9375 5.25C12.9688 5.21875 12.9687 5.21875 13 5.1875 13 5.15625 13.0312 5.15625 13.0312 5.125 13.0312 5.125 13.0312 5.125 13.0625 5.09375V5.0625C13.0625 5.0625 13.0625 5.0625 13.0625 5.03125 13.1562 4.875 13.25 4.6875 13.3438 4.53125 13.3438 4.5 13.375 4.46875 13.375 4.4375 13.5 4.25 13.5 4 13.375 3.8125 13.3125 3.71875 13.0938 3.59375 12.875 3.59375Z"/></g><defs><clipPath id="clip0_260_6491"><path fill="#fff" d="M0 0H20V20H0z"/></clipPath></defs></svg>