<svg xmlns="http://www.w3.org/2000/svg" width="20" height="20" fill="none" viewBox="0 0 20 20"><path fill="#0F0F0F" d="M18.334 6.66659C17.8737 6.66659 17.5007 6.29349 17.5007 5.83325V3.67843L11.1792 9.99992L17.5007 16.3214V14.1666C17.5007 13.7063 17.8737 13.3333 18.334 13.3333C18.7942 13.3333 19.1673 13.7063 19.1673 14.1666V17.4999C19.1673 18.4204 18.4212 19.1666 17.5007 19.1666H14.1673C13.7071 19.1666 13.334 18.7935 13.334 18.3333C13.334 17.873 13.7071 17.4999 14.1673 17.4999H16.3222L10.0007 11.1784L3.67916 17.4999H5.83398C6.29422 17.4999 6.66732 17.873 6.66732 18.3333C6.66732 18.7935 6.29422 19.1666 5.83398 19.1666H2.50065C1.58018 19.1666 0.833984 18.4204 0.833984 17.4999V14.1666C0.833984 13.7063 1.20708 13.3333 1.66732 13.3333C2.12755 13.3333 2.50065 13.7063 2.50065 14.1666V16.3214L8.82215 9.99992L2.50065 3.67844V5.83325C2.50065 6.29349 2.12755 6.66659 1.66732 6.66659C1.20708 6.66659 0.833984 6.29349 0.833984 5.83325V2.49992C0.833984 1.57944 1.58018 0.833252 2.50065 0.833252H5.83398C6.29422 0.833252 6.66732 1.20635 6.66732 1.66659C6.66732 2.12682 6.29422 2.49992 5.83398 2.49992H3.67916L10.0007 8.82142L16.3222 2.49992H14.1673C13.7071 2.49992 13.334 2.12682 13.334 1.66659C13.334 1.20635 13.7071 0.833252 14.1673 0.833252H17.5007C18.4212 0.833252 19.1673 1.57944 19.1673 2.49992V5.83325C19.1673 6.29349 18.7942 6.66659 18.334 6.66659Z"/></svg>