<svg xmlns="http://www.w3.org/2000/svg" width="60" height="60" fill="none" viewBox="0 0 60 60"><path fill="#fff" d="M21.2461 7.49998C20.7656 7.6992 20.707 8.00389 20.9062 9.23436 21.0703 10.1719 21.1523 10.418 21.3984 10.6289 21.7734 10.9687 22.0547 10.9687 22.4648 10.6172L22.7812 10.3359 22.6406 9.33983C22.4531 8.03904 22.3125 7.67576 21.9609 7.5117 21.6211 7.35936 21.5976 7.35936 21.2461 7.49998ZM24.4332 12.082C19.1363 12.6445 14.2847 14.8945 10.8043 18.4102 7.74567 21.4922 6.08161 25.043 5.78864 29.0859 5.71832 30.1875 5.71832 30.2227 6.01129 30.5156 6.17536 30.6797 6.43317 30.8203 6.57379 30.8203 6.71442 30.8203 7.27692 30.5273 7.83942 30.1875 9.72614 28.9922 11.5074 28.4414 13.4761 28.4414 14.7652 28.4531 15.855 28.6641 16.6636 29.0742 17.3082 29.4023 17.6129 29.3555 18.2222 28.8281 20.3902 26.9531 23.0152 25.9453 26.3199 25.7109 27.691 25.6172 29.7066 25.8047 31.1715 26.1445 31.7222 26.2734 32.3082 26.4141 32.4722 26.4375 32.73 26.4961 32.9175 26.3906 33.5504 25.8047 34.4644 24.9844 35.8004 24.2578 37.1011 23.8828 37.898 23.6484 38.2847 23.6133 39.9019 23.625 41.4371 23.6367 41.941 23.6836 42.7027 23.8828 43.2183 24.0234 43.6988 24.1406 43.7925 24.1406 44.0621 24.1406 44.5308 23.5898 44.5308 23.2617 44.5308 22.8633 43.5699 20.918 42.773 19.7461 41.9175 18.457 39.7144 16.2891 38.3199 15.3633 34.4058 12.7734 29.3316 11.5664 24.4332 12.082ZM30.7613 14.0625C35.5191 15.0703 39.2808 17.4961 41.6246 21.082 41.941 21.5625 42.1754 21.9609 42.1519 21.9844 42.1402 21.9961 41.6011 21.9727 40.9566 21.9258 38.1207 21.7148 35.5425 22.3125 33.6207 23.6016L32.9996 24.0234 32.5543 22.7578C31.1597 18.7734 29.2144 16.0547 26.2496 13.9102 25.9683 13.7109 26.0035 13.6992 27.773 13.7578 28.9683 13.793 29.9879 13.8984 30.7613 14.0625ZM23.9879 14.6719C26.3199 15.6328 28.6285 18.082 30.0582 21.1289 30.5621 22.1953 31.3355 24.2578 31.2535 24.3281 31.23 24.3516 30.6441 24.293 29.9293 24.1992 27.3511 23.8594 24.6675 24.0234 22.441 24.668 21.2808 25.0078 19.4996 25.8047 18.6793 26.3672 18.3863 26.5547 18.1168 26.7188 18.0816 26.7188 18.0464 26.7188 18.0464 25.6992 18.0816 24.457 18.1519 21.8438 18.3863 20.5312 19.1129 18.6914 19.6871 17.2031 20.4839 15.9844 21.5504 14.9648 22.4996 14.0391 22.4761 14.0508 23.9879 14.6719ZM18.5035 16.0664C17.8472 17.168 17.3316 18.4453 16.9332 19.957 16.4996 21.6445 16.3707 22.7461 16.3589 24.9844 16.3472 26.1328 16.3238 27.0703 16.2886 27.0703 16.2535 27.0703 15.8082 26.9883 15.2925 26.8945 13.0777 26.4961 10.8043 26.8125 8.56598 27.8438 8.08551 28.0664 7.67536 28.2188 7.6402 28.1836 7.53473 28.0898 7.8277 26.6836 8.15582 25.6992 9.25739 22.3828 11.6949 19.3477 15.0347 17.1211 15.9136 16.5234 18.6675 15.1172 18.9488 15.1172 19.0191 15.1172 18.8199 15.5391 18.5035 16.0664Z"/><path fill="#fff" d="M24.5508 27.9491C24.3867 28.1015 24.2578 28.3124 24.2578 28.4179C24.2578 28.7929 26.6016 42.1288 26.7188 42.3866C26.9531 42.9374 27.9727 42.8554 28.1719 42.2694C28.2656 42.0233 28.0195 40.4179 27.0938 35.0624C25.957 28.5233 25.8867 28.1718 25.6055 27.914C25.207 27.5741 24.9023 27.5858 24.5508 27.9491Z"/><path fill="#fff" d="M52.9216 29.8008C52.8044 29.8828 51.7732 31.875 50.6365 34.2305L48.5623 38.4961L41.2498 38.5547C37.2185 38.5898 33.8318 38.6602 33.7263 38.707C33.2693 38.9414 33.2693 39.9375 33.7263 40.1602C33.8318 40.207 34.8279 40.2773 35.9294 40.3125L37.9333 40.3711L36.6912 42.4453L35.4607 44.5312H23.9529C12.949 44.5312 12.4333 44.543 12.1755 44.7422C11.8474 45.0117 11.824 45.5977 12.1287 45.9375C12.3279 46.1484 12.5154 46.1719 15.1873 46.1953L18.0466 46.2305L16.5701 48.6797C15.7615 50.0391 15.0466 51.2695 14.988 51.4219C14.7537 52.043 15.4802 52.6875 16.113 52.4062C16.2888 52.3242 17.0271 51.2227 18.2224 49.2305L20.0505 46.1719H32.449C44.1091 46.1719 44.8591 46.1836 45.0232 46.3711C45.1287 46.4883 45.949 47.8477 46.8748 49.3828C47.7888 50.9297 48.6208 52.2656 48.7263 52.3477C48.8318 52.4297 49.0427 52.5 49.1951 52.5C49.5349 52.5 50.0388 52.0078 50.0388 51.6562C50.0388 51.5039 49.3123 50.1797 48.4216 48.6914L46.8044 45.9961L50.4841 38.4375C52.4998 34.2773 54.1873 30.7383 54.2224 30.5625C54.3513 29.9414 53.449 29.4141 52.9216 29.8008ZM46.6638 42.4219L45.656 44.5312H41.5662C39.2224 44.5312 37.4998 44.4844 37.5232 44.4258C37.5466 44.3672 38.0857 43.418 38.7302 42.3164L39.9021 40.3242L43.7927 40.3125H47.6716L46.6638 42.4219Z"/><path fill="#fff" d="M28.0664 48.1054C27.9023 48.2578 27.7734 48.457 27.7734 48.5273C27.7734 48.6093 27.9023 49.4414 28.0664 50.3789C28.3359 51.8789 28.4062 52.125 28.6758 52.3593C29.0273 52.6757 29.4727 52.6289 29.8008 52.2421C30.0586 51.9375 30.0469 51.8671 29.7539 50.1328C29.4609 48.3867 29.3438 48.0585 28.9805 47.9179C28.5469 47.7539 28.3711 47.789 28.0664 48.1054Z"/></svg>