<svg xmlns="http://www.w3.org/2000/svg" width="60" height="60" fill="none" viewBox="0 0 60 60"><path fill="#fff" d="M15.3438 0.65625C13.1876 1 10.0938 2.59375 8.50005 4.1875C5.7188 7 4.2188 11.3125 4.8438 14.7188C6.37505 22.7188 14.3751 27.4062 21.5938 24.5C23.2188 23.875 23.8751 23.7188 24.5001 23.9375C25.2501 24.2188 25.3438 24.4688 25.7188 26.875C26.2188 30.125 27.4063 32.7812 29.3751 35C30.1876 35.9062 31.3438 37.4062 31.9063 38.3125L32.9688 39.9688V46.4062C32.9688 51.3438 32.8751 53.0312 32.5313 53.6875C31.2813 56.0625 28.0001 57.8125 24.7813 57.8125H22.6563V58.75V59.6875H35.7813H48.9063V58.75V57.8125H46.8751C45.2188 57.8125 44.4688 57.625 43.0313 56.9062C41.0626 55.9062 39.7501 54.6562 39.2501 53.3438C39.0313 52.8125 38.9063 49.8438 38.9063 46.125V39.7812L40.1563 37.9375C40.8438 36.9375 42.0938 35.2188 42.9376 34.1562C44.7813 31.8438 45.7813 29.3438 46.0001 26.4688C46.1876 24.3438 46.1876 24.3438 47.4688 23.6875C52.7813 20.9688 55.4376 17.75 55.4688 14V12.1875L42.6251 12.125L29.7501 12.0312L29.2188 10.125C27.5001 3.84375 21.3751 -0.34375 15.3438 0.65625ZM21.4063 3.15625C22.1876 3.5 22.8438 3.78125 22.9063 3.75C22.9376 3.75 23.6876 4.46875 24.5313 5.34375C26.2188 7.09375 27.3126 9.09375 27.5626 10.875L27.7188 12.0312H26.0626H24.4063L24.1251 10.8125C23.9063 9.96875 23.3126 9.0625 22.1876 7.9375C20.8126 6.59375 20.2501 6.25 18.8438 5.96875C16.8438 5.53125 14.1876 5.96875 13.2813 6.875C12.9688 7.1875 12.6251 7.375 12.5626 7.28125C12.2188 6.9375 10.4063 10.125 10.0938 11.6562C9.43755 14.8125 11.1251 18.125 14.1563 19.5625C14.8126 19.875 16.0938 20.125 17.1876 20.125C18.8438 20.1562 19.1563 20.25 19.7813 21C20.1876 21.5 20.6251 21.8125 20.7813 21.7188C20.9063 21.625 21.1251 21.8125 21.2188 22.0938C21.4688 22.75 21.0313 23.0312 19.0001 23.4375C16.3438 24 13.3438 23.3438 11.2188 21.7188C10.6876 21.3125 10.1563 21.0312 10.0938 21.125C9.87505 21.3125 7.50005 17.6562 7.00005 16.4062C6.43755 14.9375 6.50005 10.6875 7.1563 9.21875C7.93755 7.375 9.8438 4.65625 10.3126 4.6875C10.4063 4.6875 11.0313 4.3125 11.7188 3.875C14.3126 2.15625 18.4376 1.84375 21.4063 3.15625ZM19.8126 8.25C20.8438 8.78125 21.4688 9.375 21.8438 10.0938C22.7813 12.125 22.6876 12.1875 19.3438 12.1875H16.3438L16.5001 14.5938C16.5626 15.9375 16.7188 17.3438 16.8751 17.75C17.0938 18.4062 17.0313 18.4375 16.0626 18.2812C14.3751 17.9688 13.0001 16.9375 12.3438 15.4688C11.0626 12.625 12.0001 9.46875 14.5313 8.21875C16.3438 7.3125 17.9376 7.3125 19.8126 8.25ZM53.5626 15.0625C53.4063 17.6562 54.1563 17.5 42.1251 17.5H31.4063V18.2812C31.4063 18.7188 31.5001 19.0625 31.6563 19.0625C31.7813 19.0625 36.0626 19.0938 41.1876 19.0938C46.6251 19.0938 50.4688 19.2188 50.4688 19.4062C50.4688 19.7812 49.3126 20.9375 48.9376 20.9375C48.7813 20.9375 48.4376 21.125 48.2188 21.3125C47.7813 21.75 44.4376 23.3125 43.4376 23.5625C43.0938 23.6562 42.0626 23.75 41.1876 23.7812C39.5626 23.875 39.5313 23.875 39.5313 24.7812V25.7188L41.9063 25.5312L44.3126 25.3438L44.0938 27.2188C43.8751 29.3125 42.9063 31.875 42.0001 32.6875C41.6876 32.9688 41.4063 33.4062 41.4063 33.625C41.4063 33.875 41.0938 34.2188 40.7501 34.4375C40.3751 34.6562 39.3751 35.9062 38.5001 37.1875L36.9688 39.5312L37.1563 46.5312C37.3438 53.1875 37.4063 53.625 38.0938 54.8438C38.5001 55.5312 39.1251 56.375 39.5001 56.6875C39.8751 57.0312 40.1563 57.4062 40.1563 57.5625C40.1563 57.6875 38.2501 57.8125 35.9376 57.8125C33.6251 57.8125 31.7188 57.7188 31.7188 57.5625C31.7188 57.4375 32.0938 56.875 32.5938 56.3438C35.0001 53.5938 35.0001 53.5625 34.6563 45.3125L34.3751 38.8438L33.2188 37.125C32.5938 36.1562 31.5001 34.7812 30.8126 34.0312C30.0938 33.3125 29.5313 32.5938 29.5313 32.4688C29.5313 32.3438 29.4063 32.1875 29.2501 32.125C28.6876 31.9062 27.5938 28.1875 27.4376 25.75C27.2501 23.25 27.2188 23.1875 26.4063 23C25.9376 22.9062 25.3438 22.625 25.0626 22.375C24.8126 22.125 24.5313 22 24.4063 22.0938C24.3126 22.2188 24.2188 22.1562 24.2188 21.9688C24.2188 21.8125 23.6876 21.4062 23.0626 21.0625C22.4063 20.75 21.0938 19.6562 20.0938 18.6875C18.7501 17.3125 18.2813 16.5938 18.1251 15.625C18.0001 14.9688 18.0001 14.25 18.1251 14.0625C18.2501 13.8438 24.1251 13.75 35.9688 13.75H53.6563L53.5626 15.0625Z"/><path fill="#fff" d="M24.8438 18.3438C24.8438 19.1875 24.9062 19.2188 26.4062 19.2188C27.9062 19.2188 27.9688 19.1875 27.9688 18.375C27.9688 17.5312 27.9062 17.5 26.4062 17.5C24.9062 17.5 24.8438 17.5312 24.8438 18.3438Z"/></svg>