<svg xmlns="http://www.w3.org/2000/svg" width="13" height="12" fill="none" viewBox="0 0 13 12"><path fill="#fff" d="M10 5.5H7V2.5C7 2.36739 6.94732 2.24021 6.85355 2.14645C6.75979 2.05268 6.63261 2 6.5 2C6.36739 2 6.24021 2.05268 6.14645 2.14645C6.05268 2.24021 6 2.36739 6 2.5V5.5H3C2.86739 5.5 2.74021 5.55268 2.64645 5.64645C2.55268 5.74021 2.5 5.86739 2.5 6C2.5 6.13261 2.55268 6.25979 2.64645 6.35355C2.74021 6.44732 2.86739 6.5 3 6.5H6V9.5C6 9.63261 6.05268 9.75979 6.14645 9.85355C6.24021 9.94732 6.36739 10 6.5 10C6.63261 10 6.75979 9.94732 6.85355 9.85355C6.94732 9.75979 7 9.63261 7 9.5V6.5H10C10.1326 6.5 10.2598 6.44732 10.3536 6.35355C10.4473 6.25979 10.5 6.13261 10.5 6C10.5 5.86739 10.4473 5.74021 10.3536 5.64645C10.2598 5.55268 10.1326 5.5 10 5.5Z"/></svg>