<svg xmlns="http://www.w3.org/2000/svg" width="20" height="20" fill="none" viewBox="0 0 20 20"><path fill="#000" d="M10.0002 12.9165C9.89048 12.9171 9.78176 12.8961 9.68023 12.8546C9.5787 12.8132 9.48635 12.7521 9.40849 12.6748L6.07515 9.3415C5.99746 9.2638 5.93582 9.17156 5.89377 9.07004C5.85172 8.96852 5.83008 8.85971 5.83008 8.74983C5.83008 8.63995 5.85172 8.53114 5.89377 8.42962C5.93582 8.3281 5.99746 8.23586 6.07515 8.15816C6.15285 8.08046 6.2451 8.01883 6.34661 7.97678C6.44813 7.93473 6.55694 7.91309 6.66682 7.91309C6.7767 7.91309 6.88551 7.93473 6.98703 7.97678C7.08855 8.01883 7.18079 8.08046 7.25849 8.15816L10.0002 10.9165L12.7502 8.2665C12.8268 8.18125 12.9202 8.11275 13.0246 8.06526C13.1289 8.01777 13.2419 7.99232 13.3566 7.99051C13.4712 7.98869 13.585 8.01054 13.6908 8.0547C13.7966 8.09886 13.8921 8.16438 13.9714 8.24715C14.0508 8.32992 14.1121 8.42816 14.1518 8.53574C14.1914 8.64332 14.2084 8.75792 14.2017 8.87236C14.195 8.98681 14.1648 9.09865 14.1129 9.20088C14.061 9.30311 13.9886 9.39353 13.9002 9.4665L10.5668 12.6832C10.4144 12.8301 10.2118 12.9135 10.0002 12.9165Z"/></svg>