<svg xmlns="http://www.w3.org/2000/svg" width="51" height="50" fill="none" viewBox="0 0 51 50"><g fill="#FDB827" clip-path="url(#clip0_344_11289)"><path d="M13.3151 17.3334C13.2239 17.335 13.1333 17.3186 13.0484 17.2851C12.9636 17.2517 12.8861 17.2019 12.8205 17.1386C12.688 17.0106 12.6117 16.8353 12.6085 16.6511C12.6053 16.4669 12.6754 16.289 12.8033 16.1565C12.9313 16.024 13.1066 15.9477 13.2908 15.9445C16.6982 15.9064 20.0982 15.6186 23.4635 15.0834C23.5233 15.0709 23.5845 15.0667 23.6454 15.0709C24.489 15.1155 25.3073 15.3736 26.0239 15.8209C26.1422 15.9068 26.2303 16.028 26.2758 16.167C26.3212 16.306 26.3216 16.4558 26.2769 16.595C26.2321 16.7343 26.1446 16.8559 26.0267 16.9424C25.9088 17.029 25.7666 17.0761 25.6204 17.0771C25.4569 17.0771 25.2983 17.0209 25.1711 16.9181C24.703 16.6498 24.1786 16.4945 23.6399 16.4646C20.2295 17.0004 16.7851 17.2908 13.3331 17.3334H13.3151Z"/><path d="M38.7171 33.8539C38.1246 33.8547 37.5471 33.6675 37.0678 33.3192L36.9185 33.2158C36.899 33.2026 36.8664 33.1762 36.8359 33.1463L28.6617 27.2596C28.5854 27.2075 28.5202 27.1407 28.4701 27.0632C28.4199 26.9856 28.3857 26.8987 28.3695 26.8078C28.3533 26.7168 28.3554 26.6235 28.3757 26.5334C28.3961 26.4433 28.4342 26.3581 28.4878 26.2829C28.5414 26.2076 28.6096 26.1439 28.6882 26.0953C28.7668 26.0467 28.8543 26.0143 28.9456 26C29.0368 25.9857 29.1301 25.9897 29.2198 26.0119C29.3095 26.0341 29.3938 26.0739 29.4679 26.1291L30.0235 26.5249L37.6726 32.0408C37.6955 32.0572 37.7173 32.075 37.7379 32.0943L37.8706 32.1866C38.1718 32.4025 38.5443 32.4946 38.9114 32.4438C39.2785 32.393 39.6121 32.2033 39.8434 31.9137C39.9853 31.7346 40.082 31.524 40.1254 31.2997C40.1688 31.0754 40.1576 30.8439 40.0927 30.6248C40.0147 30.3489 39.8535 30.1037 39.6309 29.9228L28.6978 21.0153C24.5111 23.2375 21.5452 22.0944 20.1292 21.1896C19.8952 21.0373 19.7052 20.8263 19.5782 20.5777C19.4512 20.3291 19.3915 20.0515 19.4052 19.7726C19.4189 19.4937 19.5055 19.2233 19.6563 18.9884C19.8071 18.7534 20.0168 18.562 20.2647 18.4334L26.5229 15.1099C26.9223 14.9009 27.3592 14.7731 27.8083 14.7337C28.2574 14.6944 28.7098 14.7443 29.1395 14.8807L32.8415 16.0821C33.9314 16.4405 35.1135 16.3979 36.1748 15.9619L37.7872 15.3015C37.8716 15.2669 37.962 15.2493 38.0532 15.2496C38.1445 15.2499 38.2347 15.2682 38.3189 15.3034C38.403 15.3386 38.4794 15.3901 38.5437 15.4548C38.608 15.5195 38.6588 15.5963 38.6935 15.6807C38.7281 15.7651 38.7457 15.8555 38.7454 15.9467C38.7451 16.0379 38.7268 16.1282 38.6916 16.2123C38.6564 16.2965 38.6049 16.3729 38.5402 16.4371C38.4755 16.5014 38.3987 16.5523 38.3143 16.5869L36.7032 17.2466C35.3366 17.8091 33.8139 17.8643 32.4102 17.4022L28.7117 16.2015C28.4584 16.1219 28.1918 16.0932 27.9274 16.1171C27.6629 16.1409 27.4058 16.2168 27.1708 16.3404L20.9112 19.6646C20.8763 19.6811 20.8467 19.7068 20.8256 19.7391C20.8045 19.7713 20.7928 19.8088 20.7917 19.8473C20.7888 19.8821 20.7956 19.9171 20.8113 19.9483C20.827 19.9795 20.851 20.0058 20.8806 20.0244C22.3389 20.9563 24.8423 21.6396 28.4263 19.5806C28.5482 19.5106 28.6885 19.4792 28.8286 19.4906C28.9687 19.502 29.102 19.5557 29.211 19.6445L40.5024 28.8457C40.9452 29.2029 41.2672 29.6879 41.4247 30.2346C41.5494 30.6649 41.5703 31.1186 41.4858 31.5586C41.4013 31.9986 41.2138 32.4123 40.9385 32.7658C40.6763 33.1052 40.3397 33.3798 39.9545 33.5685C39.5693 33.7572 39.146 33.8548 38.7171 33.8539Z"/><path d="M35.8442 37.0725C35.2557 37.0732 34.6816 36.8904 34.2018 36.5496L26.695 31.2233C26.5484 31.1154 26.4499 30.9542 26.421 30.7744C26.392 30.5947 26.4348 30.4107 26.5401 30.2622C26.6455 30.1137 26.805 30.0125 26.9843 29.9804C27.1635 29.9483 27.3482 29.9879 27.4985 30.0907L35.0053 35.4163C35.3203 35.622 35.7025 35.6981 36.0722 35.6286C36.4419 35.5591 36.7705 35.3494 36.9892 35.0433C37.2079 34.7373 37.2999 34.3585 37.246 33.9862C37.192 33.6139 36.9963 33.2769 36.6997 33.0455L29.2179 27.6533C29.08 27.5417 28.99 27.3816 28.9664 27.2058C28.9428 27.03 28.9873 26.8519 29.0909 26.7079C29.1945 26.5639 29.3492 26.465 29.5234 26.4315C29.6976 26.3979 29.878 26.4323 30.0276 26.5276L37.5115 31.9206C37.9986 32.2732 38.3616 32.7711 38.5483 33.3428C38.735 33.9145 38.7359 34.5306 38.5509 35.1029C38.3658 35.6751 38.0043 36.174 37.5182 36.5281C37.032 36.8822 36.4463 37.0733 35.8449 37.0739L35.8442 37.0725Z"/><path d="M32.603 39.8548C32.0441 39.8547 31.4986 39.6833 31.0399 39.3639L24.3129 34.7043C24.1614 34.5994 24.0578 34.4386 24.0249 34.2573C23.9919 34.076 24.0323 33.8891 24.1372 33.7376C24.2421 33.5861 24.4029 33.4825 24.5842 33.4496C24.7654 33.4166 24.9524 33.457 25.1039 33.5619L31.8308 38.2215C31.9785 38.3237 32.1449 38.3958 32.3205 38.4336C32.4961 38.4715 32.6774 38.4744 32.8541 38.4421C33.0308 38.4099 33.1994 38.3432 33.3503 38.2457C33.5012 38.1483 33.6315 38.0221 33.7336 37.8743C33.9368 37.5781 34.0157 37.2139 33.9534 36.8601C33.8911 36.5063 33.6925 36.191 33.4002 35.982L26.7059 31.2335C26.6298 31.1814 26.5648 31.1148 26.5148 31.0373C26.4647 30.9599 26.4305 30.8733 26.4143 30.7825C26.3981 30.6918 26.4001 30.5987 26.4202 30.5087C26.4403 30.4187 26.4781 30.3337 26.5315 30.2585C26.5848 30.1833 26.6526 30.1194 26.7309 30.0707C26.8092 30.022 26.8964 29.9893 26.9874 29.9747C27.0784 29.96 27.1715 29.9636 27.2611 29.9853C27.3507 30.0069 27.4351 30.0462 27.5094 30.1009L34.2037 34.8494C34.7929 35.2705 35.1935 35.9059 35.3193 36.6192C35.4451 37.3324 35.2862 38.0666 34.8766 38.6639C34.6719 38.9624 34.4101 39.2174 34.1063 39.4141C33.8025 39.6108 33.4626 39.7452 33.1065 39.8097C32.9404 39.84 32.7719 39.8551 32.603 39.8548Z"/><path d="M28.6346 42.1384C28.1487 42.136 27.672 42.0062 27.252 41.762L23.518 39.6093C23.3598 39.5165 23.2447 39.365 23.1979 39.1877C23.151 39.0104 23.1762 38.8218 23.2678 38.663C23.3595 38.5042 23.5103 38.3881 23.6873 38.34C23.8643 38.292 24.0531 38.3159 24.2125 38.4065L27.9457 40.5592C28.2613 40.7374 28.6341 40.7851 28.9844 40.6922C29.3347 40.5993 29.6348 40.3732 29.8207 40.062C29.9973 39.7638 30.0534 39.4094 29.9776 39.0712C29.9019 38.733 29.7 38.4364 29.4131 38.2419L24.6423 34.9371C24.5674 34.8852 24.5034 34.819 24.454 34.7423C24.4046 34.6657 24.3708 34.58 24.3545 34.4903C24.3382 34.4006 24.3398 34.3085 24.3591 34.2194C24.3784 34.1302 24.415 34.0458 24.467 33.9708C24.5189 33.8959 24.5851 33.8319 24.6618 33.7825C24.7384 33.7331 24.8241 33.6993 24.9138 33.683C25.0035 33.6668 25.0956 33.6683 25.1847 33.6876C25.2739 33.7069 25.3583 33.7436 25.4333 33.7955L30.2033 37.0996C30.6876 37.4348 31.0521 37.9159 31.2439 38.4728C31.4357 39.0296 31.4446 39.6332 31.2695 40.1955C31.0943 40.7578 30.7442 41.2495 30.2702 41.599C29.7961 41.9484 29.2229 42.1374 28.6339 42.1384H28.6346Z"/><path d="M20.7715 41.7236C20.2033 41.7245 19.6485 41.552 19.181 41.2292C18.7135 40.9064 18.3556 40.4486 18.1551 39.917C17.9547 39.3855 17.9212 38.8054 18.0591 38.2543C18.197 37.7031 18.4998 37.2072 18.927 36.8327L20.7819 35.2078C21.0575 34.9658 21.3781 34.7805 21.7254 34.6624C22.0726 34.5443 22.4397 34.4958 22.8057 34.5196C23.1717 34.5434 23.5295 34.639 23.8585 34.8011C24.1876 34.9631 24.4815 35.1884 24.7235 35.464C24.9654 35.7397 25.1507 36.0603 25.2687 36.4076C25.3867 36.7549 25.4352 37.122 25.4113 37.488C25.3875 37.854 25.2918 38.2118 25.1296 38.5408C24.9675 38.8698 24.7422 39.1637 24.4665 39.4056L22.6117 41.034C22.1026 41.4801 21.4483 41.7253 20.7715 41.7236ZM22.6235 35.9022C22.2829 35.9013 21.9538 36.0248 21.6978 36.2494L19.8423 37.8765C19.7037 37.9981 19.5904 38.1458 19.5089 38.3112C19.4273 38.4766 19.3792 38.6564 19.3672 38.8404C19.3551 39.0244 19.3795 39.209 19.4388 39.3836C19.4981 39.5582 19.5912 39.7194 19.7128 39.858C19.9584 40.138 20.3051 40.3089 20.6767 40.3332C20.8608 40.3452 21.0453 40.3209 21.2199 40.2616C21.3945 40.2023 21.5557 40.1091 21.6943 39.9875L23.5492 38.3591C23.7631 38.1708 23.9147 37.9217 23.9836 37.6452C24.0526 37.3686 24.0357 37.0776 23.9352 36.8108C23.8347 36.5441 23.6554 36.3143 23.421 36.152C23.1867 35.9896 22.9085 35.9025 22.6235 35.9022Z"/><path d="M16.5681 39.8326C16.5062 39.8326 16.4444 39.8326 16.3826 39.827C16.0164 39.8041 15.6583 39.7088 15.3291 39.5467C14.9999 39.3846 14.7061 39.1589 14.4646 38.8826C14.2193 38.6069 14.0309 38.2855 13.9102 37.9368C13.7894 37.588 13.7387 37.2189 13.761 36.8506C13.7832 36.4822 13.878 36.1219 14.0399 35.7903C14.2017 35.4586 14.4275 35.1622 14.7042 34.9181L17.8028 32.198C18.0784 31.956 18.399 31.7707 18.7462 31.6526C19.0935 31.5345 19.4606 31.486 19.8266 31.5098C20.1926 31.5336 20.5504 31.6292 20.8794 31.7913C21.2085 31.9533 21.5024 32.1786 21.7443 32.4542L21.2423 32.9355L21.7638 32.4772C22.0059 32.7528 22.1913 33.0733 22.3094 33.4206C22.4275 33.7679 22.4761 34.135 22.4523 34.501C22.4285 34.8671 22.3328 35.2248 22.1707 35.5539C22.0086 35.8829 21.7833 36.1768 21.5075 36.4188L18.4062 39.1388C17.8988 39.5868 17.2449 39.8336 16.5681 39.8326ZM19.6409 32.8924C19.3008 32.8915 18.972 33.015 18.7166 33.2396L15.6181 35.9597C15.4106 36.147 15.2628 36.3912 15.1931 36.6619C15.1234 36.9325 15.1348 37.2177 15.2259 37.4819C15.317 37.7461 15.4838 37.9777 15.7055 38.1479C15.9272 38.318 16.1941 38.4192 16.4729 38.4389C16.6571 38.4515 16.8419 38.4273 17.0165 38.3677C17.1912 38.308 17.3523 38.2142 17.4903 38.0916L20.5888 35.3715C20.7275 35.2499 20.8408 35.1022 20.9223 34.9367C21.0038 34.7713 21.052 34.5914 21.064 34.4074C21.076 34.2233 21.0516 34.0387 20.9922 33.8641C20.9328 33.6895 20.8397 33.5282 20.718 33.3896L20.6978 33.3667C20.5766 33.2286 20.4293 33.1159 20.2644 33.035C20.0994 32.954 19.9201 32.9065 19.7367 32.8952C19.7041 32.8938 19.6715 32.8931 19.6402 32.8931L19.6409 32.8924Z"/><path d="M13.0633 37.2833C13.0022 37.2833 12.9404 37.2833 12.8779 37.2778C12.5117 37.2548 12.1536 37.1596 11.8244 36.9975C11.4952 36.8354 11.2014 36.6097 10.9599 36.3333L10.8842 36.2431C10.3961 35.6863 10.1491 34.9585 10.1974 34.2196C10.2457 33.4808 10.5854 32.7913 11.1418 32.3029L14.7341 29.1495C15.0097 28.9074 15.3303 28.722 15.6776 28.6039C16.0248 28.4857 16.392 28.4372 16.758 28.461C17.1241 28.4848 17.4818 28.5804 17.8109 28.7425C18.1399 28.9046 18.4338 29.13 18.6757 29.4057L18.7542 29.4953C19.2425 30.052 19.4896 30.7798 19.4413 31.5187C19.393 32.2576 19.0532 32.9471 18.4966 33.4355L14.9043 36.5889C14.3962 37.0377 13.7412 37.2847 13.0633 37.2833ZM16.5723 29.8446C16.2322 29.8437 15.9034 29.9672 15.648 30.1918L12.0557 33.3452C11.7755 33.591 11.6044 33.938 11.5801 34.31C11.5557 34.6819 11.6801 35.0483 11.9259 35.3285L12.0043 35.4181C12.2503 35.6975 12.597 35.8679 12.9685 35.8919C13.34 35.9158 13.7058 35.7914 13.9855 35.5459L17.5778 32.3924C17.7165 32.2708 17.8298 32.1231 17.9113 31.9576C17.9929 31.7922 18.041 31.6123 18.053 31.4283C18.065 31.2442 18.0406 31.0596 17.9812 30.885C17.9219 30.7104 17.8287 30.5491 17.707 30.4105L17.6299 30.3224C17.5086 30.1837 17.3611 30.0704 17.1957 29.9891C17.0304 29.9078 16.8506 29.8601 16.6667 29.8487C16.6341 29.846 16.6035 29.8446 16.5723 29.8446Z"/><path d="M10.0452 34.1925C9.98413 34.1925 9.92163 34.1925 9.85983 34.1862C9.30511 34.1513 8.7732 33.9527 8.33134 33.6155C7.88948 33.2783 7.55749 32.8177 7.37734 32.2919C7.19719 31.7661 7.17696 31.1986 7.31921 30.6613C7.46146 30.124 7.7598 29.6409 8.17653 29.2731L10.4258 27.2989C10.7014 27.0568 11.022 26.8714 11.3692 26.7533C11.7165 26.6351 12.0836 26.5866 12.4497 26.6104C12.8157 26.6342 13.1735 26.7299 13.5025 26.892C13.8316 27.0541 14.1254 27.2794 14.3674 27.5551L14.3917 27.5829C14.6338 27.8585 14.8192 28.1791 14.9373 28.5263C15.0554 28.8736 15.104 29.2407 15.0802 29.6068C15.0564 29.9728 14.9607 30.3306 14.7986 30.6596C14.6365 30.9887 14.4112 31.2826 14.1354 31.5245L11.8862 33.4988C11.378 33.9473 10.7231 34.1941 10.0452 34.1925ZM12.2674 27.9933C11.9273 27.9924 11.5986 28.1159 11.3431 28.3405L9.09387 30.3148C8.95523 30.4364 8.84191 30.5842 8.76038 30.7496C8.67885 30.9151 8.63071 31.0949 8.61872 31.279C8.60672 31.463 8.63111 31.6476 8.69047 31.8223C8.74984 31.9969 8.84302 32.1581 8.96471 32.2967C9.08543 32.4397 9.23333 32.5572 9.39983 32.6426C9.56633 32.728 9.74813 32.7795 9.93468 32.7941C10.1212 32.8087 10.3088 32.7861 10.4866 32.7277C10.6643 32.6692 10.8287 32.5761 10.9702 32.4536L13.2195 30.4794C13.3581 30.3577 13.4715 30.21 13.553 30.0445C13.6345 29.8791 13.6826 29.6992 13.6946 29.5152C13.7066 29.3311 13.6823 29.1465 13.6229 28.9719C13.5635 28.7973 13.4703 28.6361 13.3486 28.4975L13.3243 28.4697C13.203 28.3308 13.0554 28.2174 12.8899 28.1359C12.7245 28.0545 12.5445 28.0067 12.3605 27.9954C12.3264 27.9947 12.2952 27.9933 12.2639 27.9933H12.2674Z"/><path d="M8.78525 30.3558C8.63494 30.3561 8.48865 30.3073 8.36859 30.2169L5.99572 28.4113C5.92313 28.3561 5.86212 28.2872 5.81619 28.2084 5.77026 28.1296 5.74029 28.0425 5.72801 27.9521 5.71572 27.8617 5.72136 27.7698 5.7446 27.6816 5.76783 27.5934 5.80821 27.5107 5.86343 27.4381 5.97495 27.2915 6.14014 27.1952 6.32265 27.1704 6.41303 27.1581 6.50494 27.1637 6.59313 27.187 6.68133 27.2102 6.76408 27.2506 6.83667 27.3058L9.20954 29.1113C9.32643 29.199 9.41269 29.3213 9.45605 29.4608 9.49941 29.6003 9.49765 29.75 9.45104 29.8885 9.40442 30.0269 9.31531 30.1472 9.1964 30.2321 9.07748 30.317 8.93482 30.3622 8.78872 30.3613L8.78525 30.3558ZM40.7578 31.1248C40.6204 31.1248 40.4862 31.0841 40.372 31.0078 40.2579 30.9315 40.1689 30.823 40.1163 30.6961 40.0638 30.5693 40.05 30.4297 40.0768 30.295 40.1036 30.1603 40.1697 30.0366 40.2668 29.9395L44.1632 26.0416C44.2942 25.9151 44.4696 25.8451 44.6517 25.8467 44.8338 25.8483 45.008 25.9213 45.1367 26.0501 45.2655 26.1788 45.3385 26.353 45.3401 26.5351 45.3417 26.7172 45.2717 26.8926 45.1452 27.0235L41.2487 30.92C41.1844 30.9847 41.1079 31.0361 41.0236 31.0713 40.9394 31.1064 40.849 31.1246 40.7578 31.1248Z"/><path d="M46.0715 29.6839C45.9527 29.684 45.8359 29.6537 45.7322 29.5958 45.6285 29.538 45.5414 29.4545 45.4791 29.3533L37.0001 15.5619C36.9105 15.416 36.878 15.2422 36.9088 15.0738 36.9395 14.9054 37.0314 14.7543 37.1668 14.6494L45.5645 8.14541C45.6567 8.07401 45.7654 8.02698 45.8805 8.00864 45.9957 7.9903 46.1136 8.00126 46.2234 8.04048 46.3332 8.07971 46.4313 8.14596 46.5088 8.23311 46.5863 8.32026 46.6405 8.42551 46.6666 8.53915L50.7964 26.5575C50.8306 26.7042 50.8163 26.858 50.7556 26.9957 50.6948 27.1335 50.5909 27.2478 50.4596 27.3214L46.4104 29.5971C46.3067 29.6546 46.19 29.6845 46.0715 29.6839ZM38.5098 15.3647 46.3124 28.0554 49.327 26.361 45.5562 9.90857 38.5098 15.3647ZM5.55828 29.9304C5.43934 29.9303 5.32241 29.8997 5.2187 29.8415L1.16947 27.5693C1.03811 27.4957.934223 27.3814.873475 27.2437.812726 27.1059.798407 26.9521.832676 26.8055L4.96315 8.78915C4.98922 8.67551 5.04349 8.57026 5.12095 8.48311 5.1984 8.39596 5.29656 8.32971 5.40636 8.29048 5.51616 8.25126 5.63406 8.2403 5.74921 8.25864 5.86436 8.27698 5.97303 8.32401 6.06521 8.39541L14.4637 14.8988C14.599 15.0036 14.6909 15.1547 14.7217 15.3231 14.7524 15.4915 14.7199 15.6653 14.6303 15.8112L6.15063 29.6026C6.08806 29.7033 6.00078 29.7862 5.8971 29.8436 5.79342 29.901 5.67677 29.9308 5.55828 29.9304ZM2.30279 26.6124 5.31731 28.3061 13.1199 15.6147 6.07354 10.1586 2.30279 26.6124Z"/></g><defs><clipPath id="clip0_344_11289"><path fill="#fff" d="M0 0H50V50H0z" transform="translate(.814)"/></clipPath></defs></svg>