<svg xmlns="http://www.w3.org/2000/svg" width="26" height="26" fill="none" viewBox="0 0 26 26"><g fill="#fff" clip-path="url(#clip0_984_3364)"><path d="M22.8365 7.58348C22.6493 7.25915 22.3813 6.98887 22.0585 6.79901 21.7357 6.60914 21.3693 6.50618 20.9948 6.50015H7.12817L6.49984 4.05181C6.43635 3.81547 6.29472 3.60759 6.098 3.46202 5.90129 3.31645 5.66108 3.24177 5.4165 3.25015H3.24984C2.96252 3.25015 2.68697 3.36428 2.4838 3.56745 2.28064 3.77061 2.1665 4.04616 2.1665 4.33348 2.1665 4.6208 2.28064 4.89635 2.4838 5.09951 2.68697 5.30268 2.96252 5.41681 3.24984 5.41681H4.59317L7.58317 16.5318C7.64665 16.7682 7.78829 16.976 7.985 17.1216 8.18172 17.2672 8.42193 17.3419 8.6665 17.3335H18.4165C18.6166 17.3329 18.8125 17.2769 18.9827 17.1717 19.1529 17.0665 19.2906 16.9163 19.3807 16.7376L22.934 9.63098C23.088 9.30816 23.1597 8.95224 23.1427 8.59497 23.1257 8.2377 23.0205 7.8902 22.8365 7.58348ZM17.7448 15.1668H9.48984L7.724 8.66681H20.9948L17.7448 15.1668ZM8.125 22.75C9.02246 22.75 9.75 22.0225 9.75 21.125 9.75 20.2275 9.02246 19.5 8.125 19.5 7.22754 19.5 6.5 20.2275 6.5 21.125 6.5 22.0225 7.22754 22.75 8.125 22.75ZM18.9585 22.75C19.856 22.75 20.5835 22.0225 20.5835 21.125 20.5835 20.2275 19.856 19.5 18.9585 19.5 18.061 19.5 17.3335 20.2275 17.3335 21.125 17.3335 22.0225 18.061 22.75 18.9585 22.75Z"/></g><defs><clipPath id="clip0_984_3364"><path fill="#fff" d="M0 0H26V26H0z"/></clipPath></defs></svg>