<svg xmlns="http://www.w3.org/2000/svg" width="24" height="24" fill="none" viewBox="0 0 24 24"><path fill="#FDB827" d="M2.1978 4.96735H6.82784V4.26406C6.82784 3.38494 7.53114 2.68164 8.41026 2.68164H15.5897C16.4689 2.68164 17.1722 3.38494 17.1722 4.26406V4.96735H21.8022C23.0037 4.96735 24 5.96369 24 7.16516V19.1212C24 20.3227 23.0037 21.319 21.8022 21.319H2.1978C0.996337 21.319 0 20.3227 0 19.1212V7.16516C0 5.93439 0.996337 4.96735 2.1978 4.96735Z"/><path fill="#fff" d="M15.326 9.83168C14.4762 8.98187 13.304 8.4837 12.0146 8.4837 10.7252 8.4837 9.55308 9.01117 8.70327 9.86099 7.85345 10.7108 7.32598 11.883 7.32598 13.1723 7.32598 14.4617 7.85345 15.6339 8.70327 16.4837 9.55308 17.3335 10.7252 17.861 12.0146 17.861 13.304 17.861 14.4762 17.3335 15.326 16.4837 16.1758 15.6339 16.7033 14.4617 16.7033 13.1723 16.674 11.8537 16.1465 10.6815 15.326 9.83168ZM12.0146 7.25293C13.6263 7.25293 15.1209 7.89762 16.1758 8.98187 17.2307 10.0368 17.9047 11.5313 17.9047 13.143 17.9047 14.7548 17.26 16.2493 16.1758 17.3042 15.1209 18.3592 13.6263 19.0332 12.0146 19.0332 10.4029 19.0332 8.90839 18.3885 7.85345 17.3042 6.7985 16.2493 6.12451 14.7548 6.12451 13.143 6.12451 11.5313 6.7692 10.0368 7.85345 8.98187 8.90839 7.89762 10.4029 7.25293 12.0146 7.25293ZM20.5711 9.53866C21.2185 9.53866 21.7432 9.01386 21.7432 8.3665 21.7432 7.71913 21.2185 7.19434 20.5711 7.19434 19.9237 7.19434 19.3989 7.71913 19.3989 8.3665 19.3989 9.01386 19.9237 9.53866 20.5711 9.53866Z"/><path fill="#fff" d="M12.0145 16.3668C13.7947 16.3668 15.2379 14.9236 15.2379 13.1434C15.2379 11.3631 13.7947 9.91992 12.0145 9.91992C10.2342 9.91992 8.79102 11.3631 8.79102 13.1434C8.79102 14.9236 10.2342 16.3668 12.0145 16.3668Z"/></svg>