<svg xmlns="http://www.w3.org/2000/svg" width="30" height="28" fill="none" viewBox="0 0 30 28"><g clip-path="url(#clip0_984_3383)"><path fill="#FF6536" d="M3.31309 13.6555C3.31309 13.6555 4.47462 15.2806 6.90907 16.6562C6.90907 16.6562 5.14594 2.46471 16.6339 0C13.6907 10.2879 20.3778 13.1892 22.8155 7.75392C26.8863 12.9301 23.7954 17.4461 23.7954 17.4461C25.4646 17.6752 26.8667 15.9384 26.8667 15.9384C26.8793 16.1523 26.8863 16.3678 26.8863 16.5847C26.8863 22.8892 21.52 28 14.9002 28C8.28042 28 2.91406 22.8892 2.91406 16.5846C2.91406 15.5719 3.05325 14.5903 3.31309 13.6555Z"/><path fill="#FF421D" d="M26.867 15.9384C26.867 15.9384 25.4649 17.6752 23.7957 17.4461C23.7957 17.4461 26.8865 12.9301 22.8157 7.75392C20.3781 13.1892 13.6909 10.2879 16.6342 0C16.0189 0.132016 15.4419 0.297883 14.9004 0.493172V28C21.5202 28 26.8865 22.8892 26.8865 16.5846C26.8865 16.3677 26.8795 16.1523 26.867 15.9384Z"/><path fill="#FBBF00" d="M9.64355 22.9937C9.64355 25.7586 11.997 28 14.9002 28C17.8033 28 20.1568 25.7586 20.1568 22.9937C20.1568 21.5138 19.4826 20.1839 18.4107 19.2674C16.3783 21.8971 13.4821 17.9081 15.7392 14.9951C15.7392 14.9951 9.64355 15.7226 9.64355 22.9937Z"/><path fill="#FFA900" d="M20.157 22.9937C20.157 21.5138 19.4828 20.1839 18.4109 19.2674C16.3785 21.8971 13.4823 17.9081 15.7394 14.9951C15.7394 14.9951 15.4082 15.0348 14.9004 15.1874V28C17.8035 28 20.157 25.7586 20.157 22.9937Z"/></g><defs><clipPath id="clip0_984_3383"><path fill="#fff" d="M0 0H29.4V28H0z" transform="translate(.2)"/></clipPath></defs></svg>