<svg xmlns="http://www.w3.org/2000/svg" width="26" height="26" fill="none" viewBox="0 0 26 26"><g fill="#fff" clip-path="url(#clip0_984_3356)"><path d="M12.9998 11.9167C13.8569 11.9167 14.6947 11.6625 15.4073 11.1864 16.1199 10.7102 16.6753 10.0334 17.0033 9.24163 17.3313 8.44982 17.4171 7.57853 17.2499 6.73794 17.0827 5.89736 16.67 5.12523 16.064 4.51921 15.4579 3.91318 14.6858 3.50047 13.8452 3.33327 13.0046 3.16606 12.1334 3.25188 11.3415 3.57986 10.5497 3.90784 9.87296 4.46325 9.3968 5.17586 8.92065 5.88848 8.6665 6.72628 8.6665 7.58334 8.6665 8.73261 9.12305 9.83481 9.93571 10.6475 10.7484 11.4601 11.8506 11.9167 12.9998 11.9167ZM12.9998 5.41667C13.4284 5.41667 13.8473 5.54374 14.2036 5.78182 14.5599 6.01989 14.8376 6.35828 15.0016 6.75419 15.1656 7.15009 15.2085 7.58574 15.1249 8.00603 15.0413 8.42632 14.8349 8.81239 14.5319 9.1154 14.2289 9.41841 13.8428 9.62477 13.4225 9.70837 13.0022 9.79197 12.5666 9.74906 12.1707 9.58507 11.7748 9.42108 11.4364 9.14338 11.1983 8.78707 10.9602 8.43076 10.8332 8.01186 10.8332 7.58334 10.8332 7.0087 11.0614 6.4576 11.4678 6.05127 11.8741 5.64494 12.4252 5.41667 12.9998 5.41667ZM12.9998 14.0835C10.9886 14.0835 9.05976 14.8825 7.63761 16.3046 6.21546 17.7268 5.4165 19.6556 5.4165 21.6668 5.4165 21.9541 5.53064 22.2297 5.73381 22.4329 5.93697 22.636 6.21252 22.7502 6.49984 22.7502 6.78716 22.7502 7.06271 22.636 7.26587 22.4329 7.46903 22.2297 7.58317 21.9541 7.58317 21.6668 7.58317 20.2302 8.15385 18.8525 9.16968 17.8367 10.1855 16.8208 11.5632 16.2502 12.9998 16.2502 14.4364 16.2502 15.8142 16.8208 16.83 17.8367 17.8458 18.8525 18.4165 20.2302 18.4165 21.6668 18.4165 21.9541 18.5306 22.2297 18.7338 22.4329 18.937 22.636 19.2125 22.7502 19.4998 22.7502 19.7872 22.7502 20.0627 22.636 20.2659 22.4329 20.469 22.2297 20.5832 21.9541 20.5832 21.6668 20.5832 19.6556 19.7842 17.7268 18.3621 16.3046 16.9399 14.8825 15.0111 14.0835 12.9998 14.0835Z"/></g><defs><clipPath id="clip0_984_3356"><path fill="#fff" d="M0 0H26V26H0z"/></clipPath></defs></svg>