<svg xmlns="http://www.w3.org/2000/svg" width="25" height="32" fill="none" viewBox="0 0 25 32"><path fill="url(#paint0_linear_254_4545)" d="M8.33635 9.81059C7.92955 9.40378 7.92956 8.74424 8.33635 8.33745C8.74314 7.93065 9.40269 7.93065 9.80948 8.33745L12.5049 11.0329L15.1976 8.34018C15.6045 7.93339 16.264 7.93339 16.6708 8.34018C17.0776 8.74698 17.0776 9.40652 16.6708 9.81332L13.9781 12.506L16.6697 15.1976C17.0765 15.6045 17.0765 16.264 16.6697 16.6707C16.2628 17.0776 15.6034 17.0776 15.1965 16.6707L12.5049 13.9792L9.8125 16.6717C9.40571 17.0784 8.74616 17.0784 8.33937 16.6717C7.93258 16.2648 7.93258 15.6053 8.33937 15.1984L11.0318 12.506L8.33635 9.81059Z"/><path fill="url(#paint1_linear_254_4545)" fill-rule="evenodd" d="M23.9577 12.5C23.9577 18.8282 18.8276 23.9583 12.4993 23.9583C6.17109 23.9583 1.04102 18.8282 1.04102 12.5C1.04102 6.17173 6.17109 1.04166 12.4993 1.04166C18.8276 1.04166 23.9577 6.17173 23.9577 12.5ZM3.13146 12.5C3.13146 17.6737 7.32561 21.8679 12.4993 21.8679C17.6731 21.8679 21.8673 17.6737 21.8673 12.5C21.8673 7.32625 17.6731 3.1321 12.4993 3.1321C7.32561 3.1321 3.13146 7.32625 3.13146 12.5Z" clip-rule="evenodd"/><defs><linearGradient id="paint0_linear_254_4545" x1="8.03125" x2="902.498" y1="8.03235" y2="8.03235" gradientUnits="userSpaceOnUse"><stop stop-color="#C0A473"/><stop offset="0.5" stop-color="#FEDDA5"/><stop offset="1" stop-color="#C0A473"/></linearGradient><linearGradient id="paint1_linear_254_4545" x1="1.04102" x2="2292.71" y1="1.04166" y2="1.04166" gradientUnits="userSpaceOnUse"><stop stop-color="#C0A473"/><stop offset="0.5" stop-color="#FEDDA5"/><stop offset="1" stop-color="#C0A473"/></linearGradient></defs></svg>