<svg xmlns="http://www.w3.org/2000/svg" width="8" height="5" fill="none" viewBox="0 0 8 5"><path fill="#CECECE" d="M7.87213 0.39493L7.61008 0.131058C7.52761 0.0486509 7.41788 0.00325213 7.30061 0.00325213C7.18341 0.00325213 7.07355 0.0486509 6.99108 0.131058L4.00179 3.12048L1.00905 0.127741C0.926707 0.0453337 0.816852 0 0.699648 0C0.582444 0 0.472524 0.0453337 0.390117 0.127741L0.128001 0.389987C-0.042667 0.560525 -0.042667 0.838316 0.128001 1.00885L3.69122 4.58488C3.77356 4.66722 3.88328 4.72524 4.00153 4.72524H4.00289C4.12016 4.72524 4.22989 4.66716 4.31223 4.58488L7.87213 1.01854C7.9546 0.936203 7.99987 0.823161 8 0.705957C8 0.588688 7.9546 0.477207 7.87213 0.39493Z"/></svg>