<svg xmlns="http://www.w3.org/2000/svg" width="18" height="18" fill="none" viewBox="0 0 18 18"><path fill="#fff" d="M14.13 3.375H3.87C3.29065 3.37649 2.73553 3.60768 2.3264 4.01787C1.91726 4.42806 1.6875 4.98377 1.6875 5.56313V11.8744C1.6875 12.4537 1.91726 13.0094 2.3264 13.4196C2.73553 13.8298 3.29065 14.061 3.87 14.0625H14.13C14.7094 14.061 15.2645 13.8298 15.6736 13.4196C16.0827 13.0094 16.3125 12.4537 16.3125 11.8744V5.56313C16.3125 4.98377 16.0827 4.42806 15.6736 4.01787C15.2645 3.60768 14.7094 3.37649 14.13 3.375ZM14.13 4.5H14.22L9 8.3025L3.78 4.5H3.87H14.13ZM15.1875 11.8744C15.1875 12.1554 15.0763 12.4249 14.8781 12.6241C14.6799 12.8233 14.411 12.936 14.13 12.9375H3.87C3.58902 12.936 3.32005 12.8233 3.12189 12.6241C2.92373 12.4249 2.8125 12.1554 2.8125 11.8744V5.56313C2.81379 5.45024 2.83277 5.33826 2.86875 5.23125L8.67375 9.45562C8.77009 9.52602 8.88631 9.56396 9.00563 9.56396C9.12494 9.56396 9.24116 9.52602 9.3375 9.45562L15.1369 5.23125C15.1729 5.33826 15.1918 5.45024 15.1931 5.56313L15.1875 11.8744Z"/></svg>