<svg xmlns="http://www.w3.org/2000/svg" width="18" height="18" fill="none" viewBox="0 0 18 18"><g clip-path="url(#clip0_586_781)"><path fill="#fff" d="M6.6092 3.24731C6.6092 3.24731 6.42357 2.8125 6.14007 2.8125C5.86107 2.8125 5.71595 2.94131 5.6192 3.03019C5.52245 3.11906 3.90357 4.44937 3.90357 4.44937C3.90357 4.44937 3.43276 4.86056 3.46876 5.634C3.49914 6.40744 3.65045 7.50825 4.4357 9.04162C5.21532 10.5716 7.16664 12.9094 8.39964 13.7312C8.39964 13.7312 9.54207 14.6076 10.6052 14.9636C10.914 15.0609 11.5316 15.1875 11.6756 15.1875C11.8219 15.1875 12.0801 15.1875 12.3765 14.9709C12.678 14.7521 14.3694 13.392 14.3694 13.392C14.3694 13.392 14.7834 13.0179 14.3025 12.5831C13.8193 12.1483 12.3523 11.1814 12.0384 10.9271C11.724 10.6689 11.2763 10.7826 11.0828 10.9575C10.8898 11.1336 10.545 11.4232 10.5028 11.4598C10.4398 11.5082 10.2671 11.6651 10.0736 11.5869C9.82726 11.4896 8.81701 10.9412 7.88045 9.65981C6.94951 8.37956 6.84714 7.96106 6.7082 7.50881C6.68463 7.44196 6.68431 7.36911 6.70728 7.30204C6.73024 7.23498 6.77516 7.17762 6.83476 7.13925C6.97426 7.0425 7.48782 6.61444 7.48782 6.61444C7.48782 6.61444 7.82026 6.2865 7.68132 5.90006C7.54239 5.51363 6.6092 3.24731 6.6092 3.24731Z"/></g><defs><clipPath id="clip0_586_781"><path fill="#fff" d="M0 0H18V18H0z"/></clipPath></defs></svg>