<svg xmlns="http://www.w3.org/2000/svg" width="20" height="20" fill="none" viewBox="0 0 20 20"><g fill="#000" clip-path="url(#clip0_260_6509)"><path d="M15.5456 9.41968C14.4955 9.41968 13.6465 10.2728 13.6465 11.3188C13.6465 11.569 13.8516 11.7741 14.1018 11.7741C14.352 11.7741 14.5571 11.569 14.5571 11.3188C14.5571 10.7732 15.0042 10.3262 15.5497 10.3262C15.7999 10.3262 16.005 10.1211 16.005 9.87087C16.0009 9.62066 15.7958 9.41968 15.5456 9.41968Z"/><path d="M18.6423 8.11123C18.5315 8.00458 18.4126 7.90204 18.2895 7.8036L16.6078 6.3762C15.9598 5.91681 15.1886 5.62559 14.3519 5.56817L14.4421 5.6584L13.4208 4.63297H13.4126C13.1296 4.37457 12.7481 4.2146 12.3339 4.2146C11.6202 4.2146 11.0172 4.67809 10.8121 5.32206C10.607 5.19081 10.3691 5.11287 10.1107 5.09647C10.0697 5.09237 10.0246 5.09237 9.98357 5.09237C9.69235 5.09237 9.42164 5.1785 9.19194 5.32206C8.98275 4.6822 8.3798 4.2187 7.6702 4.2187C7.25593 4.2187 6.87857 4.37457 6.59145 4.63708H6.58325L5.56192 5.6625L5.65216 5.57227C4.81541 5.62969 4.04019 5.92501 3.39622 6.3803L1.71452 7.8077C1.59146 7.90204 1.47252 8.00458 1.36177 8.11533C0.520918 8.92747 0 10.0636 0 11.3229C0 13.7839 2.00164 15.7855 4.46266 15.7855C6.73501 15.7855 8.6177 14.0751 8.88841 11.8725C9.21655 12.0612 9.59801 12.1678 9.99998 12.1678C10.406 12.1678 10.7834 12.0612 11.1115 11.8725C11.3864 14.071 13.2649 15.7814 15.5373 15.7814C17.9983 15.7814 20 13.7798 20 11.3188C20.0041 10.0595 19.4831 8.92337 18.6423 8.11123ZM4.46266 14.3663C2.78096 14.3663 1.41919 13.0046 1.41919 11.3229C1.41919 9.64117 2.78096 8.2794 4.46266 8.2794C6.14437 8.2794 7.50614 9.64117 7.50614 11.3229C7.51024 13.0005 6.14437 14.3663 4.46266 14.3663ZM10.0041 10.9045C9.45855 10.9045 9.01557 10.4615 9.01557 9.91598C9.01557 9.37045 9.45855 8.92747 10.0041 8.92747C10.5496 8.92747 10.9926 9.37045 10.9926 9.91598C10.9926 10.4615 10.5496 10.9045 10.0041 10.9045ZM15.5455 14.3663C13.8638 14.3663 12.502 13.0046 12.502 11.3229C12.502 9.64117 13.8638 8.2794 15.5455 8.2794C17.2272 8.2794 18.589 9.64117 18.589 11.3229C18.589 13.0005 17.2272 14.3663 15.5455 14.3663Z"/><path d="M4.46355 9.41968C3.41351 9.41968 2.56445 10.2728 2.56445 11.3188C2.56445 11.569 2.76954 11.7741 3.01974 11.7741C3.26995 11.7741 3.47503 11.569 3.47503 11.3188C3.47503 10.7732 3.92212 10.3262 4.46765 10.3262C4.71785 10.3262 4.92294 10.1211 4.92294 9.87087C4.91884 9.62066 4.71375 9.41968 4.46355 9.41968Z"/></g><defs><clipPath id="clip0_260_6509"><path fill="#fff" d="M0 0H20V20H0z"/></clipPath></defs></svg>