<svg xmlns="http://www.w3.org/2000/svg" width="60" height="50" fill="none" viewBox="0 0 60 50"><path stroke="#fff" stroke-miterlimit="10" stroke-width="1.68421" d="M12.3457 21.3954V15.7786M17.0952 44.2165V47.4502C17.0952 47.8343 16.9426 48.2027 16.6709 48.4744 16.3993 48.746 16.0309 48.8986 15.6468 48.8986H13.8025C13.6116 48.8997 13.4224 48.8631 13.2457 48.7908 13.069 48.7185 12.9083 48.612 12.7729 48.4774 12.6375 48.3428 12.5301 48.1827 12.4568 48.0064 12.3834 47.8301 12.3457 47.6411 12.3457 47.4502V44.006M51.5698 44.2165V47.4502C51.5698 47.8343 51.4172 48.2027 51.1456 48.4744 50.8739 48.746 50.5055 48.8986 50.1214 48.8986H48.2687C47.8846 48.8986 47.5162 48.746 47.2445 48.4744 46.9729 48.2027 46.8203 47.8343 46.8203 47.4502V44.006M17.0938 15.7786V22.2207M8.17578 14.7091V12.1828C8.17617 12.0333 8.20788 11.8856 8.26886 11.7492 8.32984 11.6127 8.41873 11.4906 8.52981 11.3906 8.64089 11.2907 8.77169 11.2151 8.91377 11.1688 9.05586 11.1224 9.20607 11.1064 9.35473 11.1217L20.3021 12.3007C20.5641 12.3278 20.8067 12.4515 20.9826 12.6476 21.1584 12.8437 21.2551 13.0983 21.2537 13.3617V14.6754C21.2593 14.8168 21.2366 14.958 21.1868 15.0905 21.1371 15.223 21.0614 15.3442 20.964 15.447 20.8667 15.5498 20.7499 15.6321 20.6203 15.689 20.4907 15.746 20.351 15.7764 20.2095 15.7785H9.2621C9.12024 15.7808 8.97936 15.7548 8.84765 15.702 8.71595 15.6493 8.59605 15.5709 8.49495 15.4713 8.39385 15.3718 8.31357 15.2531 8.25877 15.1223 8.20397 14.9914 8.17576 14.8509 8.17578 14.7091ZM12.344 38.6586C15.5251 38.6586 18.104 36.0797 18.104 32.8986 18.104 29.7174 15.5251 27.1385 12.344 27.1385 9.16282 27.1385 6.58398 29.7174 6.58398 32.8986 6.58398 36.0797 9.16282 38.6586 12.344 38.6586ZM50.0703 30.9028C50.5948 30.8783 51.1187 30.9605 51.6105 31.1444 52.1023 31.3282 52.5517 31.6099 52.9315 31.9724 53.3113 32.3349 53.6136 32.7707 53.8201 33.2534 54.0267 33.7361 54.1332 34.2556 54.1332 34.7807 54.1332 35.3057 54.0267 35.8253 53.8201 36.3079 53.6136 36.7906 53.3113 37.2264 52.9315 37.5889 52.5517 37.9514 52.1023 38.2331 51.6105 38.417 51.1187 38.6008 50.5948 38.683 50.0703 38.6586"/><path stroke="#fff" stroke-miterlimit="10" stroke-width="1.68421" d="M49.8271 25.7491L13.0692 21.4207C12.8334 21.4207 12.5892 21.4207 12.345 21.4207C9.29413 21.4207 6.36825 22.6326 4.21099 24.7899C2.05373 26.9471 0.841797 29.873 0.841797 32.9238C0.841797 35.9746 2.05373 38.9005 4.21099 41.0578C6.36825 43.215 9.29413 44.427 12.345 44.427H49.8271C51.0538 44.427 52.2685 44.1851 53.4016 43.7151C54.5347 43.2452 55.5641 42.5564 56.4307 41.6882C57.2973 40.82 57.9843 39.7894 58.4522 38.6554C58.9201 37.5214 59.1598 36.3063 59.1576 35.0796C59.1576 29.9259 55.1323 26.3049 49.8271 25.7491Z"/><path stroke="#fff" stroke-miterlimit="10" stroke-width="1.68421" d="M12.3457 32.8986 18.1057 38.6586H23.2257M39.3262 24.5533 43.9241 3.20593C43.9548 3.04771 44.0457 2.90757 44.1776 2.81492 44.3095 2.72228 44.4722 2.68435 44.6314 2.70909L50.1893 3.63541 50.4588 2.05225C50.4903 1.86319 50.5591 1.68226 50.6611 1.51996 50.7631 1.35767 50.8962 1.21722 51.0529 1.10678 51.2096.996333 51.3866.918081 51.5737.876558 51.7608.835034 51.9543.831066 52.143.864882 52.3321.896422 52.513.965175 52.6753 1.06716 52.8376 1.16914 52.978 1.30232 53.0885 1.45898 53.1989 1.61564 53.2772 1.79266 53.3187 1.97979 53.3602 2.16691 53.3642 2.36042 53.3304 2.54909L52.5977 6.49014C52.5709 6.65538 52.4795 6.80319 52.3437 6.90109 52.2079 6.99899 52.0388 7.03897 51.8735 7.01225L46.4672 6.17015 42.4756 25.3365"/></svg>