<svg xmlns="http://www.w3.org/2000/svg" width="60" height="60" fill="none" viewBox="0 0 60 60"><path fill="#fff" d="M26.1007 0.112291C25.8601 0.144377 25.6997 0.240633 25.7478 0.320847C25.7959 0.385017 25.6836 0.417103 25.5232 0.368975C25.1221 0.272718 23.5499 0.786087 23.6622 0.978601C23.7264 1.05882 23.6462 1.07486 23.5178 1.02673C23.197 0.898386 22.2665 1.41176 22.3948 1.63635C22.459 1.74865 22.443 1.7647 22.3146 1.70053C22.074 1.5401 20.8066 2.35828 20.935 2.56684C20.9831 2.64705 20.935 2.67914 20.8227 2.64705C20.5178 2.53475 19.0098 4.0909 19.1702 4.34759C19.2505 4.45988 19.2344 4.50801 19.1382 4.44384C18.9136 4.29946 18.5446 4.74866 18.689 4.97325C18.7531 5.06951 18.705 5.11764 18.5767 5.10159C18.4644 5.06951 18.3841 5.18181 18.3841 5.32619C18.4002 5.48662 18.3521 5.56684 18.2719 5.53475C18.0793 5.40641 17.2772 7.04277 17.3895 7.33154C17.4376 7.45988 17.4055 7.50801 17.3253 7.45988C17.1328 7.34758 16.6194 9.06416 16.7317 9.48127C16.7799 9.6417 16.7638 9.754 16.6836 9.70587C16.459 9.57753 16.3467 11.9198 16.5071 13.0749C16.6034 13.6845 16.6836 14.262 16.6836 14.3262C16.6836 14.4064 16.7638 14.4064 16.8761 14.3422C16.9884 14.2781 17.0045 14.2941 16.9403 14.4225C16.7638 14.6952 16.9884 15.5936 17.197 15.4652C17.3093 15.4011 17.3253 15.4331 17.2612 15.5454C17.1168 15.7861 17.3093 16.3957 17.5018 16.2834C17.582 16.2353 17.5981 16.3155 17.5339 16.4599C17.4697 16.6203 17.5018 16.7005 17.5981 16.6364C17.6783 16.5882 17.7424 16.7005 17.7424 16.893C17.7264 17.1016 17.8066 17.2299 17.935 17.1979C18.0633 17.1818 18.1114 17.2299 18.0473 17.3262C17.8547 17.631 19.3467 19.6845 19.7799 19.7166C19.844 19.7326 19.8922 19.7807 19.8761 19.8289C19.812 20.2139 22.1542 21.9305 22.4751 21.7219C22.6034 21.6417 22.6194 21.6738 22.5392 21.8182C22.443 21.9786 22.4751 22.0107 22.6836 21.9305C22.8601 21.8503 22.9243 21.8823 22.844 22.0107C22.7638 22.139 22.812 22.1551 23.0045 22.0909C23.1489 22.0267 23.2451 22.0428 23.197 22.123C23.0847 22.2995 24.1114 22.7166 25.4109 23.0214C26.6301 23.3102 28.2986 23.3422 28.1382 23.0695C28.0579 22.9572 28.09 22.9412 28.2344 23.0214C28.4751 23.1658 30.9938 21.9946 30.8654 21.7861C30.8173 21.7219 30.9136 21.7059 31.0579 21.77C31.2665 21.8503 31.2986 21.8182 31.2023 21.6577C31.1061 21.5134 31.1382 21.4813 31.2825 21.5775C31.5392 21.738 34.0259 20.5348 33.8975 20.3262C33.8333 20.2299 33.8815 20.2139 34.0098 20.2941C34.2344 20.4385 37.09 19.1069 36.9777 18.9144C36.9296 18.8503 37.0259 18.8182 37.1863 18.8342C37.3467 18.8342 37.443 18.738 37.443 18.5775C37.4269 18.4171 37.4751 18.3369 37.5553 18.385C37.7478 18.4973 38.3574 17.4545 38.2612 17.1979C38.213 17.0695 38.2612 17.0374 38.3735 17.1016C38.5018 17.1818 38.5178 17.1337 38.4537 16.9412C38.3735 16.7647 38.4055 16.7005 38.5339 16.7807C38.6622 16.861 38.6783 16.8128 38.6141 16.6203C38.5499 16.4759 38.566 16.3797 38.6462 16.4438C38.8547 16.5561 39.3681 15.1604 39.2398 14.8396C39.1756 14.6791 39.2077 14.615 39.336 14.6952C39.4483 14.7754 39.4804 14.6791 39.4323 14.3904C39.3842 14.1337 39.4162 14.0053 39.5125 14.0695C39.6088 14.1176 39.6408 13.9412 39.5927 13.5882C39.5606 13.2674 39.5927 13.0588 39.6569 13.0909C39.7211 13.139 39.7852 12.4652 39.7852 11.5989C39.7852 10.492 39.7371 10.0909 39.6248 10.2674C39.4965 10.4438 39.4804 10.3957 39.5606 10.0749C39.6729 9.56149 39.336 7.97325 39.1435 8.10159C39.0633 8.14972 39.0473 8.02138 39.1114 7.82887C39.1596 7.60427 39.1275 7.52405 39.0152 7.60427C38.8868 7.66844 38.8547 7.63635 38.9189 7.49197C39.0793 7.05882 37.6676 4.55614 37.3628 4.73261C37.2825 4.79678 37.2665 4.73261 37.2986 4.62031C37.3467 4.49197 37.2023 4.21924 36.9777 4.01069C36.7531 3.80213 36.5767 3.68983 36.5767 3.77004C36.5767 3.85026 36.4002 3.73796 36.1756 3.5294C35.967 3.33689 35.8227 3.11229 35.8547 3.03208C36.0793 2.69518 32.7906 0.689831 32.3093 0.866301C32.1489 0.930471 32.1168 0.898386 32.1809 0.770044C32.2612 0.657745 32.1809 0.62566 31.9563 0.673788C31.7638 0.737959 31.6355 0.721916 31.6836 0.641703C31.812 0.449188 30.2237 0.112291 29.7104 0.22459C29.3895 0.304804 29.3414 0.288761 29.5178 0.160419C29.7585 -9.53674e-06 27.1114 -0.032095 26.1007 0.112291ZM29.0366 2.10159C28.8601 2.22994 28.9563 2.24598 29.4697 2.2139C29.8387 2.18181 30.0954 2.22994 30.0473 2.31015C29.9991 2.39037 30.1435 2.42245 30.3681 2.37432C30.6088 2.32619 30.7531 2.34224 30.721 2.40641C30.6088 2.58288 31.4109 2.75935 31.6355 2.63101C31.7317 2.56684 31.7638 2.58288 31.7157 2.66309C31.6676 2.74331 32.0366 3.03208 32.5339 3.28876C33.0312 3.56149 33.9617 4.25133 34.5874 4.84491C35.213 5.43849 35.7745 5.88769 35.8387 5.82352C35.9029 5.75935 35.9029 5.82352 35.8547 5.96791C35.7906 6.11229 35.8227 6.27272 35.9189 6.33689C36.2237 6.51336 36.1114 6.68983 35.4537 6.9786C35.1007 7.13903 34.8601 7.33154 34.9243 7.4278C34.9884 7.52405 34.9403 7.5401 34.812 7.45988C34.5713 7.3155 32.0526 8.48662 32.1809 8.69518C32.2291 8.75935 32.1328 8.77539 31.9884 8.71122C31.7799 8.63101 31.7478 8.66309 31.844 8.82352C31.9403 8.96791 31.9082 8.99999 31.7638 8.90373C31.5232 8.75935 29.0045 9.93047 29.1328 10.139C29.1809 10.2032 29.0847 10.2192 28.9403 10.1551C28.7317 10.0749 28.6997 10.1069 28.7959 10.2674C28.8922 10.4118 28.8601 10.4438 28.7157 10.3476C28.459 10.1872 25.9724 11.3904 26.1007 11.5989C26.1649 11.6952 26.1168 11.7112 25.9884 11.631C25.7478 11.4866 23.2291 12.6577 23.3574 12.8663C23.4055 12.9305 23.3093 12.9465 23.1649 12.8823C22.9563 12.8021 22.9243 12.8342 23.0205 12.9946C23.1168 13.139 23.0847 13.1711 22.9403 13.0749C22.6997 12.9305 20.5018 13.9412 20.6301 14.1497C20.6783 14.2139 20.582 14.2299 20.4376 14.1658C20.2772 14.1176 20.197 14.1337 20.2451 14.2139C20.3093 14.2941 20.1809 14.3743 20.0045 14.3904C19.812 14.4064 19.4751 14.4545 19.2505 14.4866C18.9136 14.5508 18.8494 14.5027 18.8013 14.1337C18.705 13.139 18.6729 9.32085 18.7692 9.38502C18.8333 9.4171 18.9938 9.0802 19.1382 8.61496C19.2825 8.14972 19.6515 7.34758 19.9724 6.83422C20.2772 6.32085 20.4858 5.82352 20.4216 5.71122C20.3735 5.61497 20.3735 5.58288 20.4537 5.64705C20.582 5.77539 22.7317 3.8663 22.6676 3.67379C22.6515 3.60962 22.7478 3.57753 22.9082 3.59357C23.0526 3.59357 23.1649 3.51336 23.1328 3.40106C23.1168 3.27272 23.1649 3.22459 23.2451 3.27272C23.4697 3.4171 24.2237 3.03208 24.1114 2.83956C24.0633 2.74331 24.0954 2.72726 24.2077 2.79144C24.4644 2.95186 25.0579 2.74331 24.9296 2.53475C24.8654 2.42245 24.8975 2.40641 25.0098 2.47058C25.2344 2.61496 26.1809 2.42245 26.0686 2.26202C26.0366 2.18181 26.1649 2.16577 26.3574 2.19785C26.5499 2.22994 27.2237 2.19785 27.8333 2.11764C28.459 2.03742 29.0366 1.95721 29.1168 1.94117C29.213 1.94117 29.1649 2.00534 29.0366 2.10159ZM37.2986 8.66309C37.2344 8.75935 37.2825 9.1925 37.3788 9.6417C37.5874 10.4759 37.6997 13.6524 37.5232 13.5401C37.459 13.508 37.3628 13.7326 37.3146 14.0374C37.2505 14.3422 36.9296 15.1444 36.5767 15.8342C35.967 17.0695 35.9189 17.1016 34.828 17.6471C34.2023 17.9358 33.7371 18.2406 33.7852 18.3208C33.8333 18.385 33.7371 18.4011 33.5927 18.3369C33.3842 18.2567 33.3521 18.2888 33.4483 18.4492C33.5446 18.5936 33.5125 18.6257 33.3681 18.5294C33.1275 18.385 30.9296 19.3957 31.0579 19.6043C31.1061 19.6684 31.0098 19.6845 30.8654 19.6203C30.6729 19.5561 30.6248 19.5722 30.705 19.7005C30.7852 19.8289 30.721 19.861 30.5446 19.7807C30.336 19.7005 30.3039 19.7326 30.4002 19.893C30.4965 20.0374 30.4644 20.0695 30.32 19.9733C30.0793 19.8289 27.8815 20.8396 28.0098 21.0481C28.0579 21.1123 27.9617 21.1283 27.8173 21.0642C27.6408 21 27.5767 21.016 27.6408 21.1444C27.721 21.2567 27.5927 21.2727 27.1756 21.1444C26.8387 21.0642 26.4216 21.016 26.213 21.0642C25.9884 21.0962 25.8761 21.0642 25.9403 20.9679C26.0045 20.8716 25.8761 20.8396 25.6034 20.8877C25.3628 20.9358 25.2184 20.9358 25.2665 20.8877C25.3948 20.7593 23.1007 19.7166 22.9243 19.8289C22.844 19.877 22.7959 19.861 22.812 19.7807C22.828 19.7166 22.2665 19.0749 21.5606 18.369C20.3253 17.1497 19.7478 16.2513 20.3414 16.4759C20.5178 16.5561 20.5499 16.5241 20.4537 16.3636C20.3574 16.2192 20.3895 16.1872 20.5339 16.2834C20.7745 16.4278 23.2932 15.2567 23.1649 15.0481C23.1168 14.9839 23.213 14.9679 23.3574 15.0321C23.566 15.1123 23.5981 15.0802 23.5018 14.9198C23.4055 14.7754 23.4376 14.7433 23.582 14.8396C23.8227 14.9839 26.3414 13.8128 26.213 13.6043C26.1649 13.5401 26.2612 13.5241 26.4055 13.5882C26.6141 13.6684 26.6462 13.6364 26.5499 13.4759C26.4537 13.3315 26.4858 13.2995 26.6301 13.3957C26.8708 13.5401 29.0686 12.5294 28.9403 12.3208C28.8922 12.2567 28.9884 12.2406 29.1328 12.3048C29.3253 12.369 29.3735 12.3529 29.2932 12.2246C29.213 12.0962 29.2772 12.0642 29.4537 12.1444C29.6622 12.2246 29.6943 12.1925 29.5981 12.0321C29.5018 11.8877 29.5339 11.8556 29.6783 11.9519C29.9189 12.0962 32.1168 11.0856 31.9884 10.877C31.9403 10.8128 32.0366 10.7968 32.1809 10.861C32.3895 10.9412 32.4216 10.9091 32.3253 10.7487C32.2291 10.6043 32.2612 10.5722 32.4055 10.6684C32.6462 10.8128 35.1649 9.6417 35.0366 9.43315C34.9884 9.36897 35.0847 9.35293 35.2291 9.4171C35.4216 9.48127 35.4697 9.46523 35.3895 9.33689C35.3253 9.20855 35.3574 9.17646 35.5018 9.24063C35.6301 9.28876 36.0954 9.14438 36.5285 8.91978C37.4269 8.45454 37.4269 8.45454 37.2986 8.66309ZM16.6355 11.9037C16.6034 12.1123 16.5713 11.9839 16.5713 11.631C16.5553 11.2781 16.5874 11.1176 16.6355 11.262C16.6676 11.4225 16.6676 11.7112 16.6355 11.9037ZM37.812 12.5454C37.7638 12.6738 37.7157 12.6257 37.7157 12.4492C37.6997 12.2727 37.7478 12.1765 37.7959 12.2406C37.844 12.2888 37.8601 12.4331 37.812 12.5454Z"/><path fill="#fff" d="M36.1606 3.35296C36.4815 3.7059 36.5777 3.75403 36.5777 3.56152 36.5777 3.49735 36.4173 3.35296 36.2248 3.22462 35.8558 3.00002 35.8558 3.00002 36.1606 3.35296ZM37.2504 20.1016C37.0578 20.2139 36.9455 20.3583 37.0097 20.4385 37.0739 20.5027 36.9937 20.5027 36.8332 20.4385 36.5926 20.3423 36.5605 20.3744 36.6568 20.5348 36.753 20.6792 36.7209 20.7113 36.5766 20.615 36.3359 20.4706 34.1381 21.4813 34.2664 21.6899 34.3145 21.754 34.2183 21.7701 34.0739 21.7059 33.8814 21.6418 33.8332 21.6578 33.9135 21.7861 33.9937 21.9145 33.9295 21.9466 33.753 21.8663 33.5445 21.7861 33.5124 21.8182 33.6086 21.9786 33.7049 22.123 33.6728 22.1551 33.5284 22.0589 33.2878 21.9145 31.0899 22.9252 31.2183 23.1337 31.2664 23.1979 31.1701 23.2139 31.0258 23.1498 30.8332 23.0856 30.7851 23.1016 30.8653 23.23 30.9295 23.3583 30.8974 23.3904 30.753 23.3262 30.6247 23.2781 29.999 23.5027 29.3734 23.8236 27.753 24.6418 27.6889 24.8663 28.6033 26.6311 29.0044 27.3851 29.4054 27.9786 29.5177 27.9466 29.614 27.9305 29.6621 27.9786 29.5979 28.0749 29.4536 28.3155 30.7851 30.6738 30.9937 30.5455 31.106 30.4813 31.122 30.5134 31.0578 30.6097 30.8974 30.8663 31.4108 31.7968 31.6354 31.6685 31.7477 31.6043 31.7637 31.6204 31.6996 31.7327 31.5391 31.9893 32.2129 33.2407 32.4375 33.1123 32.5498 33.0482 32.5659 33.0642 32.5017 33.1765 32.3413 33.4332 32.8546 34.3637 33.0792 34.2353 33.1915 34.1712 33.2076 34.1872 33.1434 34.2995 32.983 34.5562 33.6568 35.8075 33.8814 35.6792 33.9937 35.615 34.0097 35.6311 33.9455 35.7434 33.7851 36 34.2985 36.9305 34.5231 36.8022 34.6354 36.738 34.6514 36.754 34.5873 36.8664 34.4268 37.123 34.9402 38.0535 35.1648 37.9252 35.2771 37.861 35.2931 37.877 35.229 37.9893 35.0685 38.246 35.7423 39.4974 35.9669 39.369 36.0792 39.3049 36.0953 39.3209 36.0311 39.4332 35.8867 39.6738 36.384 40.6364 36.5766 40.5081 36.6728 40.4439 36.6889 40.5241 36.6247 40.6845 36.5445 40.8931 36.5766 40.9252 36.737 40.8289 36.8814 40.7487 36.9135 40.7647 36.8332 40.877 36.6728 41.1337 37.1862 42.0642 37.4108 41.9359 37.5231 41.8717 37.5391 41.8877 37.475 42 37.3145 42.2567 37.8279 43.1872 38.0525 43.0589 38.1648 42.9947 38.1808 43.0107 38.1167 43.1391 37.9562 43.3797 39.2717 45.7541 39.4963 45.6257 39.6086 45.5615 39.6247 45.5936 39.5605 45.7059 39.4001 45.9466 40.7156 48.3209 40.9402 48.1926 41.0525 48.1284 41.0685 48.1605 41.0044 48.2567 40.8439 48.5134 41.3573 49.4439 41.5819 49.3155 41.6942 49.2514 41.7102 49.2674 41.6461 49.3797 41.5177 49.6043 42.1434 50.9038 42.3359 50.7754 42.4161 50.7434 42.4643 50.8236 42.4482 50.968 42.4161 51.4011 43.1701 51.6899 43.7798 51.4813 44.0525 51.3851 44.229 51.2407 44.1808 51.1605 44.1327 51.0803 44.1969 51.0642 44.3252 51.0963 44.4375 51.1444 44.8065 51.0803 45.1274 50.9359 45.5605 50.7594 45.6889 50.7434 45.6407 50.8877 45.5605 51.1123 46.2504 53.1498 46.3787 53.0375 46.4108 53.0054 46.4429 53.5027 46.4429 54.1444 46.4429 54.8343 46.3787 55.3155 46.2824 55.2995 46.2022 55.2835 46.1381 55.3958 46.1381 55.5562 46.1541 55.7166 46.1381 55.8129 46.0899 55.7647 46.0418 55.7327 45.6889 55.861 45.2878 56.0856 44.8867 56.2942 44.4536 56.4706 44.3252 56.4706 44.1969 56.4706 44.1327 56.5188 44.1648 56.5829 44.2771 56.7754 42.3199 56.8717 38.6621 56.8717 34.9723 56.8717 32.5659 56.7594 32.6621 56.599 32.6942 56.5508 32.5177 56.4546 32.245 56.3904 31.5391 56.23 30.8332 55.5722 30.6407 54.8984 30.5445 54.5455 30.4803 52.1551 30.4803 49.0749 30.4803 44.2139 30.4643 43.8289 30.1915 43.5883 29.8867 43.3155 28.9402 43.2032 29.1006 43.4599 29.1488 43.5401 29.0685 43.5883 28.9081 43.5722 28.7477 43.5722 28.6514 43.6685 28.6514 43.8289 28.6675 43.9893 28.6193 44.0696 28.5391 44.0214 28.4589 43.9733 28.3947 46.3155 28.3947 49.5241 28.3947 54.8664 28.507 56.4546 28.876 56.23 28.9723 56.1819 28.9883 56.23 28.9402 56.3583 28.8279 56.6792 29.8225 57.8022 30.1113 57.6899 30.2397 57.6418 30.2878 57.6738 30.2397 57.7541 30.0953 57.9947 31.5552 58.6043 32.3413 58.6204 32.7102 58.6204 32.983 58.6845 32.9509 58.7487 32.8867 58.861 34.0899 58.9733 37.0097 59.1177 39.0311 59.23 42.9616 59.0535 42.6568 58.877 42.5605 58.7968 42.8172 58.7968 43.2343 58.845 43.8439 58.9091 43.9723 58.877 43.876 58.7166 43.7798 58.5722 43.8119 58.5401 43.9402 58.6204 44.1969 58.7808 45.2717 58.5883 45.1594 58.3958 45.1113 58.3316 45.2397 58.2995 45.4322 58.3637 45.6568 58.4118 45.737 58.3797 45.6568 58.2674 45.5926 58.1391 45.6247 58.107 45.7851 58.1712 46.0739 58.2835 46.7316 57.9466 46.6033 57.7541 46.5552 57.6578 46.6033 57.6418 46.7316 57.6899 46.9562 57.7701 47.2771 57.4974 47.3252 57.1926 47.3413 57.0963 47.4215 57.0482 47.4857 57.0642 47.7263 57.1284 48.3038 56.2621 48.2397 55.9573 48.1915 55.7808 48.2236 55.7166 48.3199 55.7647 48.4322 55.845 48.4643 55.7327 48.4161 55.4599 48.368 55.2033 48.4001 55.0749 48.4963 55.1391 48.737 55.2835 48.5284 52.877 48.2076 51.8503 48.0471 51.3209 47.8867 51.0482 47.7744 51.1123 47.6621 51.1765 47.6461 51.1605 47.7102 51.0321 47.8546 50.8075 47.6782 50.1819 47.4857 50.2942 47.4215 50.3423 47.3894 50.246 47.4215 50.0856 47.4696 49.9412 47.9188 49.5883 48.4161 49.3316 49.0258 49.0107 49.3306 48.7541 49.3145 48.5776 49.2985 48.4172 49.3466 48.3369 49.4268 48.3851 49.6835 48.5295 49.5873 47.8717 49.2343 46.9412 49.0418 46.4278 48.8172 46.091 48.7209 46.1551 48.6247 46.2193 48.6086 46.1712 48.6728 46.0589 48.8493 45.7861 48.1434 43.9252 47.9188 44.0696 47.8225 44.1177 47.8065 44.0856 47.8707 43.9733 48.0311 43.7166 47.8225 43.123 47.614 43.2514 47.5017 43.3316 47.4857 43.2835 47.5498 43.1712 47.7263 42.8984 47.0204 41.0375 46.7958 41.1819 46.6996 41.23 46.6835 41.1979 46.7477 41.0856 46.9081 40.8289 46.6996 40.2353 46.491 40.3637 46.3787 40.4439 46.3627 40.3958 46.4268 40.2835 46.6033 40.0107 45.8974 38.1498 45.6728 38.2942 45.5766 38.3583 45.5605 38.3102 45.6247 38.1979 45.8012 37.9252 45.0953 36.0642 44.8707 36.2086 44.7744 36.2567 44.7584 36.2246 44.8225 36.1123 44.983 35.8557 44.7744 35.2621 44.5659 35.3904 44.4536 35.4706 44.4375 35.4225 44.5017 35.3102 44.6782 35.0375 43.9723 33.1765 43.7477 33.3209 43.6514 33.369 43.6354 33.3369 43.6996 33.2246 43.86 32.968 43.6514 32.3744 43.4429 32.5027 43.3306 32.5829 43.3145 32.5348 43.3787 32.4225 43.5552 32.1498 42.8493 30.2888 42.6247 30.4332 42.5284 30.4974 42.5124 30.4492 42.5766 30.3369 42.753 30.0642 42.0471 28.2032 41.8225 28.3476 41.7263 28.3958 41.7102 28.3637 41.7744 28.2514 41.9348 27.9947 41.7263 27.4011 41.5177 27.5295 41.4054 27.6097 41.3894 27.5615 41.4536 27.4492 41.63 27.1765 40.9242 25.3155 40.6996 25.4599 40.6033 25.5081 40.5873 25.476 40.6514 25.3637 40.8119 25.107 40.6033 24.5134 40.3947 24.6418 40.2824 24.7059 40.2664 24.6738 40.3306 24.5615 40.491 24.3049 40.122 23.23 39.9135 23.3583 39.8012 23.4225 39.7851 23.3904 39.8493 23.2781 39.9776 23.0696 39.8172 22.4278 39.6568 22.5241 39.5926 22.5562 39.5445 22.3958 39.5284 22.1712 39.4963 21.4813 38.7905 20.1337 38.4696 20.1498 38.3092 20.1658 38.229 20.1177 38.2771 20.0375 38.4054 19.8289 37.6675 19.877 37.2504 20.1016ZM37.5391 22.9893C37.5391 23.0535 37.6193 23.0696 37.7316 23.0054 37.8439 22.9412 37.86 22.9573 37.7958 23.0856 37.6354 23.3423 37.8439 23.9359 38.0525 23.8075 38.1648 23.7273 38.1808 23.7754 38.1167 23.8877 37.9402 24.1605 38.6461 26.0214 38.8707 25.877 38.9669 25.8289 38.983 25.861 38.9188 25.9733 38.7584 26.23 38.9669 26.8236 39.1755 26.6952 39.2878 26.615 39.3038 26.6631 39.2397 26.7754 39.0632 27.0482 39.7691 28.9091 39.9937 28.7647 40.0899 28.7166 40.106 28.7487 40.0418 28.861 39.8814 29.1177 40.0899 29.7113 40.2985 29.5829 40.4108 29.5188 40.4268 29.5508 40.3627 29.6631 40.2022 29.9198 40.5712 30.9947 40.7798 30.8663 40.8921 30.8022 40.9081 30.8343 40.8439 30.9466 40.6835 31.2032 40.8921 31.7968 41.1006 31.6685 41.2129 31.5883 41.229 31.6364 41.1648 31.7487 40.9883 32.0214 41.6942 33.8824 41.9188 33.738 42.0151 33.6899 42.0311 33.722 41.9669 33.8343 41.8065 34.0909 42.0151 34.6845 42.2236 34.5562 42.3359 34.476 42.352 34.5241 42.2878 34.6364 42.1113 34.9091 42.8172 36.7701 43.0418 36.6257 43.1381 36.5615 43.1541 36.6097 43.0739 36.722 42.9135 36.9947 43.9562 39.6418 44.1648 39.5134 44.2611 39.4492 44.2771 39.4974 44.2129 39.6097 44.0365 39.8824 44.7423 41.7434 44.9669 41.599 45.0632 41.5508 45.0792 41.5829 45.0151 41.6952 44.8546 41.9519 45.0632 42.5455 45.2717 42.4172 45.384 42.3369 45.4001 42.3851 45.3359 42.4974 45.1594 42.7701 45.8653 44.6311 46.0899 44.4867 46.1862 44.4385 46.2022 44.4706 46.1381 44.5829 45.9776 44.8396 46.1862 45.4332 46.3947 45.3049 46.507 45.2407 46.5231 45.2728 46.4589 45.3851 46.3306 45.5936 46.6514 46.7166 46.8119 46.6204 46.876 46.5883 46.9402 46.7968 46.9562 47.1016 46.9723 47.4065 46.9081 47.6471 46.8279 47.6471 46.7316 47.6471 46.7156 47.7113 46.7637 47.8075 46.8279 47.9038 46.7477 47.9198 46.5873 47.8557 46.3787 47.7754 46.3466 47.8075 46.4429 47.968 46.5391 48.1123 46.507 48.1444 46.3627 48.0482 46.106 47.8877 43.9402 48.9305 44.0685 49.1391 44.1167 49.2353 44.0846 49.2514 43.9883 49.1872 43.8921 49.123 43.5391 48.6097 43.2183 48.0482 42.8814 47.4385 42.5766 47.0535 42.4803 47.1177 42.368 47.1658 42.352 47.1337 42.4161 47.0214 42.5766 46.7808 41.2611 44.4065 41.0365 44.5348 40.9242 44.599 40.9081 44.5669 40.9723 44.4706 41.1327 44.2139 40.6193 43.2835 40.3947 43.4118 40.2824 43.476 40.2664 43.4599 40.3306 43.3476 40.491 43.091 39.8172 41.8396 39.5926 41.968 39.4803 42.0321 39.4643 42.0161 39.5284 41.9038 39.6889 41.6471 39.1755 40.7166 38.9509 40.845 38.8386 40.9091 38.8225 40.8931 38.8867 40.7808 39.0471 40.5241 38.3734 39.2728 38.1488 39.4011 38.0365 39.4653 38.0204 39.4492 38.0846 39.3369 38.245 39.0803 37.7316 38.1498 37.507 38.2781 37.3947 38.3423 37.3787 38.3262 37.4429 38.2139 37.6033 37.9573 36.9295 36.7059 36.7049 36.8343 36.5926 36.8984 36.5766 36.8824 36.6407 36.7701 36.8012 36.5134 36.2878 35.5829 36.0632 35.7113 35.9509 35.7754 35.9348 35.7594 35.999 35.6311 36.1594 35.3904 34.8439 33.0161 34.6193 33.1444 34.507 33.2086 34.491 33.1765 34.5552 33.0803 34.7156 32.8236 34.2022 31.8931 33.9776 32.0214 33.8653 32.0856 33.8493 32.0696 33.9135 31.9573 34.0739 31.7006 33.4001 30.4492 33.1755 30.5776 33.0632 30.6418 33.0471 30.6257 33.1113 30.5134 33.2717 30.2567 32.7584 29.3262 32.5338 29.4546 32.4215 29.5188 32.4054 29.5027 32.4696 29.3904 32.63 29.1337 31.9562 27.8824 31.7316 28.0107 31.6193 28.0749 31.6033 28.0589 31.6675 27.9466 31.8279 27.6899 31.3145 26.7594 31.0899 26.8877 30.9776 26.9519 30.9616 26.9359 31.0258 26.8236 31.0899 26.7273 31.0258 26.4225 30.8814 26.1498 30.6568 25.7166 30.6568 25.6524 30.8814 25.5722 31.0097 25.5241 31.0739 25.4118 31.0258 25.3316 30.9776 25.2514 31.0739 25.2353 31.2183 25.2995 31.4268 25.3797 31.4589 25.3476 31.3627 25.1872 31.2664 25.0428 31.2985 25.0107 31.4429 25.107 31.6996 25.2674 34.1862 24.0642 34.0578 23.8557 33.9937 23.7594 34.0418 23.7434 34.1701 23.8236 34.4108 23.968 36.9295 22.7968 36.8012 22.5883 36.753 22.5241 36.8493 22.5081 36.9937 22.5722 37.2022 22.6524 37.2343 22.6204 37.1541 22.4439 37.0899 22.3155 37.1541 22.3637 37.2824 22.5241 37.4268 22.7006 37.5391 22.9091 37.5391 22.9893Z"/><path fill="#fff" d="M23.0534 29.1658C22.8128 29.4385 22.7807 30.385 22.7807 39.4171C22.7807 48.0802 22.7486 49.3957 22.54 49.4759C22.4117 49.5241 22.3154 49.4759 22.3475 49.3636C22.3636 49.2513 22.2192 49.1711 22.0267 49.1872C21.8342 49.1872 21.7058 49.139 21.7539 49.0749C21.8662 48.8984 21.0801 48.7059 20.8395 48.8663C20.7112 48.9465 20.6951 48.9144 20.7753 48.7701C20.8716 48.6096 20.7753 48.5775 20.278 48.6578C19.8448 48.7219 19.7325 48.7059 19.893 48.6096C20.0534 48.4973 19.7325 48.4492 18.8823 48.4492C18.1924 48.4492 17.663 48.5134 17.7112 48.5936C17.7593 48.6578 17.6309 48.6898 17.4224 48.6578C16.9251 48.5615 15.1924 49.0588 15.3208 49.2513C15.385 49.3476 15.3047 49.3636 15.1443 49.2995C14.9839 49.2353 14.9037 49.2674 14.9678 49.3636C15.016 49.4438 14.9037 49.508 14.7112 49.508C14.5026 49.492 14.3743 49.5722 14.4063 49.7005C14.4224 49.8289 14.3743 49.877 14.278 49.8128C14.0534 49.6684 13.4438 50.0374 13.5721 50.246C13.6523 50.3583 13.6042 50.3743 13.4919 50.3102C13.2673 50.1658 12.6416 50.6631 12.7539 50.8717C12.8021 50.9358 12.7539 51.0481 12.6577 51.1123C12.5293 51.1765 12.5133 51.1604 12.5775 51.0481C12.7219 50.7914 12.4652 50.8075 12.2245 51.0481C11.9839 51.2888 11.9678 51.5455 12.2245 51.4011C12.3368 51.3369 12.3529 51.3529 12.2887 51.4813C12.2245 51.5775 12.1122 51.6257 12.032 51.5775C11.8395 51.4652 11.1978 52.3155 11.294 52.5722C11.3422 52.6845 11.294 52.7647 11.1817 52.7326C11.0694 52.7166 10.9892 52.861 11.0053 53.0535C11.0053 53.246 10.9411 53.3583 10.8609 53.3102C10.7646 53.246 10.7325 53.3583 10.7807 53.5508C10.8448 53.7754 10.8128 53.8717 10.7165 53.7914C10.5882 53.7273 10.5721 53.8717 10.6363 54.2406C10.7165 54.6257 10.7005 54.7219 10.5882 54.5455C10.4759 54.369 10.4277 54.4973 10.4277 55.0267C10.4277 55.9091 10.7165 57 10.909 56.8717C11.0053 56.8235 11.0213 56.8877 10.9732 57.0321C10.7646 57.5615 12.7379 59.4545 13.3475 59.3102C13.5079 59.262 13.6042 59.2941 13.5561 59.3583C13.4438 59.5508 14.5507 59.8877 14.9358 59.7914C15.0962 59.7433 15.2085 59.7754 15.1443 59.8556C15.0962 59.9358 15.6577 60 16.4438 60C17.3101 60 17.7914 59.9358 17.7272 59.8396C17.6791 59.7433 17.7432 59.7273 17.8876 59.7754C18.2085 59.9037 19.2833 59.6952 19.171 59.5187C19.1229 59.4545 19.2513 59.4225 19.4438 59.4866C19.6684 59.5348 19.7486 59.5027 19.6684 59.3904C19.6042 59.262 19.6363 59.2299 19.7807 59.2941C20.0855 59.4064 21.7058 58.5882 21.5775 58.3957C21.5293 58.3155 21.5775 58.2834 21.7058 58.3316C22.2031 58.508 24.401 56.0856 24.1283 55.6524C24.0481 55.5241 24.0801 55.508 24.2245 55.5882C24.385 55.6845 24.417 55.6524 24.3368 55.4439C24.2727 55.2834 24.2887 55.2032 24.385 55.2674C24.5775 55.3797 24.77 54.6257 24.6096 54.369C24.5454 54.2406 24.5614 54.2246 24.6737 54.2888C24.8181 54.369 24.8662 51.9626 24.8662 44.5668V34.7326L26.1176 35.984C26.8074 36.6738 27.4331 37.1711 27.5133 37.107C27.5775 37.0428 27.5935 37.0588 27.5454 37.1551C27.4491 37.3155 28.2994 39.1765 28.4277 39.0642C28.4598 39.0321 28.4598 39.2888 28.4277 39.6417C28.3475 40.4599 28.7165 40.9091 29.4545 40.9091C30.3208 40.9091 30.5293 40.5561 30.4491 39.2406C30.3529 38.0374 30.0641 37.1551 29.7914 37.3315C29.6951 37.3797 29.6791 37.3476 29.7432 37.2513C29.8876 37.0107 29.5507 36.385 29.3582 36.4973C29.262 36.5455 29.2459 36.4813 29.294 36.3529C29.4063 36.0642 26.1978 32.6791 25.9411 32.8396C25.8448 32.8877 25.8288 32.8556 25.893 32.7433C26.0534 32.5027 25.6844 32.0535 25.4598 32.1979C25.3796 32.246 25.3475 32.2139 25.4117 32.1176C25.524 31.9251 25.2031 31.0909 25.0427 31.1872C24.9946 31.2192 24.9304 30.8503 24.8983 30.3529C24.8662 29.8075 24.7539 29.3422 24.5935 29.1658C24.2566 28.7968 23.3903 28.7968 23.0534 29.1658ZM20.9678 50.9037C21.1443 50.9198 21.2727 51 21.2085 51.0802C21.1604 51.1604 21.2566 51.1765 21.4331 51.1123C21.5935 51.0481 21.6737 51.0481 21.6096 51.1123C21.5614 51.1765 21.7539 51.4973 22.0588 51.8503C22.3636 52.1872 22.6202 52.508 22.6202 52.5882C22.6202 52.6524 22.6844 52.9733 22.7646 53.3102C22.8448 53.6471 22.8769 53.8877 22.8288 53.8396C22.6844 53.6952 22.1229 55.0428 22.2513 55.2513C22.2994 55.3476 22.2994 55.3797 22.2192 55.3155C22.155 55.2513 21.7379 55.508 21.3208 55.9091C20.9037 56.3102 20.2299 56.7914 19.8288 56.984C19.4277 57.1765 19.155 57.4011 19.2031 57.4813C19.2513 57.5775 19.2352 57.5936 19.139 57.5455C19.0588 57.4973 18.401 57.5615 17.6791 57.7059C16.4759 57.9465 16.2833 57.9465 15.3047 57.7059C12.9785 57.1283 12.0641 55.5241 13.0748 53.7754C13.2994 53.3904 13.4277 52.9893 13.3636 52.893C13.3154 52.7807 13.3154 52.7487 13.3796 52.8128C13.524 52.9412 15.1764 51.6738 15.1283 51.4813C15.0962 51.4011 15.2085 51.4011 15.3529 51.4492C15.5293 51.5134 15.5775 51.4973 15.4973 51.369C15.417 51.2406 15.4812 51.2086 15.6577 51.2888C15.8662 51.369 15.8983 51.3369 15.8021 51.1765C15.7219 51.0321 15.7379 51 15.8502 51.0802C16.0588 51.2086 17.3582 50.8717 17.262 50.7112C17.2138 50.631 19.6684 50.7594 20.9678 50.9037ZM12.4652 55.3797C12.417 55.492 12.385 55.4118 12.385 55.1872C12.385 54.9626 12.417 54.8824 12.4652 54.9786C12.4973 55.0909 12.4973 55.2834 12.4652 55.3797Z"/></svg>