<svg xmlns="http://www.w3.org/2000/svg" width="60" height="60" fill="none" viewBox="0 0 60 60"><path fill="#fff" d="M20.7966 3.46835C20.1763 4.05062 19.8219 7.51898 20.2016 9.41772L20.2776 9.77215L18.5814 9.8481C16.7712 9.91139 15.1257 10.2532 14.5561 10.6835C14.1257 10.9873 14.0877 11.6962 14.4295 12.9367C15.1383 15.5443 16.9105 17.8354 19.5561 19.5823C20.5561 20.2405 21.3029 20.6329 23.6447 21.7342C24.0497 21.924 24.151 22.0253 24.0244 22.1013C23.9358 22.1646 20.2269 22.2152 15.7839 22.2152C6.7839 22.2152 6.51808 22.2405 4.88517 23.0506C2.50542 24.2532 0.834534 26.4051 0.328205 28.9494C0.0750403 30.1899 0.0750403 32.2025 0.315547 33.4557C0.619344 34.9494 1.4801 36.6076 2.50542 37.6582C2.97377 38.1266 3.65732 38.6962 4.01175 38.924C4.37884 39.1392 4.68264 39.3924 4.68264 39.481C4.68264 39.5696 4.44213 39.7721 4.15099 39.9367C2.59403 40.7975 1.11301 42.7595 0.492762 44.7468C0.226939 45.5823 0.188964 45.9367 0.188964 47.7215C0.201623 49.8228 0.29023 50.3924 0.910483 51.8354C1.53074 53.3038 3.21428 55.0633 4.68264 55.7848C6.74593 56.7848 4.49276 56.6962 29.3029 56.7468C43.8092 56.7721 51.7966 56.7342 52.4295 56.6582C55.9991 56.1899 58.7459 53.7721 59.6193 50.3671C59.9105 49.2532 59.9738 46.6329 59.7333 45.481C59.2776 43.2152 57.8219 41.1013 55.9611 40C55.6067 39.7848 55.3155 39.557 55.3155 39.4937C55.3155 39.4177 55.6826 39.1139 56.1257 38.8228C57.8092 37.7215 59.075 35.962 59.632 33.924C59.8725 33.038 59.8978 32.7089 59.8345 30.8987C59.7839 29.1013 59.7333 28.7468 59.4295 27.8861C58.5687 25.4051 56.67 23.5443 54.0624 22.6202L53.1004 22.2785L44.0244 22.2405C36.2649 22.2152 34.9611 22.1772 35.0117 22.0253C35.0497 21.924 35.2902 21.7848 35.5434 21.6962C36.3409 21.443 38.3662 20.3797 39.5561 19.5949C42.3029 17.7848 44.0877 15.443 44.7206 12.8481C45.1257 11.2152 45.0371 10.8481 44.189 10.4937C43.4801 10.1899 41.594 9.81012 40.8472 9.81012H40.1763V8.12658C40.189 6.34177 40.0117 5.43037 39.4421 4.15189C39.0244 3.25316 38.7839 3.13923 37.8852 3.48101C36.7586 3.89873 35.4928 4.56962 34.2776 5.3924C33.67 5.79747 33.113 6.13924 33.0497 6.13924C32.9991 6.13924 32.7839 5.89873 32.594 5.60759C32.0624 4.81012 31.151 3.87341 30.5434 3.53164C30.0877 3.25316 29.9738 3.2405 29.7206 3.36708C29.1383 3.67088 28.2649 4.49367 27.7206 5.2405C27.4042 5.67088 27.113 6.01265 27.0497 6.01265C26.9864 6.01265 26.708 5.8481 26.4168 5.64557C25.5687 5.06329 23.8092 4.16455 22.7459 3.74683C21.3282 3.20253 21.113 3.17721 20.7966 3.46835ZM23.6953 5.82278C26.4548 7.20253 28.3535 9.05063 29.1383 11.1139C29.3535 11.6835 29.3788 11.9367 29.3029 12.9494L29.2143 14.1266L28.6953 13.6709C26.7333 11.9873 25.3409 11.1519 23.2902 10.443L21.9611 9.97468L21.8092 9.41772C21.6573 8.81012 21.594 6.37974 21.7333 5.59493C21.8092 5.13924 21.8345 5.10126 22.1636 5.17721C22.3662 5.21519 23.0497 5.50632 23.6953 5.82278ZM30.5307 5.46835C31.5307 6.55696 31.8852 7.43037 31.4548 7.78481C31.3409 7.87341 31.0497 8.27848 30.7966 8.68354C30.5434 9.10126 30.3029 9.43037 30.2523 9.43037C30.2016 9.43037 29.9991 9.18987 29.8092 8.88607C29.6193 8.59493 29.2396 8.0886 28.9611 7.77215C28.6953 7.44304 28.4801 7.11392 28.4801 7.02531C28.4801 6.68354 29.7839 5.12658 30.0624 5.12658C30.1383 5.12658 30.3535 5.27848 30.5307 5.46835ZM38.4042 6C38.6193 6.92405 38.6573 8.21519 38.5307 9.22784C38.4674 9.65822 38.3915 9.81012 38.2269 9.81012C37.8219 9.81012 36.0117 10.3165 34.9991 10.7215C33.9231 11.1392 32.2523 12.1139 31.5561 12.7342C31.3155 12.9367 31.0877 13.1013 31.0244 13.1013C30.8725 13.1013 31.1004 11.8101 31.3915 11.0253C31.9738 9.50632 33.4168 7.75949 34.9991 6.70886C35.9864 6.05063 37.7206 5.13924 37.9991 5.12658C38.151 5.12658 38.2523 5.34177 38.4042 6ZM21.2016 11.5316C22.3409 11.7342 24.0118 12.3418 25.0624 12.9367C25.9231 13.4304 27.594 14.7595 28.2016 15.443L28.7333 16.038V18.8101C28.7333 21.1139 28.708 21.5823 28.5561 21.5823C28.2269 21.5823 25.2523 20.6835 24.113 20.2278C21.3535 19.1519 18.9485 17.519 17.5814 15.8101C16.594 14.557 15.5687 12.1646 15.8978 11.8354C16.113 11.6203 17.7966 11.3544 18.9864 11.3418C19.5814 11.3418 20.5687 11.4177 21.2016 11.5316ZM42.1637 11.5316C43.2523 11.7342 43.2902 11.7468 43.2902 12.0886C43.2902 12.4937 42.9231 13.5949 42.5307 14.3671C41.2523 16.8861 38.075 19.1899 33.9358 20.6202C32.6826 21.0506 30.8092 21.5823 30.5181 21.5823C30.4168 21.5823 30.3788 20.7215 30.3788 18.8228V16.0759L30.8345 15.5443C31.8219 14.3924 33.7712 13 35.3788 12.3038C37.4801 11.3924 39.8978 11.1266 42.1637 11.5316ZM53.3282 24.0506C55.5181 24.6202 57.151 26.1266 57.9358 28.3038C58.2396 29.1646 58.2776 29.4051 58.2776 31.1392C58.2902 33.1899 58.1383 33.9367 57.5054 35.1519C57.075 35.9747 56.1004 37.0253 55.3155 37.5316C54.113 38.3038 53.0624 38.5696 50.9864 38.6456C49.9485 38.6835 49.113 38.6582 49.113 38.6076C49.113 38.557 49.2776 38.2405 49.4674 37.924C49.9864 37.0886 50.2269 36.4051 50.3155 35.5443C50.5181 33.7975 49.8219 32.4937 48.3029 31.7089L47.4295 31.2658L40.4042 31.2278C32.6067 31.1899 32.9105 31.1646 32.9105 32.0127C32.9105 32.7975 32.7712 32.7721 40.3155 32.8481C46.8345 32.9114 47.1763 32.924 47.6573 33.1646C48.4042 33.5316 48.7712 34.3164 48.6826 35.2911C48.5434 36.6456 47.9864 37.5063 46.7206 38.3038L46.151 38.6709H26.9738C10.2016 38.6709 7.68264 38.6456 6.96112 38.4683C4.4801 37.8861 2.59403 36.0506 1.96112 33.6076C1.66998 32.4937 1.74593 29.2911 2.07504 28.3544C2.82188 26.2911 4.59403 24.5949 6.61934 24.0506C7.64466 23.7848 52.2649 23.7721 53.3282 24.0506ZM53.8219 40.6582C55.8599 41.4304 57.2396 42.8734 57.9864 45C58.2396 45.7215 58.2776 46.0506 58.2776 47.7215C58.2649 49.3418 58.2269 49.7342 57.9864 50.443C57.2649 52.557 55.8978 53.9494 53.8219 54.7215C53.1004 54.9873 52.6826 55.038 51.0497 55.1013C49.8725 55.1392 49.113 55.1139 49.113 55.038C49.113 54.9747 49.2523 54.7342 49.4295 54.4937C49.8852 53.8734 50.2396 52.8481 50.3282 51.8481C50.4928 50.1392 49.7966 48.8987 48.2523 48.1392L47.4042 47.7215L29.0497 47.6582C8.12567 47.5823 10.1383 47.7089 9.87251 46.4557C9.60669 45.1899 10.0244 44.4304 11.0624 44.2278C11.4042 44.1645 11.7966 44.0253 11.9231 43.8987C12.2649 43.5949 12.2143 43.038 11.8092 42.7215C10.9738 42.0633 9.03707 42.9747 8.40415 44.3038C8.22694 44.6835 8.16365 45.0886 8.16365 45.8861C8.16365 47.5316 8.70795 48.5063 9.9358 49.0633C10.4168 49.2911 11.2269 49.3038 28.4928 49.3038C48.2143 49.3038 47.4168 49.2785 48.1257 50.0253C49.0497 51 48.7459 52.962 47.5054 54.1266C47.2396 54.3797 46.8219 54.7089 46.5687 54.8481L46.113 55.1266H26.9358C8.2396 55.1266 7.73327 55.1266 6.7839 54.8734C4.42947 54.2785 2.59403 52.443 1.96112 50.0633C1.70795 49.1139 1.70795 46.3038 1.96112 45.3164C2.56871 42.9873 4.51808 41.0759 6.87251 40.4937C7.3915 40.3671 12.2396 40.3418 30.3155 40.3544L53.1004 40.3797L53.8219 40.6582Z"/><path fill="#fff" d="M10.404 26.1898C9.39138 26.5189 8.61923 27.2025 8.32809 28.0253 8.12556 28.6075 8.12556 30.2404 8.34075 30.848 8.51796 31.3797 9.29011 32.2278 9.89771 32.5569 10.2775 32.7721 10.8218 32.7847 16.5939 32.8227 22.8091 32.8607 22.8724 32.8607 23.2015 32.5949 23.6066 32.2658 23.6445 31.8607 23.2901 31.481L23.0243 31.2025H16.9863C9.961 31.2025 10.1888 31.2404 9.88505 30.1012 9.55593 28.8734 9.98631 27.9999 11.0116 27.7721 11.7711 27.5949 12.1509 27.3417 12.1509 26.9746 12.1509 26.2404 11.3661 25.886 10.404 26.1898ZM26.2778 31.405C25.9613 31.7215 26.0246 32.2784 26.417 32.5949 26.7461 32.848 26.8854 32.8607 28.4297 32.8227 29.8601 32.7847 30.1385 32.7468 30.3664 32.5442 30.6955 32.2404 30.7082 31.6961 30.4044 31.4177 30.0626 31.1139 26.5689 31.1012 26.2778 31.405Z"/></svg>