<svg xmlns="http://www.w3.org/2000/svg" width="61" height="56" fill="none" viewBox="0 0 61 56"><path fill="#fff" stroke="#fff" stroke-width="0.117188" d="M30.9668.0585938H29.1914V5.58564H30.9668V.0585938ZM37.7479 1.66954 35.4277 6.68567 37.039 7.43093 39.3591 2.4148 37.7479 1.66954ZM22.4102 1.66961 20.7988 2.41492 23.119 7.43105 24.7303 6.68574 22.4102 1.66961ZM18.1981 17.598 17.4473 19.2069 18.7408 19.8106 19.4916 18.2017 18.1981 17.598ZM20.2879 20.4208 19.5371 22.0297 20.8307 22.6333 21.5815 21.0245 20.2879 20.4208ZM20.9539 27.0945 20.2031 28.7034 21.4967 29.307 22.2475 27.6982 20.9539 27.0945ZM13.6141 28.1099 12.8633 29.7188 14.1568 30.3224 14.9077 28.7136 13.6141 28.1099ZM14.6668 34.1492 13.916 35.7581 15.2096 36.3617 15.9604 34.7529 14.6668 34.1492Z"/><path fill="#fff" stroke="#fff" stroke-width="0.117188" d="M59.3273 48.2596L53.3528 48.2356L48.9602 38.8232L50.209 37.063C52.0912 34.4102 52.4061 30.9312 51.0303 27.9836L42.2153 9.09509L30.0782 14.7592L17.9413 9.09509L9.12596 27.9836C7.75041 30.9313 8.06517 34.4102 9.94732 37.063L11.1962 38.823L6.80353 48.2354L0.829298 48.2595L0.078125 49.869L11.4801 55.1903L12.2311 53.5807L8.41228 48.9864L12.8049 39.574L14.956 39.4007C18.1983 39.1394 21.0669 37.1462 22.4426 34.1987L30.0782 17.8379L37.7137 34.1986C39.0892 37.1461 41.9579 39.1395 45.2002 39.4005L47.3514 39.5739L51.7441 48.9863L47.9253 53.5807L48.6762 55.1903L60.0781 49.869L59.3273 48.2596ZM8.46056 51.8219L4.59935 50.0199L6.95494 50.0102L8.46056 51.8219ZM20.8341 33.4478C19.7279 35.818 17.4211 37.421 14.8138 37.631L12.6511 37.8053L11.3955 36.0357C9.88182 33.9026 9.62881 31.1048 10.7349 28.7345L17.2296 14.8184C17.3068 14.9043 17.3776 14.9955 17.455 15.0953C17.7613 15.4907 18.1427 15.9829 19.069 16.4152C19.9954 16.8475 20.6175 16.8235 21.1173 16.8046C21.5195 16.7893 21.81 16.7782 22.347 17.0288C22.884 17.2795 23.0622 17.5094 23.3086 17.8273C23.615 18.2227 23.9964 18.7149 24.9229 19.1473C25.8493 19.5795 26.4715 19.556 26.9714 19.5369C27.0976 19.5321 27.2128 19.5287 27.3283 19.5327L20.8341 33.4478ZM28.1117 17.8536C27.6201 17.7363 27.2346 17.7501 26.9035 17.7628C26.5014 17.7779 26.2108 17.7891 25.6736 17.5385C25.1365 17.2878 24.9585 17.0579 24.7119 16.74C24.4055 16.3446 24.0241 15.8524 23.0977 15.4201C22.1712 14.9876 21.5489 15.0114 21.0493 15.0307C20.6472 15.0459 20.3565 15.0571 19.8197 14.8065C19.2827 14.5558 19.1046 14.326 18.858 14.008C18.6551 13.746 18.4181 13.4416 18.0127 13.1403L18.7992 11.4548L28.8983 16.168L28.1117 17.8536ZM32.5174 18.1061C32.4399 18.2061 32.3691 18.2974 32.292 18.3833L31.2581 16.168L41.3574 11.4548L42.3907 13.6692C42.2754 13.6731 42.1602 13.6698 42.0341 13.6649C41.5341 13.6456 40.912 13.6219 39.9857 14.0544C39.0593 14.4868 38.678 14.9789 38.3716 15.3742C38.1251 15.6924 37.947 15.9221 37.4102 16.1726C36.8732 16.4233 36.5825 16.4121 36.1803 16.3968C35.6805 16.3774 35.0583 16.3538 34.1317 16.7864C33.205 17.2188 32.8238 17.7106 32.5174 18.1061ZM47.5055 37.8053L45.3428 37.631C42.7355 37.4209 40.4287 35.818 39.3224 33.4478L33.075 20.0614C33.4806 19.76 33.7176 19.4555 33.9207 19.1936C34.1672 18.8755 34.3453 18.6458 34.8824 18.3951C35.4195 18.1443 35.7099 18.1555 36.1123 18.1709C36.6125 18.1901 37.2343 18.2138 38.1609 17.7814C39.0871 17.349 39.4684 16.8569 39.7749 16.4615C40.0213 16.1433 40.1993 15.9137 40.7364 15.663C41.2734 15.4123 41.5639 15.4237 41.9662 15.4388C42.2972 15.4515 42.6828 15.4653 43.1743 15.3481L49.4217 28.7346C50.5278 31.1048 50.2747 33.9026 48.7611 36.0357L47.5055 37.8053ZM51.6958 51.8219L53.2015 50.0104L55.557 50.02L51.6958 51.8219Z"/><path fill="#fff" stroke="#fff" stroke-width="0.117188" d="M43.9127 22.4802 42.6191 23.0839 43.37 24.6927 44.6635 24.0891 43.9127 22.4802ZM39.8717 18.6018 38.5781 19.2054 39.3289 20.8143 40.6225 20.2106 39.8717 18.6018ZM38.5592 23.6966 37.2656 24.3003 38.0164 25.9092 39.31 25.3055 38.5592 23.6966ZM42.6197 29.8239 41.3262 30.4276 42.077 32.0365 43.3706 31.4328 42.6197 29.8239ZM46.7858 30.7772 45.4922 31.3809 46.243 32.9897 47.5366 32.386 46.7858 30.7772Z"/></svg>