<svg xmlns="http://www.w3.org/2000/svg" width="60" height="51" fill="none" viewBox="0 0 60 51"><path fill="#fff" d="M32.8037 0.193588C30.4766 0.9506 28.7383 2.68892 27.7009 5.24032C27.0561 6.78238 27.0561 7.03471 26.972 20.3525C26.9159 30.3899 26.972 34.0347 27.2243 34.3151C27.6729 34.8758 28.7103 34.7917 29.243 34.2029C29.5794 33.8104 29.7196 33.1656 29.7196 31.7917C29.7196 30.0814 29.7757 29.9132 30.2243 30.0534C30.4766 30.1656 33.2523 31.2871 36.3925 32.5487C40.7383 34.2871 42.0561 34.9319 42.0561 35.3244C42.0561 35.717 41.9439 35.773 41.4393 35.5768C38.8598 34.5955 35.8318 35.0721 32.6636 36.9506C30.757 38.0721 30.6168 38.1001 28.5981 38.016C26.6916 37.9319 26.2991 37.8198 24.4486 36.7263C20.6636 34.4833 17.6636 34.5394 13.5981 36.9506C11.6916 38.0721 11.5514 38.1001 9.53271 38.016C7.65421 37.9319 7.20561 37.8198 5.60748 36.8665C3.81308 35.773 0.813084 34.8198 0.280374 35.1282C0.11215 35.2123 0 35.745 0 36.2497C0 37.0347 0.11215 37.259 0.616822 37.3431C0.981308 37.4272 1.59813 37.5394 1.99065 37.6235C2.38318 37.7076 3.64486 38.3244 4.76636 38.9693C6.72897 40.1188 6.98131 40.1749 9.39252 40.259L11.9439 40.3712L14.7196 38.9132C17.215 37.5955 17.6636 37.4272 19.2336 37.4553C20.4673 37.4553 21.3364 37.6235 22.0654 38.016C26.6355 40.4272 26.2991 40.3151 28.7664 40.3151C31.0374 40.3151 31.1776 40.259 33.8131 38.8852C36.2523 37.5955 36.757 37.4553 38.243 37.4553C39.1963 37.4553 40.4299 37.6515 41.0187 37.8758C42 38.2964 42.0561 38.4085 42.0561 39.5581V40.7917L40.4019 40.3431C37.9626 39.7263 35.6636 40.1749 33 41.773C31.0654 42.9226 30.8972 42.9786 28.7383 42.9786C26.5794 42.9786 26.3832 42.9226 24.5047 41.773C20.7757 39.53 17.6355 39.53 13.9065 41.773C12.1682 42.8385 11.6916 42.9786 9.95327 43.0628C8.18692 43.1469 7.85047 43.0908 6.4486 42.3057C3.92523 40.8758 2.74766 40.3712 1.34579 40.1749L0 39.9786V41.1001C0 42.2216 0.0280374 42.2216 1.17757 42.4179C1.85047 42.53 3.19626 43.0908 4.20561 43.6796C6.78505 45.1656 7.85047 45.4459 10.3738 45.3057C12.0841 45.1936 12.8131 45.0254 13.9065 44.3805C17.0467 42.5581 17.4673 42.4179 19.3738 42.4459C21.028 42.4459 21.4486 42.5861 23.1589 43.5955C25.8505 45.1656 26.8879 45.4459 29.4393 45.3057C31.1495 45.1936 31.8785 45.0254 32.972 44.3805C36.1682 42.53 36.5047 42.4179 38.4673 42.4459C40.1495 42.474 40.5701 42.6142 42.2523 43.5955C44.9159 45.1656 45.9533 45.4459 48.5327 45.3057C50.4673 45.1936 50.9439 45.0534 52.7664 43.988C53.8879 43.3431 55.4019 42.6702 56.1308 42.53C57.4766 42.2216 57.4766 42.2216 57.4766 41.1001V39.9786L56.1589 40.1749C54.785 40.3712 53.6916 40.8198 51.0561 42.2777C49.8785 42.9506 49.2336 43.1188 47.9439 43.1188C47.0187 43.1188 45.9813 43.0067 45.5888 42.8385C44.9439 42.6142 44.8598 42.4179 44.8598 41.2964C44.8598 40.0908 44.9159 40.0067 45.4766 40.2029C45.8131 40.287 46.9626 40.3712 48.0561 40.3712C49.8785 40.3431 50.2991 40.231 52.8505 38.9413C54.3925 38.1562 56.0467 37.4833 56.4953 37.4553C57.2804 37.3712 57.3365 37.2871 57.3365 36.2497V35.1282L56.215 35.2123C55.5421 35.2403 54.028 35.8291 52.3738 36.6702C49.9907 37.8758 49.4299 38.0721 47.972 38.0721C47.0467 38.0721 45.9813 37.9599 45.5607 37.7917L44.8318 37.5113L44.9159 27.0814C45 17.9132 45.0841 16.4833 45.5047 15.3618C46.4019 13.0908 48.2243 11.717 50.3271 11.717C54.1122 11.717 56.4953 13.8758 57.0561 17.745C57.3084 19.4553 57.5888 19.8478 58.6262 19.8478C59.6916 19.8478 60.1122 19.0347 59.8598 17.3805C59.3551 13.9039 57.5047 11.1842 54.729 9.83845C53.3271 9.16555 52.7944 9.0534 50.6075 9.0534C48.5327 9.0534 47.8879 9.16555 46.9346 9.67023C43.6542 11.4366 42.0561 14.8571 42.0561 20.1842C42.0561 21.5581 42 22.6515 41.972 22.6515C41.9159 22.6515 39.2804 21.5581 36.1402 20.2403C33 18.9226 30.2523 17.773 30.0561 17.6889C29.7477 17.5487 29.6916 16.4833 29.7757 12.4459C29.8598 7.45527 29.8598 7.34312 30.7009 5.68892C31.1776 4.79172 31.8785 3.78238 32.2991 3.47396C33.2804 2.77303 35.7757 2.57677 37.486 3.0534C39.8692 3.69826 41.7757 6.2777 41.7757 8.80107C41.7757 9.89452 42.5047 10.8758 43.2897 10.8758C44.3551 10.8758 44.6636 10.231 44.5234 8.26836C44.243 4.93191 42.2523 2.01602 39.2804 0.698261C37.8785 0.08144 34.0654 -0.226971 32.8037 0.193588ZM37.1495 24.2497L41.9159 26.1842L42 28.7637L42.0841 31.3431L39.0561 30.0534C37.4019 29.3525 34.5981 28.1749 32.8879 27.474L29.7196 26.1562V23.717V21.2497L31.0654 21.7824C31.7944 22.0908 34.5421 23.2123 37.1495 24.2497Z"/><path fill="#fff" d="M0 46.1748C0 47.2403 0.0280374 47.2683 1.23364 47.4365C1.90654 47.5487 3.28037 48.1094 4.28972 48.7262C6.50467 50.072 8.15888 50.5206 10.4579 50.3524C12.1963 50.2403 12.9813 49.9599 15.8411 48.2777C17.0187 47.5767 17.5514 47.4646 19.2056 47.4646C20.972 47.4646 21.3645 47.5767 23.1308 48.5861C25.6542 50.044 26.6916 50.3524 28.7664 50.3805C30.8131 50.4085 32.243 49.9599 34.5421 48.53C36.1122 47.5487 36.4486 47.4646 38.243 47.4646C40.0935 47.4646 40.4019 47.5767 42.729 48.8384C44.9159 50.044 45.4766 50.2403 47.243 50.3524C49.6262 50.4926 50.7477 50.1842 53.243 48.6982C54.2243 48.1094 55.5701 47.5487 56.243 47.4365C57.4766 47.2683 57.4766 47.2403 57.4766 46.1468V44.9973L56.1869 45.1935C54.8411 45.3618 53.6075 45.8664 51.0561 47.3244C49.8505 47.9973 49.2056 48.1655 47.9159 48.1655C46.486 48.1655 45.9533 47.9973 43.5421 46.7076C40.8505 45.2496 40.7383 45.2216 38.4112 45.2216C35.9159 45.2216 35.5234 45.3618 32.1308 47.2403C31.2056 47.7449 30.1963 48.0253 29.1028 48.1094C27.5327 48.2216 27.2523 48.1375 24.4766 46.7356C21.5888 45.2776 21.3925 45.2216 19.2336 45.2216C16.8505 45.2216 16.3738 45.3898 13.0374 47.2403C11.8318 47.9132 11.3271 48.0253 9.53271 48.0253C7.59813 47.9973 7.28972 47.9132 5.74766 46.9599C4.03738 45.8945 1.82243 45.0814 0.64486 45.0814C0.0841122 45.0814 0 45.2216 0 46.1748Z"/></svg>