<svg xmlns="http://www.w3.org/2000/svg" width="24" height="24" fill="none" viewBox="0 0 24 24"><path fill="#FDB827" d="M21.0004 4.00008C20.99 3.90822 20.9699 3.81771 20.9404 3.73008V3.64008C20.8925 3.52879 20.8247 3.42714 20.7404 3.34008C20.6556 3.26035 20.5574 3.19605 20.4504 3.15008H20.3604C20.2683 3.07969 20.1628 3.02867 20.0504 3.00008H20.0004C19.901 2.985 19.7999 2.985 19.7004 3.00008L1.70045 9.00008C1.50038 9.06584 1.32618 9.19309 1.20268 9.36367C1.07918 9.53426 1.0127 9.73949 1.0127 9.95008C1.0127 10.1607 1.07918 10.3659 1.20268 10.5365C1.32618 10.7071 1.50038 10.8343 1.70045 10.9001L10.2304 13.7401L13.0704 22.2701C13.1362 22.4702 13.2634 22.6444 13.434 22.7678C13.6046 22.8913 13.8098 22.9578 14.0204 22.9578C14.231 22.9578 14.4363 22.8913 14.6069 22.7678C14.7774 22.6444 14.9047 22.4702 14.9704 22.2701L20.9704 4.27008C20.9927 4.18187 21.0028 4.09103 21.0004 4.00008ZM16.3004 6.29008L10.7304 11.8601L5.16045 10.0001L16.3004 6.29008ZM14.0004 18.8401L12.1404 13.2701L17.7104 7.70008L14.0004 18.8401Z"/></svg>