<svg xmlns="http://www.w3.org/2000/svg" width="29" height="32" fill="none" viewBox="0 0 29 32"><path fill="#E64C3C" d="M25.0016 15.7683V12.4629H1.78613V30.3447C1.78773 30.9425 2.21987 31.4266 2.75344 31.4284H19.1977L25.0016 15.7683Z"/><path fill="#C03A2B" d="M3.71998 29.8027C3.45287 29.8027 3.23633 29.5601 3.23633 29.2609V28.1771C3.23633 27.8779 3.45287 27.6353 3.71998 27.6353 3.9871 27.6353 4.20364 27.8779 4.20364 28.1771V29.2609C4.20364 29.5601 3.9871 29.8027 3.71998 29.8027ZM3.71998 26.5518C3.45287 26.5518 3.23633 26.3092 3.23633 26.0099V16.2562C3.23633 15.957 3.45287 15.7144 3.71998 15.7144 3.9871 15.7144 4.20364 15.957 4.20364 16.2562V26.0099C4.20364 26.3092 3.9871 26.5518 3.71998 26.5518ZM1.78516 13.0049H25.0006V14.6305H1.78516V13.0049Z"/><path fill="#F29C1F" d="M21.0591 4.1612C21.7992 3.81315 22.4786 3.32154 23.0663 2.70898L23.5499 4.87647L25.4845 4.3346C25.0009 7.58583 22.5826 8.66958 20.648 8.66958L13.3932 10.0243L6.13832 8.66958C4.20369 8.66958 1.78541 7.58583 1.30176 4.3346L3.23638 4.87647L3.72004 2.70898C4.30891 3.32237 4.9901 3.81403 5.73205 4.1612L13.3932 5.78682L21.0591 4.1612Z"/><path fill="#F0C419" d="M13.3937 5.4184C13.3937 5.4184 12.4748.748003 8.39173.0121411 8.16239-.0264235 7.92843.0314839 7.73493.174703 7.08925.644506 5.73695 1.99593 5.65859 5.12145 5.65334 5.32639 5.70104 5.52867 5.79595 5.70396 6.20706 6.45662 7.62901 8.40357 11.4547 8.72165L13.3937 5.4184ZM13.3965 5.41843C13.3965 5.41843 14.3154.748036 18.3985.0121744 18.6276-.0264612 18.8615.0314571 19.0548.174736 19.7009.644539 21.0532 1.99597 21.1311 5.12148 21.1365 5.32638 21.089 5.52866 20.9942 5.704 20.5826 6.45774 19.1563 8.40956 15.3176 8.72276L13.3965 5.41843Z"/><path fill="#E64C3C" d="M1.78567 8.66992H25.0011C25.5354 8.66992 25.9685 9.15513 25.9685 9.75367V12.463C25.9685 12.7623 25.7519 13.0049 25.4848 13.0049H1.30202C1.0349 13.0049 0.818359 12.7623 0.818359 12.463V9.75367C0.818359 9.15513 1.25144 8.66992 1.78567 8.66992Z"/><path fill="#F0C419" d="M10.9746 8.66992H15.8112V13.0049H10.9746V8.66992Z"/><path fill="#F29C1F" d="M11.459 13.0049H15.3282V31.4285H11.459V13.0049Z"/><path fill="#2980BA" d="M18.2305 22.7583H27.9036V30.3445C27.9036 30.943 27.4705 31.4283 26.9363 31.4283H19.1978C18.6635 31.4283 18.2305 30.943 18.2305 30.3445V22.7583Z"/><path fill="#F0C419" d="M23.0659 18.4234C23.0659 18.4234 22.6394 15.9584 19.7853 15.2008 19.4028 15.1019 19.0046 15.2703 18.7759 15.6278 18.2305 16.4448 17.8784 17.4032 17.7525 18.4136 17.7149 18.7558 17.8223 19.098 18.0427 19.3386 19.0168 20.3118 20.3211 20.7611 21.615 20.5692L23.0659 18.4234ZM23.0664 18.4234C23.0664 18.4234 23.493 15.9584 26.347 15.2008 26.7296 15.1019 27.1277 15.2703 27.3564 15.6278 27.9018 16.4448 28.2539 17.4032 28.3798 18.4136 28.4174 18.7558 28.3101 19.098 28.0897 19.3386 27.1156 20.3118 25.8113 20.7611 24.5174 20.5692L23.0664 18.4234Z"/><path fill="#F29C1F" d="M21.6152 23.8423H24.5172V31.4285H21.6152V23.8423ZM11.8029 6.22037C11.6301 6.22037 11.4705 6.11709 11.3841 5.94943 11.1684 5.53274 10.3858 4.14392 9.37111 3.76352 9.20696 3.70215 9.08449 3.54733 9.04985 3.35737 9.01521 3.16742 9.07366 2.97118 9.20317 2.8426 9.33269 2.71401 9.51359 2.6726 9.67775 2.73397 10.9773 3.22165 11.889 4.76274 12.2208 5.40323 12.3071 5.57071 12.3072 5.77704 12.2211 5.94463 12.1349 6.11221 11.9755 6.21564 11.8029 6.21604V6.22037ZM14.9837 6.22054C14.811 6.22015 14.6517 6.11671 14.5655 5.94913 14.4794 5.78154 14.4795 5.57522 14.5658 5.40773 14.8976 4.76832 15.8112 3.22453 17.1088 2.73738 17.273 2.67602 17.4539 2.71743 17.5834 2.84601 17.7129 2.9746 17.7714 3.17083 17.7367 3.36079 17.7021 3.55075 17.5796 3.70557 17.4155 3.76694 16.3998 4.14625 15.6182 5.53615 15.4025 5.95285 15.3154 6.11925 15.1558 6.22121 14.9837 6.22054Z"/><path fill="#F3D55B" d="M12.4263 5.41846H14.3609C14.8952 5.41846 15.3282 5.90367 15.3282 6.5022V8.66969H11.459V6.5022C11.459 5.90367 11.8921 5.41846 12.4263 5.41846ZM22.5825 18.4233H23.5499C24.0841 18.4233 24.5172 18.9085 24.5172 19.5071V20.5908H21.6152V19.5071C21.6152 18.9085 22.0483 18.4233 22.5825 18.4233Z"/><path fill="#3B97D3" d="M18.23 20.5908H27.9031C28.4374 20.5908 28.8704 21.076 28.8704 21.6746V23.3002C28.8704 23.5994 28.6539 23.8421 28.3868 23.8421H17.7464C17.4792 23.8421 17.2627 23.5994 17.2627 23.3002V21.6746C17.2627 21.076 17.6958 20.5908 18.23 20.5908Z"/><path fill="#F0C419" d="M21.1318 20.5908H25.0011V23.8421H21.1318V20.5908Z"/></svg>