<svg xmlns="http://www.w3.org/2000/svg" width="37" height="36" fill="none" viewBox="0 0 37 36"><g fill="#fff" clip-path="url(#clip0_425_373)"><path d="M20 12C21.1935 12 22.3381 12.4741 23.182 13.318C24.0259 14.1619 24.5 15.3065 24.5 16.5C24.5 16.8978 24.658 17.2794 24.9393 17.5607C25.2206 17.842 25.6022 18 26 18C26.3978 18 26.7794 17.842 27.0607 17.5607C27.342 17.2794 27.5 16.8978 27.5 16.5C27.5 14.5109 26.7098 12.6032 25.3033 11.1967C23.8968 9.79018 21.9891 9 20 9C19.6022 9 19.2206 9.15804 18.9393 9.43934C18.658 9.72064 18.5 10.1022 18.5 10.5C18.5 10.8978 18.658 11.2794 18.9393 11.5607C19.2206 11.842 19.6022 12 20 12Z"/><path d="M20 6C22.7848 6 25.4555 7.10625 27.4246 9.07538 29.3938 11.0445 30.5 13.7152 30.5 16.5 30.5 16.8978 30.658 17.2794 30.9393 17.5607 31.2206 17.842 31.6022 18 32 18 32.3978 18 32.7794 17.842 33.0607 17.5607 33.342 17.2794 33.5 16.8978 33.5 16.5 33.5 12.9196 32.0777 9.4858 29.5459 6.95406 27.0142 4.42232 23.5804 3 20 3 19.6022 3 19.2206 3.15804 18.9393 3.43934 18.658 3.72064 18.5 4.10218 18.5 4.5 18.5 4.89782 18.658 5.27936 18.9393 5.56066 19.2206 5.84196 19.6022 6 20 6ZM33.125 23.865C33.0425 23.6242 32.9001 23.4084 32.7111 23.2378 32.5222 23.0672 32.293 22.9475 32.045 22.89L23.045 20.835C22.8007 20.7796 22.5464 20.7863 22.3054 20.8544 22.0643 20.9225 21.8442 21.0499 21.665 21.225 21.455 21.42 21.44 21.435 20.465 23.295 17.2298 21.8042 14.6375 19.2013 13.16 15.96 15.065 15 15.08 15 15.275 14.775 15.4501 14.5958 15.5775 14.3757 15.6456 14.1346 15.7137 13.8936 15.7204 13.6393 15.665 13.395L13.61 4.5C13.5525 4.25204 13.4328 4.02281 13.2622 3.83387 13.0916 3.64493 12.8758 3.5025 12.635 3.42 12.2847 3.29488 11.923 3.20445 11.555 3.15 11.1759 3.06209 10.789 3.01185 10.4 3 8.57001 3 6.81496 3.72696 5.52096 5.02096 4.22696 6.31496 3.5 8.07001 3.5 9.9 3.50794 16.0241 5.94423 21.895 10.2746 26.2254 14.605 30.5558 20.4759 32.9921 26.6 33 27.5061 33 28.4034 32.8215 29.2405 32.4748 30.0777 32.128 30.8383 31.6198 31.479 30.979 32.1198 30.3383 32.628 29.5777 32.9748 28.7405 33.3215 27.9034 33.5 27.0061 33.5 26.1 33.5005 25.7182 33.4704 25.337 33.41 24.96 33.347 24.5874 33.2516 24.221 33.125 23.865ZM26.6 30C21.2704 29.996 16.1602 27.8771 12.3915 24.1085 8.62292 20.3398 6.50397 15.2296 6.5 9.9 6.50395 8.86687 6.91611 7.87719 7.64665 7.14665 8.37719 6.41611 9.36687 6.00395 10.4 6H10.895L12.5 12.96 11.69 13.38C10.4 14.055 9.38 14.595 9.92 15.765 10.7993 18.2544 12.2222 20.5166 14.0851 22.3873 15.948 24.258 18.2043 25.6903 20.69 26.58 21.95 27.09 22.445 26.145 23.12 24.84L23.555 24.015 30.5 25.605V26.1C30.4961 27.1331 30.0839 28.1228 29.3534 28.8534 28.6228 29.5839 27.6331 29.996 26.6 30Z"/></g><defs><clipPath id="clip0_425_373"><path fill="#fff" d="M0 0H36V36H0z" transform="translate(.5)"/></clipPath></defs></svg>