<svg xmlns="http://www.w3.org/2000/svg" width="20" height="20" fill="none" viewBox="0 0 20 20"><path fill="#fff" d="M10 8.18164V12.0544H15.3818C15.1455 13.2998 14.4363 14.3544 13.3727 15.0635L16.6181 17.5817C18.509 15.8363 19.5999 13.2726 19.5999 10.2272 19.5999 9.51812 19.5363 8.83623 19.4181 8.18175L10 8.18164ZM4.39568 11.9033 3.66371 12.4636 1.07275 14.4818C2.7182 17.7454 6.09068 20 9.99974 20 12.6997 20 14.9633 19.1091 16.6179 17.5818L13.3724 15.0636C12.4815 15.6636 11.3451 16.0273 9.99974 16.0273 7.39976 16.0273 5.19073 14.2728 4.39976 11.9091L4.39568 11.9033Z"/><path fill="#fff" d="M1.07265 5.51855C.390868 6.86395 0 8.38216 0 10.0003 0 11.6185.390868 13.1367 1.07265 14.4821 1.07265 14.4911 4.39998 11.9003 4.39998 11.9003 4.19998 11.3003 4.08177 10.6639 4.08177 10.0002 4.08177 9.33648 4.19998 8.70016 4.39998 8.10016L1.07265 5.51855ZM9.99995 3.98182C11.4727 3.98182 12.7818 4.49089 13.8272 5.47272L16.6908 2.60912C14.9545.990971 12.7 0 9.99995 0 6.09089 0 2.7182 2.24545 1.07275 5.51819L4.39998 8.10001C5.19084 5.73635 7.39996 3.98182 9.99995 3.98182Z"/></svg>