<svg xmlns="http://www.w3.org/2000/svg" width="16" height="17" fill="none" viewBox="0 0 16 17"><g clip-path="url(#clip0_200_3471)"><path fill="#00BA00" d="M8 16.8408C12.4183 16.8408 16 13.2591 16 8.84082C16 4.42254 12.4183 0.84082 8 0.84082C3.58172 0.84082 0 4.42254 0 8.84082C0 13.2591 3.58172 16.8408 8 16.8408Z"/><path fill="#fff" fill-rule="evenodd" d="M5.50193 12.7427L2.57607 9.61113C2.1755 9.1824 2.19849 8.5041 2.62722 8.10354C3.05594 7.70297 3.73424 7.72603 4.13481 8.15469L6.39169 10.5702L9.96404 7.23242C9.99616 7.20237 10.0297 7.17484 10.0644 7.14952L11.7444 5.57995C12.1731 5.17938 12.8515 5.20243 13.252 5.63116C13.6525 6.05982 13.6295 6.73818 13.2008 7.13875L8.06987 11.9328L8.06438 11.9269L6.28952 13.5852L5.50193 12.7427Z" clip-rule="evenodd"/></g><defs><clipPath id="clip0_200_3471"><path fill="#fff" d="M0 0H16V16H0z" transform="translate(0 .84)"/></clipPath></defs></svg>