<svg xmlns="http://www.w3.org/2000/svg" width="51" height="50" fill="none" viewBox="0 0 51 50"><path fill="#FDB827" d="M45.0766 45.05L39.4294 30.2021C39.9874 29.8685 40.4723 29.4258 40.8553 28.9005C41.2668 28.335 41.5484 27.6857 41.6801 26.9989C41.8119 26.3121 41.7905 25.6047 41.6175 24.9271C41.4713 24.3346 41.4959 23.7128 41.6884 23.1337C41.8809 22.5546 42.2336 22.0419 42.7055 21.6549C43.2517 21.2071 43.6916 20.6436 43.9934 20.005C44.2951 19.3665 44.4512 18.6688 44.4503 17.9625C44.4495 17.2563 44.2916 16.559 43.9883 15.9212C43.6849 15.2834 43.2436 14.7209 42.6963 14.2746C42.2261 13.8861 41.8755 13.3724 41.6851 12.793C41.4946 12.2136 41.4721 11.5921 41.6201 11.0004C41.7917 10.324 41.8122 9.61807 41.68 8.93283C41.5479 8.24759 41.2664 7.59988 40.8556 7.03574C40.4344 6.45626 39.8906 5.97679 39.2629 5.63149C38.6351 5.28619 37.939 5.08355 37.2241 5.03801C36.609 4.99661 36.0176 4.78491 35.5159 4.42659C35.0143 4.06826 34.6222 3.57744 34.3836 3.00902C34.1165 2.35832 33.7106 1.77374 33.1942 1.29606C32.6779 0.818383 32.0636 0.459114 31.3941 0.243319C30.715 0.0212839 29.9957 -0.049985 29.2863 0.0344805C28.5768 0.118946 27.8944 0.357114 27.2864 0.732382C26.7563 1.05625 26.1471 1.22761 25.5259 1.22761C24.9047 1.22761 24.2956 1.05625 23.7655 0.732382C23.1575 0.357099 22.4751 0.118923 21.7656 0.0344567C21.0562 -0.0500091 20.3369 0.0212681 19.6578 0.243319C18.9886 0.459291 18.3745 0.818627 17.8583 1.29628C17.3422 1.77393 16.9365 2.3584 16.6694 3.00894C16.43 3.57842 16.0368 4.06997 15.5338 4.42847C15.0307 4.78698 14.4377 4.99826 13.8213 5.03863C13.1076 5.08489 12.4128 5.28789 11.7865 5.63318C11.1601 5.97847 10.6175 6.45756 10.1973 7.03637C9.7859 7.60186 9.50426 8.25115 9.37252 8.93797C9.24077 9.62478 9.26216 10.3322 9.43516 11.0098C9.58138 11.6023 9.55679 12.2241 9.36425 12.8032C9.1717 13.3823 8.81908 13.8951 8.34719 14.2821C7.80096 14.7298 7.36106 15.2933 7.0593 15.9319C6.75753 16.5705 6.60145 17.2681 6.60233 17.9744C6.60321 18.6806 6.76104 19.3779 7.0644 20.0157C7.36776 20.6535 7.80907 21.2159 8.35641 21.6623C8.82654 22.0508 9.17709 22.5644 9.36754 23.1438C9.55798 23.7231 9.58053 24.3446 9.43258 24.9362C9.26098 25.6126 9.24051 26.3186 9.37263 27.0038C9.50476 27.6891 9.78623 28.3368 10.197 28.9009C10.5801 29.4259 11.0652 29.8683 11.6231 30.2016L5.97602 45.05C5.9228 45.1896 5.91075 45.3416 5.9413 45.4878C5.97186 45.6341 6.04372 45.7685 6.14838 45.8751C6.25303 45.9817 6.38608 46.0561 6.53173 46.0893C6.67738 46.1226 6.82951 46.1134 6.97008 46.0628L13.1209 43.8518L16.2467 49.5918C16.3138 49.7151 16.4129 49.8181 16.5336 49.8899C16.6543 49.9617 16.7922 49.9996 16.9326 49.9996C16.9502 49.9996 16.9677 49.9988 16.9852 49.9977C17.1343 49.9876 17.2774 49.935 17.3975 49.8461C17.5175 49.7572 17.6096 49.6357 17.6627 49.4961L22.9498 35.6023C23.2337 35.495 23.507 35.3616 23.7663 35.2039C24.2963 34.8802 24.9053 34.7089 25.5263 34.7089C26.1474 34.7089 26.7564 34.8802 27.2864 35.2039L27.2872 35.2043C27.5458 35.3599 27.8181 35.4913 28.1009 35.5969L33.3899 49.4954C33.4431 49.635 33.5351 49.7565 33.6552 49.8454C33.7753 49.9343 33.9184 49.9869 34.0674 49.997C34.085 49.9981 34.1025 49.9989 34.1201 49.9989C34.2605 49.9989 34.3983 49.961 34.519 49.8892C34.6397 49.8174 34.7389 49.7144 34.8059 49.5911L37.9317 43.8511L44.0826 46.0621C44.2232 46.1127 44.3753 46.1219 44.5209 46.0886C44.6666 46.0554 44.7996 45.981 44.9043 45.8744C45.0089 45.7678 45.0808 45.6334 45.1114 45.4871C45.1419 45.3409 45.1299 45.1889 45.0766 45.0493V45.05ZM16.8067 47.3529L14.173 42.517C14.0838 42.3534 13.9391 42.227 13.7649 42.1607C13.5908 42.0944 13.3986 42.0925 13.2232 42.1554L8.03977 44.0182L13.0742 30.7821C13.3224 30.8402 13.5747 30.8791 13.8289 30.8986C14.444 30.94 15.0354 31.1517 15.5371 31.5101C16.0387 31.8684 16.4308 32.3592 16.6694 32.9276C16.9365 33.5783 17.3423 34.1628 17.8586 34.6405C18.3749 35.1181 18.9892 35.4774 19.6586 35.6932C20.1414 35.8492 20.6453 35.9297 21.1527 35.9322L16.8067 47.3529ZM22.9445 33.8746C22.5298 34.1307 22.0642 34.2932 21.5802 34.3507C21.0962 34.4082 20.6054 34.3593 20.1423 34.2075C19.6887 34.0617 19.2725 33.8187 18.9225 33.4955C18.5725 33.1723 18.2972 32.7766 18.1159 32.3361C17.7649 31.4968 17.1871 30.7719 16.4473 30.2426C15.7075 29.7133 14.8349 29.4005 13.9273 29.3393C13.4421 29.3081 12.9696 29.1705 12.5436 28.9361C12.1175 28.7017 11.7483 28.3763 11.4623 27.9831C11.1856 27.6029 10.9962 27.1662 10.9077 26.7044C10.8192 26.2425 10.8338 25.7668 10.9504 25.3112C11.1682 24.4318 11.1328 23.5086 10.8482 22.6485C10.5636 21.7883 10.0415 21.0262 9.34211 20.4502C8.97342 20.149 8.67646 19.7695 8.47281 19.3392C8.26917 18.9089 8.16396 18.4386 8.16484 17.9626C8.16571 17.4865 8.27265 17.0166 8.47787 16.5871C8.6831 16.1575 8.98145 15.7791 9.35125 15.4793C10.0489 14.9019 10.569 14.1389 10.8516 13.2785C11.1342 12.4181 11.1677 11.4954 10.9482 10.6168C10.833 10.1623 10.8193 9.68804 10.9082 9.22771C10.9971 8.76738 11.1863 8.33229 11.4624 7.9534C11.7496 7.5593 12.1202 7.2334 12.5477 6.99892C12.9753 6.76443 13.4493 6.62715 13.9359 6.59684C14.8421 6.53442 15.713 6.2211 16.4513 5.69191C17.1895 5.16272 17.7659 4.43855 18.116 3.60043C18.2972 3.15984 18.5725 2.76414 18.9225 2.44096C19.2725 2.11777 19.6888 1.87491 20.1424 1.72934C20.6058 1.57768 21.0966 1.5289 21.5807 1.58641C22.0648 1.64392 22.5306 1.80632 22.9455 2.0623C23.7228 2.537 24.616 2.78816 25.5269 2.78816C26.4377 2.78816 27.3309 2.537 28.1083 2.0623C28.5231 1.80639 28.9887 1.64402 29.4727 1.58651C29.9566 1.529 30.4473 1.57775 30.9106 1.72934C31.3641 1.87516 31.7804 2.11816 32.1303 2.44139C32.4803 2.76461 32.7556 3.16029 32.937 3.60082C33.2879 4.44005 33.8657 5.16495 34.6055 5.69426C35.3453 6.22358 36.2179 6.53638 37.1255 6.59762C37.6107 6.62876 38.0832 6.76642 38.5092 7.00081C38.9353 7.2352 39.3045 7.56057 39.5906 7.95379C39.8673 8.33402 40.0566 8.77065 40.1451 9.23252C40.2336 9.69438 40.219 10.1701 40.1024 10.6257C39.8846 11.5051 39.9201 12.4282 40.2046 13.2884C40.4892 14.1486 41.0114 14.9107 41.7107 15.4867C42.0794 15.7878 42.3764 16.1674 42.58 16.5977C42.7836 17.028 42.8889 17.4983 42.888 17.9743C42.8871 18.4504 42.7802 18.9203 42.5749 19.3498C42.3697 19.7794 42.0714 20.1578 41.7016 20.4576C41.0039 21.035 40.4838 21.7979 40.2012 22.6582C39.9186 23.5186 39.8851 24.4413 40.1045 25.3199C40.2197 25.7743 40.2334 26.2486 40.1445 26.7089C40.0556 27.1693 39.8664 27.6044 39.5902 27.9832C39.3031 28.3774 38.9325 28.7033 38.505 28.9378C38.0774 29.1722 37.6034 29.3095 37.1167 29.3398C36.2106 29.4022 35.3396 29.7155 34.6014 30.2447C33.8632 30.7739 33.2868 31.4981 32.9366 32.3362C32.7554 32.7768 32.4802 33.1725 32.1302 33.4957C31.7802 33.8189 31.3638 34.0617 30.9102 34.2073C30.447 34.3594 29.9561 34.4084 29.4719 34.3509C28.9877 34.2934 28.5219 34.1307 28.1072 33.8743C27.3298 33.3997 26.4366 33.1486 25.5258 33.1486C24.615 33.1487 23.7219 33.3999 22.9445 33.8746ZM37.8295 42.155C37.654 42.0921 37.4619 42.094 37.2877 42.1603C37.1135 42.2266 36.9688 42.353 36.8796 42.5167L34.2459 47.3526L29.9006 35.9339C30.4078 35.931 30.9115 35.85 31.3941 35.6937C32.0636 35.4778 32.678 35.1184 33.1944 34.6407C33.7108 34.1629 34.1168 33.5783 34.3841 32.9276C34.6231 32.3581 35.0161 31.8665 35.5191 31.5079C36.0221 31.1494 36.615 30.9382 37.2313 30.898C37.4831 30.8787 37.7329 30.8401 37.9788 30.7825L43.0129 44.0179L37.8295 42.155Z"/><path fill="#FDB827" d="M37.2451 17.9688C37.2451 15.651 36.5578 13.3853 35.2702 11.4582C33.9825 9.53103 32.1523 8.02901 30.0109 7.14204C27.8696 6.25508 25.5134 6.02301 23.2402 6.47518C20.9669 6.92735 18.8789 8.04345 17.24 9.68235C15.6011 11.3212 14.485 13.4093 14.0328 15.6825C13.5806 17.9558 13.8127 20.312 14.6997 22.4533C15.5866 24.5946 17.0886 26.4249 19.0158 27.7125C20.9429 29.0002 23.2086 29.6875 25.5264 29.6875C28.6333 29.6841 31.612 28.4483 33.809 26.2513C36.0059 24.0544 37.2417 21.0757 37.2451 17.9688ZM25.5264 28.125C23.5177 28.125 21.554 27.5294 19.8839 26.4134C18.2137 25.2974 16.9119 23.7112 16.1432 21.8554C15.3745 19.9996 15.1734 17.9575 15.5653 15.9874C15.9572 14.0172 16.9244 12.2076 18.3448 10.7872C19.7652 9.36682 21.5749 8.39954 23.545 8.00765C25.5151 7.61577 27.5572 7.8169 29.413 8.5856C31.2688 9.35431 32.855 10.6561 33.971 12.3262C35.087 13.9964 35.6826 15.96 35.6826 17.9688C35.6796 20.6614 34.6086 23.2429 32.7046 25.147C30.8006 27.051 28.219 28.122 25.5264 28.125Z"/><path fill="#FDB827" d="M31.7397 15.3777L27.9304 14.8242L26.2268 11.3726C26.1549 11.2508 26.0525 11.1498 25.9296 11.0797C25.8068 11.0096 25.6678 10.9727 25.5264 10.9727C25.3849 10.9727 25.2459 11.0096 25.1231 11.0797C25.0003 11.1498 24.8979 11.2508 24.826 11.3726L23.1224 14.8242L19.313 15.3777C19.1687 15.3986 19.033 15.4594 18.9215 15.5534C18.81 15.6474 18.7269 15.7707 18.6818 15.9094C18.6367 16.048 18.6314 16.1966 18.6663 16.3382C18.7013 16.4798 18.7752 16.6088 18.8796 16.7105L21.6369 19.3972L20.9861 23.191C20.9616 23.3346 20.9777 23.4822 21.0326 23.6171C21.0875 23.752 21.179 23.8689 21.2968 23.9546C21.4146 24.0402 21.554 24.0912 21.6993 24.1018C21.8446 24.1124 21.9899 24.0822 22.1189 24.0146L25.5264 22.2236L28.9336 24.0146C29.0626 24.0822 29.208 24.1124 29.3533 24.1018C29.4985 24.0912 29.638 24.0402 29.7558 23.9546C29.8736 23.8689 29.9651 23.752 30.02 23.6171C30.0749 23.4822 30.091 23.3346 30.0664 23.191L29.4157 19.3972L32.1729 16.7105C32.2774 16.6088 32.3513 16.4798 32.3862 16.3382C32.4212 16.1966 32.4158 16.048 32.3707 15.9094C32.3256 15.7707 32.2426 15.6474 32.1311 15.5534C32.0195 15.4594 31.8839 15.3986 31.7396 15.3777H31.7397ZM28.0311 18.5652C27.9405 18.6537 27.8728 18.7629 27.8337 18.8833C27.7946 19.0038 27.7854 19.132 27.8068 19.2568L28.2592 21.8951L25.8895 20.6495C25.7775 20.5906 25.6528 20.5598 25.5262 20.5598C25.3996 20.5598 25.275 20.5906 25.1629 20.6495L22.7936 21.8947L23.246 19.2565C23.2674 19.1316 23.2581 19.0035 23.219 18.883C23.1799 18.7626 23.1122 18.6534 23.0216 18.5649L21.1045 16.6965L23.7535 16.3115C23.8789 16.2934 23.998 16.2449 24.1004 16.1704C24.2029 16.0959 24.2857 15.9976 24.3417 15.8839L25.5264 13.4839L26.7112 15.884C26.7672 15.9977 26.85 16.0961 26.9525 16.1706C27.0549 16.2451 27.174 16.2935 27.2994 16.3117L29.9484 16.6966L28.0311 18.5652Z"/></svg>