<svg xmlns="http://www.w3.org/2000/svg" width="51" height="50" fill="none" viewBox="0 0 51 50"><g clip-path="url(#clip0_344_11279)"><path fill="#FDB827" d="M50.1594 15.3723C50.159 14.5173 49.8228 13.7633 49.187 13.192L41.587 6.36035C40.6417 5.51084 39.4498 4.64258 37.774 4.64258C37.7735 4.64258 37.7728 4.64258 37.7723 4.64258C36.0954 4.64316 34.9034 5.5126 33.9586 6.36309L26.3635 13.1999C25.728 13.7718 25.3924 14.5261 25.3927 15.3811L25.3962 24.1555H20.3521C21.265 22.2597 21.9009 19.2649 21.1868 17.0225C20.6843 15.4442 19.5775 14.4038 17.9863 14.0136C17.7832 13.9637 17.5687 13.9975 17.3906 14.1071C17.2126 14.2167 17.0859 14.3933 17.039 14.597C16.9523 14.9732 16.8722 15.326 16.7969 15.6575C15.8585 19.7897 15.7379 20.3208 13.146 22.0148C11.3149 23.2116 11.185 23.3661 10.0462 25.0274C9.92988 25.1972 9.80156 25.3843 9.65791 25.5921C9.19678 26.2591 8.60684 26.5599 7.74951 26.5674L7.6834 26.5676V26.3805C7.6834 25.4074 6.8918 24.6158 5.91865 24.6158H1.93457C0.961523 24.6158 0.169922 25.4074 0.169922 26.3805V43.5937C0.169922 44.5668 0.961523 45.3584 1.93457 45.3584H5.91875C6.8918 45.3584 7.6835 44.5668 7.6835 43.5937V42.7929C8.03565 42.9157 8.3877 43.0468 8.7502 43.1821C10.5251 43.845 12.5367 44.5964 15.5235 44.5964H25.8942C26.3363 44.5964 26.757 44.5041 27.139 44.3386C27.514 44.5072 27.9202 44.5964 28.3367 44.5964H28.3374L47.2378 44.5898C48.8552 44.5892 50.1705 43.2729 50.1698 41.6555L50.1594 15.3723ZM6.121 43.5937C6.121 43.7033 6.02842 43.7959 5.91875 43.7959H1.93457C1.825 43.7959 1.73242 43.7033 1.73242 43.5937V26.3805C1.73242 26.2709 1.825 26.1783 1.93457 26.1783H5.91875C6.02842 26.1783 6.121 26.2709 6.121 26.3805V43.5937ZM15.5235 43.0339C12.819 43.0339 11.0285 42.365 9.29697 41.7184C8.77422 41.5231 8.23818 41.3229 7.68359 41.1442V28.1301L7.75889 28.1299C9.12363 28.118 10.1951 27.563 10.9434 26.4805C11.0883 26.2709 11.2177 26.0821 11.3351 25.9108C12.3853 24.3787 12.3853 24.3787 14.001 23.3227C17.1218 21.2829 17.3519 20.2693 18.3206 16.0035C18.335 15.9402 18.3495 15.876 18.3643 15.811C19.0081 16.1528 19.4475 16.7097 19.698 17.4965C20.4352 19.8113 19.2728 23.3751 18.3633 24.4252C18.1631 24.6563 18.1162 24.9831 18.2433 25.2613C18.3704 25.5395 18.648 25.718 18.9539 25.718H27.8855C28.756 25.718 29.4641 26.4261 29.4641 27.2965C29.4641 28.1669 28.756 28.8751 27.8855 28.8751H21.7278C21.2964 28.8751 20.9466 29.2249 20.9466 29.6563C20.9466 30.0878 21.2964 30.4376 21.7278 30.4376H29.176C30.0464 30.4376 30.7545 31.1457 30.7545 32.0161C30.7545 32.8865 30.0464 33.5947 29.176 33.5947H21.7278C21.2964 33.5947 20.9466 33.9445 20.9466 34.376C20.9466 34.8074 21.2964 35.1572 21.7278 35.1572H28.3648C29.2353 35.1572 29.9434 35.8653 29.9434 36.7357C29.9434 37.6062 29.2353 38.3143 28.3648 38.3143H21.7278C21.2964 38.3143 20.9466 38.6641 20.9466 39.0955C20.9466 39.527 21.2964 39.8768 21.7278 39.8768H25.8943C26.7647 39.8768 27.4729 40.585 27.4729 41.4554C27.4729 42.3258 26.7648 43.0339 25.8943 43.0339H15.5235ZM47.2372 43.0273L28.6082 43.0338C28.8792 42.5696 29.0354 42.0306 29.0354 41.4554C29.0354 40.8766 28.878 40.3339 28.6039 39.8678C30.2246 39.7451 31.5059 38.3872 31.5059 36.7357C31.5059 35.9694 31.23 35.2663 30.7724 34.7205C31.6962 34.173 32.317 33.1656 32.317 32.0161C32.317 30.7297 31.5396 29.6215 30.43 29.1363C30.8052 28.6188 31.0266 27.9831 31.0266 27.2965C31.0266 25.5645 29.6175 24.1555 27.8855 24.1555H26.9588L26.9553 15.3806C26.9552 14.9696 27.1035 14.6362 27.4089 14.3613L35.004 7.52441C36.0447 6.5876 36.847 6.20547 37.7729 6.20508H37.7741C38.6993 6.20508 39.5017 6.58682 40.5427 7.52236L48.1427 14.354C48.4482 14.6287 48.5969 14.962 48.5971 15.3729L48.6074 41.6561C48.6077 42.4119 47.9931 43.0271 47.2372 43.0273ZM42.4661 32.4548C42.5806 33.3977 42.3278 34.2582 41.7354 34.9433C41.0385 35.7489 39.8805 36.2891 38.5626 36.4406V37.4344C38.5626 37.8658 38.2128 38.2156 37.7813 38.2156C37.3499 38.2156 37.0001 37.8658 37.0001 37.4344V36.4293C35.0485 36.1611 33.5315 34.9271 33.0924 33.1656C32.988 32.747 33.2428 32.3229 33.6614 32.2186C34.0804 32.1148 34.5041 32.369 34.6085 32.7876C35.0132 34.4105 36.6464 34.9521 37.9228 34.9202C39.0187 34.8941 40.0513 34.5021 40.5536 33.9212C40.8585 33.5687 40.9768 33.1506 40.9151 32.6431C40.7693 31.4419 39.7673 30.7524 37.666 30.4074C34.3219 29.8583 33.5432 28.1623 33.4789 26.8363C33.3896 24.9989 34.676 23.4589 36.6798 23.0044C36.7849 22.9807 36.8918 22.9601 37.0003 22.943V21.9269C37.0003 21.4954 37.3501 21.1456 37.7815 21.1456C38.213 21.1456 38.5628 21.4954 38.5628 21.9269V22.9363C39.9932 23.1481 41.4042 23.9768 42.1092 25.656C42.2762 26.0537 42.0892 26.5117 41.6913 26.6787C41.2934 26.8459 40.8355 26.6587 40.6686 26.2608C39.9909 24.647 38.3506 24.2278 37.0254 24.5284C36.024 24.7555 34.9765 25.4612 35.0396 26.7607C35.0594 27.1677 35.1194 28.4061 37.9192 28.8657C38.9565 29.0358 42.1141 29.5543 42.4661 32.4548ZM37.7749 15.1185C39.309 15.1185 40.5571 13.8704 40.5571 12.3362C40.5571 10.8021 39.3091 9.554 37.7749 9.554C36.2407 9.554 34.9926 10.8021 34.9926 12.3362C34.9926 13.8704 36.2407 15.1185 37.7749 15.1185ZM37.7749 11.1164C38.4475 11.1164 38.9946 11.6637 38.9946 12.3361C38.9946 13.0086 38.4475 13.5559 37.7749 13.5559C37.1023 13.5559 36.5551 13.0086 36.5551 12.3361C36.5551 11.6637 37.1023 11.1164 37.7749 11.1164Z"/></g><defs><clipPath id="clip0_344_11279"><path fill="#fff" d="M0 0H50V50H0z" transform="translate(.17)"/></clipPath></defs></svg>