<svg xmlns="http://www.w3.org/2000/svg" width="51" height="50" fill="none" viewBox="0 0 51 50"><g fill="#FDB827" clip-path="url(#clip0_344_11253)"><path d="M50.1305 18.0328H41.9224H35.3559H27.1478C26.6553 18.0328 26.327 18.3607 26.327 18.8525V24.3443L24.275 23.8525L22.0588 21.6393C24.5212 19.3443 24.6854 14.5082 24.6854 13.1148C27.7224 13.1148 29.8565 12.2951 30.6773 10.8197C31.0056 10.1639 31.2519 9.09836 30.349 7.70492C29.4461 6.39344 28.2969 5.7377 26.7374 5.7377C26.6553 5.7377 23.7825 5.7377 23.7825 5.7377C23.5362 4.26229 22.5513 1.14754 18.6934 0.245902C17.8726 0.0819672 16.7235 0 16.4773 0C7.94082 0 6.62752 4.09836 6.62752 6.55738V10.6557C6.62752 11.2295 6.87376 11.8852 7.36625 12.377C6.95584 12.8689 6.62752 13.6885 6.62752 14.7541C6.62752 16.8033 8.0229 17.7049 9.25411 17.9508C9.66452 19.1803 10.2391 20.082 10.8137 20.8197L7.77665 23.8525C7.12 24.5902 7.94082 25.3279 7.94082 25.3279L4.41133 28.8525C4.083 29.2623 0.881836 32.541 0.881836 35.2459C0.881836 35.4098 0.881836 35.4918 0.963917 35.5738L5.06798 43.7705C5.15006 44.0164 5.3963 44.0984 5.56046 44.1803C5.64254 44.1803 6.38127 44.4262 7.44833 44.4262C7.44833 44.5082 7.36625 49.0984 7.36625 49.0984C7.36625 49.5902 7.69457 49.918 8.18706 49.918C8.67955 49.918 9.00787 49.5902 9.00787 49.0984V46.8033C10.2391 48.2787 12.209 49.918 14.7536 49.918C17.2981 49.918 21.9767 48.2787 26.0808 46.8033C26.8195 46.5574 27.4761 46.3115 28.1328 46.0656C28.2969 45.9836 28.4611 45.9836 28.7074 45.9016V49.1803C28.7074 49.6721 29.0357 50 29.5282 50C30.0207 50 30.349 49.6721 30.349 49.1803V45.4918C31.8264 45.1639 33.2218 45 34.453 45.082H40.1987C41.5941 45.082 43.482 44.5902 44.0565 43.1147C44.2207 42.7049 44.3028 42.2951 44.3028 41.8033H50.0485C50.5409 41.8033 50.8693 41.4754 50.8693 40.9836V18.8525C50.9513 18.3607 50.623 18.0328 50.1305 18.0328ZM41.1016 19.6721V24.0984L38.9675 23.0328C38.8854 22.9508 38.8033 22.9508 38.6392 22.9508C38.475 22.9508 38.3929 22.9508 38.3108 23.0328L36.1767 24.0984V19.6721H41.1016ZM17.1339 24.1803C17.0518 24.0164 16.6414 23.7705 16.6414 23.7705C17.6264 23.7705 18.4472 23.6066 19.268 23.3607L18.9397 24.3443L18.1189 26.4754C18.1189 26.4754 17.216 24.1803 17.1339 24.1803ZM21.1559 23.0328L22.8796 24.7541L22.0588 26.3115L20.6634 24.4262L21.1559 23.0328ZM22.6333 7.37705C21.8946 7.95082 21.238 8.68852 20.7455 9.34426C19.3501 11.3934 18.1189 11.4754 18.1189 11.4754H13.7686C14.0969 11.1475 14.4252 10.7377 14.6715 10.3279C15.6564 8.85246 17.4622 7.37705 18.9397 7.37705H22.6333ZM28.9536 8.68852C29.364 9.26229 29.4461 9.7541 29.1998 10.082C28.8715 10.7377 27.4761 11.4754 24.6854 11.4754H24.6033C24.4391 10 24.1929 8.93443 24.0287 8.36066C24.9316 7.78688 25.8345 7.37705 26.7374 7.37705C27.6403 7.37705 28.379 7.78689 28.9536 8.68852ZM8.26914 6.55738C8.26914 3.60656 10.6495 2.37705 13.3582 1.88525C11.9628 3.36066 11.5524 5.2459 11.5524 6.55738C11.5524 7.04918 11.8807 7.37705 12.3732 7.37705C12.7836 7.37705 13.194 7.04918 13.194 6.55738C13.194 6.06557 13.3582 2.13115 17.3801 1.72131C20.9096 2.04918 21.8946 4.5082 22.1409 5.7377H18.9397C16.7235 5.7377 14.5073 7.54098 13.3582 9.34426C11.9628 11.3934 10.7316 11.4754 10.7316 11.4754H9.08995C8.4333 11.4754 8.26914 11.0656 8.26914 10.6557V6.55738ZM9.91076 16.3934C9.66452 16.3934 8.26914 16.3115 8.26914 14.7541C8.26914 13.2787 8.92579 13.1148 9.08995 13.1148H18.1189C18.3651 13.1148 20.253 13.0328 22.0588 10.3279C22.2229 10.082 22.3871 9.83607 22.6333 9.59016C22.7975 10.3279 23.0438 11.5574 23.0438 13.1967C23.0438 13.2787 23.3721 17.7869 20.9917 20.4098C19.9247 21.5574 18.3651 22.1311 16.4773 22.1311C16.3952 22.1311 12.127 22.0492 10.7316 16.9672C10.5674 16.6393 10.2391 16.3934 9.91076 16.3934ZM11.6345 22.377L15.246 24.7541L13.0298 27.541L9.41828 24.5902L11.6345 22.377ZM2.52346 35.082C2.68762 33.3607 4.73965 30.9016 5.56046 30.082L9.17203 26.4754L12.6194 29.3443C12.7836 29.5082 12.9478 29.5082 13.1119 29.5082H13.194C13.4403 29.5082 13.6044 29.3443 13.7686 29.1803L16.1489 26.1475L17.2981 28.9344C17.4622 29.2623 17.7085 29.4262 18.0368 29.4262C18.3651 29.4262 18.6934 29.2623 18.7755 28.9344L19.8426 26.2295L21.4021 28.3607C21.5663 28.6066 21.8125 28.6885 22.1409 28.6885C22.3871 28.6885 22.6333 28.5246 22.7975 28.2787L24.1108 25.5738L26.1628 26.0656V39.0984C24.9316 39.5082 23.4542 40 21.8946 40.4918C20.6634 40.9016 19.4322 41.3115 18.283 41.7213C16.8877 42.2131 15.246 41.6393 14.5073 40.3279L11.3061 34.8361C11.0599 34.4262 10.5674 34.3443 10.157 34.5902C9.7466 34.8361 9.66452 35.3279 9.91076 35.7377L12.209 39.5082C10.8957 43.3607 7.36625 43.0328 6.29919 42.7869L2.52346 35.082ZM42.5791 42.459C42.3328 43.1148 41.1837 43.4426 40.2808 43.4426H34.6172C31.9085 43.2787 29.1178 44.0984 27.7224 44.5902C27.0657 44.8361 26.327 45.082 25.6703 45.3279C21.8125 46.6393 17.1339 48.3607 14.8356 48.3607C11.9628 48.3607 9.91076 45.4098 9.25411 44.3443C10.6495 44.0164 12.209 43.2787 13.3582 41.3115C14.2611 42.7049 15.8206 43.5246 17.4622 43.5246C17.9547 43.5246 18.4472 43.4426 18.9397 43.2787C20.0067 42.9508 21.238 42.541 22.5513 42.0492C26.1628 40.8197 30.5952 39.3443 31.7444 39.3443H37.49C37.7363 39.3443 38.2288 39.5082 38.3108 40.1639H36.1767C35.6842 40.1639 35.3559 40.4918 35.3559 40.9836C35.3559 41.4754 35.6842 41.8033 36.1767 41.8033C36.1767 41.8033 42.4149 41.8852 42.7432 41.8852C42.7432 42.0492 42.6611 42.2951 42.5791 42.459ZM49.3097 40.1639H39.9525C39.8704 38.3607 38.475 37.7049 37.49 37.7049H31.7444C31.0056 37.7049 29.7744 38.0328 27.9686 38.5246V19.6721H34.5351V25.4098C34.5351 25.6557 34.6993 25.9836 34.9455 26.1475C35.1918 26.3115 35.5201 26.3115 35.7663 26.1475L38.7213 24.6721L41.6762 26.1475C41.6762 26.2295 41.7583 26.2295 41.9224 26.2295C42.0866 26.2295 42.2507 26.2295 42.3328 26.1475C42.5791 25.9836 42.7432 25.7377 42.7432 25.4098V19.6721H49.3097V40.1639Z"/><path d="M34.5347 34.4258H31.2515C30.759 34.4258 30.4307 34.7537 30.4307 35.2455 30.4307 35.7373 30.759 36.0651 31.2515 36.0651H34.5347C35.0272 36.0651 35.3555 35.7373 35.3555 35.2455 35.3555 34.7537 35.0272 34.4258 34.5347 34.4258ZM31.2515 33.6061H32.8931C33.3856 33.6061 33.7139 33.2783 33.7139 32.7865 33.7139 32.2947 33.3856 31.9668 32.8931 31.9668H31.2515C30.759 31.9668 30.4307 32.2947 30.4307 32.7865 30.4307 33.2783 30.759 33.6061 31.2515 33.6061Z"/></g><defs><clipPath id="clip0_344_11253"><path fill="#fff" d="M0 0H50V50H0z" transform="translate(.882)"/></clipPath></defs></svg>