<svg xmlns="http://www.w3.org/2000/svg" width="106" height="18" fill="none" viewBox="0 0 106 18"><g clip-path="url(#clip0_73_373)"><path fill="#FFC700" d="M9 0.5625L6.22818 6.13123L0 7.00872L4.51709 11.3287L3.45635 17.4375L9 14.5687L14.5436 17.4375L13.4829 11.3287L18 7.00872L11.7718 6.13123L9 0.5625Z"/></g><g clip-path="url(#clip1_73_373)"><path fill="#FFC700" d="M31 0.5625L28.2282 6.13123L22 7.00872L26.5171 11.3287L25.4564 17.4375L31 14.5687L36.5436 17.4375L35.4829 11.3287L40 7.00872L33.7718 6.13123L31 0.5625Z"/></g><g clip-path="url(#clip2_73_373)"><path fill="#FFC700" d="M53 0.5625L50.2282 6.13123L44 7.00872L48.5171 11.3287L47.4564 17.4375L53 14.5687L58.5436 17.4375L57.4829 11.3287L62 7.00872L55.7718 6.13123L53 0.5625Z"/></g><g clip-path="url(#clip3_73_373)"><path fill="#FFC700" d="M75 0.5625L72.2282 6.13123L66 7.00872L70.5171 11.3287L69.4564 17.4375L75 14.5687L80.5436 17.4375L79.4829 11.3287L84 7.00872L77.7718 6.13123L75 0.5625Z"/></g><g clip-path="url(#clip4_73_373)"><path fill="#FFC700" d="M97 0.5625L94.2282 6.13123L88 7.00872L92.5171 11.3287L91.4564 17.4375L97 14.5687L102.544 17.4375L101.483 11.3287L106 7.00872L99.7718 6.13123L97 0.5625Z"/></g><defs><clipPath id="clip0_73_373"><path fill="#fff" d="M0 0H18V18H0z"/></clipPath><clipPath id="clip1_73_373"><path fill="#fff" d="M0 0H18V18H0z" transform="translate(22)"/></clipPath><clipPath id="clip2_73_373"><path fill="#fff" d="M0 0H18V18H0z" transform="translate(44)"/></clipPath><clipPath id="clip3_73_373"><path fill="#fff" d="M0 0H18V18H0z" transform="translate(66)"/></clipPath><clipPath id="clip4_73_373"><path fill="#fff" d="M0 0H18V18H0z" transform="translate(88)"/></clipPath></defs></svg>