<svg xmlns="http://www.w3.org/2000/svg" width="13" height="12" fill="none" viewBox="0 0 13 12"><path fill="#fff" d="M10.56 3.355L9.145 1.94C8.86397 1.65862 8.48269 1.50035 8.085 1.5H4.915C4.51731 1.50035 4.13603 1.65862 3.855 1.94L2.44 3.355C2.15862 3.63603 2.00035 4.01731 2 4.415V9C2 9.39782 2.15804 9.77936 2.43934 10.0607C2.72064 10.342 3.10218 10.5 3.5 10.5H9.5C9.89782 10.5 10.2794 10.342 10.5607 10.0607C10.842 9.77936 11 9.39782 11 9V4.415C10.9997 4.01731 10.8414 3.63603 10.56 3.355ZM4.56 2.645C4.65582 2.55363 4.78262 2.50184 4.915 2.5H8.085C8.21738 2.50184 8.34418 2.55363 8.44 2.645L9.295 3.5H3.705L4.56 2.645ZM9.5 9.5H3.5C3.36739 9.5 3.24021 9.44732 3.14645 9.35355C3.05268 9.25979 3 9.13261 3 9V4.5H10V9C10 9.13261 9.94732 9.25979 9.85355 9.35355C9.75979 9.44732 9.63261 9.5 9.5 9.5Z"/><path fill="#fff" d="M8 5.5C7.86739 5.5 7.74021 5.55268 7.64645 5.64645C7.55268 5.74021 7.5 5.86739 7.5 6C7.5 6.26522 7.39464 6.51957 7.20711 6.70711C7.01957 6.89464 6.76522 7 6.5 7C6.23478 7 5.98043 6.89464 5.79289 6.70711C5.60536 6.51957 5.5 6.26522 5.5 6C5.5 5.86739 5.44732 5.74021 5.35355 5.64645C5.25979 5.55268 5.13261 5.5 5 5.5C4.86739 5.5 4.74021 5.55268 4.64645 5.64645C4.55268 5.74021 4.5 5.86739 4.5 6C4.5 6.53043 4.71071 7.03914 5.08579 7.41421C5.46086 7.78929 5.96957 8 6.5 8C7.03043 8 7.53914 7.78929 7.91421 7.41421C8.28929 7.03914 8.5 6.53043 8.5 6C8.5 5.86739 8.44732 5.74021 8.35355 5.64645C8.25979 5.55268 8.13261 5.5 8 5.5Z"/></svg>